<?xml version="1.0" standalone="no"?>
<!DOCTYPE svg PUBLIC "-//W3C//DTD SVG 1.1//EN" "http://www.w3.org/Graphics/SVG/1.1/DTD/svg11.dtd" >
<svg xmlns="http://www.w3.org/2000/svg">
<metadata></metadata>
<defs>
<font id="moderne_frakturregular" horiz-adv-x="1587" >
<font-face units-per-em="2048" ascent="1638" descent="-410" />
<missing-glyph horiz-adv-x="462" />
<glyph horiz-adv-x="0" />
<glyph horiz-adv-x="682" />
<glyph horiz-adv-x="339" d="M104 1253q0 -59 41 -101t99 -42q55 0 97 42t42 101q0 53 -42 94.5t-97 41.5q-57 0 -98.5 -41t-41.5 -95zM166 1253q0 29 23.5 53.5t54.5 24.5q33 0 55.5 -24.5t22.5 -53.5q0 -35 -23 -58.5t-55 -23.5q-31 0 -54.5 24t-23.5 58z" />
<glyph unicode="&#xd;" horiz-adv-x="522" d="M78 895l33 -53l49 20l49 -47v-582q0 -59 2 -98t12 -68.5t34 -59.5t67 -70q92 72 149 101.5t76 41.5l-23 57l-82 -31q-35 10 -49 34t-14 81v557l25 26q26 27 69 73l-170 165q-37 -27 -63.5 -45t-51 -33.5t-50 -32t-62.5 -36.5z" />
<glyph horiz-adv-x="1497" d="M104 1153q0 -80 36 -142.5t79 -115.5t79 -100t36 -97q0 -41 -25.5 -76.5t-66.5 -86.5l45 -43q57 55 93 97t54.5 76.5t24.5 65.5t6 68q0 78 -38 134t-84 104t-84 93.5t-38 100.5q0 80 51.5 140.5t145.5 60.5q66 0 109.5 -41t71.5 -112t39 -167t11 -207q0 -143 -26.5 -278 t-92.5 -221v-64q63 -31 101.5 -54.5t67 -51t54 -62.5t62.5 -90q61 51 146.5 94t156.5 60q-31 -113 -79 -208.5t-112.5 -164t-146.5 -107.5t-182 -39q-92 0 -125 48.5t-37 126.5q-31 -12 -52.5 -20.5t-43 -12.5t-47.5 -4q-27 0 -64 4q14 -35 22.5 -55.5t12.5 -39t5 -43 t1 -67.5q31 10 54.5 15t66.5 -1h35q27 0 63.5 -6t92.5 -6q203 0 350 86t244.5 223t144.5 310.5t47 349.5q0 139 -14.5 240.5t-36 177t-44 132t-39.5 107.5t-23.5 103.5t6.5 119.5l-39 27q-63 -70 -71.5 -162t6.5 -199.5t38 -229.5t23 -251q0 -96 -9.5 -189t-27.5 -179 q-70 -10 -132.5 -35t-93.5 -39q-33 49 -55 77.5t-43.5 49t-47.5 39t-65 45.5q33 51 58.5 96t43 96.5t26 111.5t8.5 144q0 141 -28 255t-78 193t-120.5 121t-156.5 42q-72 0 -135.5 -29t-110.5 -79t-75 -116.5t-28 -142.5zM690 1724l195 261h-148zM924 1718l198 267h-149z " />
<glyph unicode=" "  horiz-adv-x="462" />
<glyph unicode="&#x09;" horiz-adv-x="462" />
<glyph unicode="&#xa0;" horiz-adv-x="462" />
<glyph unicode="!" horiz-adv-x="499" d="M104 1364q49 -66 74 -106.5t37 -76.5t16.5 -78t10.5 -108l49 -645h51l64 766q4 45 9 88t18 86t39 85t71 83l-29 51q-106 -57 -154.5 -127.5t-78.5 -150.5q-6 12 -14.5 25.5t-22 33t-37 47t-60.5 68.5zM156 100q25 -23 40 -37t30.5 -28.5t34 -36t50.5 -59.5q39 41 83 82.5 t85 76.5q-25 23 -41 38.5t-32.5 31.5t-36 38.5t-50.5 59.5q-29 -31 -42 -47t-26 -29.5t-33.5 -33t-61.5 -56.5z" />
<glyph unicode="&#x22;" horiz-adv-x="610" d="M211 1353q2 -40 7 -76t5 -50l35 -410h45l35 404q0 4 4 39.5t5 78.5t-4 83t-24 55q-35 25 -75 0q-23 -14 -29 -49t-4 -75zM409 1353q1 -40 6 -76t5 -50l35 -410h45l32 404q0 4 4.5 39.5t6.5 78.5t-3 83t-24 55q-35 23 -78 0q-20 -14 -25 -49t-4 -75z" />
<glyph unicode="#" horiz-adv-x="1218" d="M104 559h215l-126 -557h137l123 557h260l-127 -557h137l123 557h213l33 135h-215l51 232h215l33 135h-218l111 495h-127l-115 -495h-262l109 495h-125l-115 -495h-213l-33 -135h215l-53 -232h-213zM481 694l54 232h262l-54 -232h-262z" />
<glyph unicode="$" horiz-adv-x="1052" d="M82 362q43 -27 63.5 -44t34 -35.5t27.5 -43t43 -65.5q47 -66 102.5 -101.5t102.5 -52.5v-133h65v121q27 -4 41 -4h17h30q16 0 33 2v-119h64v129q72 16 132 50t103 83.5t66.5 111t23.5 132.5q0 72 -27.5 130.5t-72.5 106.5t-104.5 90t-120.5 79v547q47 -27 72.5 -64 t25.5 -70q0 -51 -10.5 -93t-10.5 -79q0 -61 36 -107t102 -46q18 0 28 2t19.5 6t20.5 10t30 17l-21 51q-6 0 -14 -1t-16 -1q-23 0 -27 23.5t-2 58t8 71.5t6 66q0 49 -19.5 90t-53 71.5t-78.5 52t-96 34.5v92h-64v-84q-14 2 -25.5 3t-23.5 1q-20 0 -37.5 -1t-34.5 -3v84h-65 v-92q-139 -31 -213 -126t-74 -249q0 -53 23.5 -101.5t63.5 -91.5t91 -84t109 -77v-592q-66 37 -108 90t-42 94q-2 35 8.5 61.5t40.5 73.5q-16 6 -33.5 14.5t-37 21.5t-45 32.5t-60.5 48.5q-10 -29 -16 -47.5t-14.5 -36.5t-23.5 -43t-42 -64zM322 1163q0 74 31.5 125 t101.5 74v-408q-59 45 -96 95.5t-37 113.5zM520 90v578q31 -18 61.5 -37t59.5 -37v-512q-14 0 -26.5 -1t-28.5 -1q-31 0 -66 10zM520 909v467q14 2 28.5 3t31.5 1q35 0 61 -10v-534q-31 20 -61.5 37.5t-59.5 35.5zM705 98v453q74 -53 121.5 -107.5t47.5 -119.5 q0 -74 -45.5 -135.5t-123.5 -90.5z" />
<glyph unicode="%" horiz-adv-x="1660" d="M104 1047q0 -203 78 -319t221 -116q82 0 139.5 37t93.5 101.5t52.5 152.5t16.5 191q0 70 -7.5 132t-23.5 109q109 -45 198 -45q53 0 106.5 19.5t82.5 36t33 18.5l-643 -1438l106 -4l719 1596h-90q-88 -78 -172 -113t-166 -35q-68 0 -124 24.5t-109.5 54.5t-104.5 54.5 t-107 24.5q-63 0 -118.5 -34t-95 -97.5t-62.5 -151.5t-23 -198zM244 1034q0 119 14 201t37.5 133t54.5 74.5t66 23.5q39 0 68.5 -28.5t50 -77.5t32 -115.5t11.5 -144.5q0 -211 -53.5 -321.5t-125.5 -110.5q-43 0 -72.5 38.5t-48 95t-26.5 120t-8 112.5zM1012 346 q0 -86 20.5 -164t58 -136t93 -92t125.5 -34q84 0 143 48t96 120t53.5 155t16.5 154q0 113 -24.5 194t-66.5 133t-94.5 76.5t-107.5 24.5q-96 0 -155.5 -54t-94.5 -130t-48 -158t-15 -137zM1149 313q0 31 4 76t12.5 96.5t21.5 100.5t31.5 90t43 65.5t55.5 24.5 q78 0 121 -96.5t43 -290.5q0 -47 -8.5 -113.5t-28 -129t-51 -106.5t-80.5 -44q-51 0 -83 40t-50.5 94t-24.5 109t-6 84z" />
<glyph unicode="&#x26;" horiz-adv-x="1628" d="M102 391q0 -115 43 -211t116 -165.5t166 -108.5t196 -39q86 0 170 31.5t182 101.5q88 -72 161.5 -102.5t139.5 -30.5q88 0 153.5 37t106.5 92t58.5 121.5t9.5 126.5h-50q-12 -78 -41.5 -129.5t-65.5 -80t-74 -39.5t-68 -11q-53 0 -99.5 29.5t-105.5 101.5l39 49 q43 53 69.5 90t50 61.5t51 40t74.5 25.5q-23 37 -33 61.5t-16 46t-8 43t-4 54.5q-33 -18 -54.5 -29.5t-42 -19t-43 -11.5t-55.5 -8q31 -90 12.5 -163.5t-91.5 -164.5q-41 59 -56.5 85t-19.5 34l-275 563q55 29 109.5 56.5t98.5 63.5t71 84t27 120q0 66 -28 116t-68 85 t-85 53t-82 18q-72 0 -128 -26.5t-96 -70.5t-60.5 -103.5t-20.5 -126.5q-2 -72 15.5 -141.5t35.5 -135.5q-100 -47 -172.5 -96t-120 -105.5t-70 -123t-22.5 -148.5zM307 389q0 53 11.5 109.5t36 107.5t66.5 96.5t103 75.5l205 -411q33 -61 54.5 -99.5t40 -67t39 -59 t52.5 -78.5q-125 -96 -256 -96q-70 0 -133 29t-112 84t-78 133t-29 176zM594 1239q0 78 43 115t96 35q23 -2 46.5 -13.5t43 -33t31.5 -53.5t12 -75q0 -82 -49 -141t-147 -119q-10 25 -23.5 59t-25 72.5t-19.5 78.5t-8 75z" />
<glyph unicode="'" horiz-adv-x="602" d="M211 1343q39 -33 64.5 -55t41.5 -43q29 -39 28 -86t-16.5 -93t-39 -88t-37.5 -69l45 -24q18 29 30.5 48t22.5 36.5t19.5 38t23.5 51.5l90 201q2 6 10.5 19t15.5 27.5t14 28t9 17.5q-41 37 -67.5 60.5t-42.5 39.5t-28.5 29.5t-24.5 27.5q-12 -14 -33 -37.5t-44.5 -48 t-46 -46t-34.5 -34.5z" />
<glyph unicode="(" horiz-adv-x="503" d="M104 557q0 -143 20.5 -252.5t51.5 -193.5t68 -146.5t67.5 -112t51 -88t20.5 -77.5q0 -14 -1 -28.5t-3 -33.5l37 -16q16 39 23 65.5t7 53.5q0 35 -24.5 112.5t-54 187t-54 246t-24.5 289.5q0 156 26.5 290t59.5 240.5t59.5 183.5t26.5 116q0 29 -9.5 55t-25.5 61l-41 -20 v-39q0 -66 -44 -138.5t-96 -174t-96.5 -241.5t-44.5 -339z" />
<glyph unicode=")" horiz-adv-x="503" d="M129 1393q0 -39 26.5 -116t59.5 -183.5t59.5 -240.5t26.5 -290q0 -154 -24.5 -290t-55.5 -245.5t-55.5 -187.5t-24.5 -112q0 -27 8.5 -53.5t24.5 -65.5l37 16q-2 18 -3 32.5t-1 29.5q0 57 43 119.5t95 157.5t95 236.5t43 356.5q0 131 -20.5 237.5t-51 190.5t-67.5 151.5 t-67.5 123t-51 101.5t-20.5 89v39l-41 20q-16 -35 -25.5 -61.5t-9.5 -54.5z" />
<glyph unicode="*" horiz-adv-x="884" d="M96 1227q23 -27 55.5 -72t51.5 -76q29 10 89 21.5t152 -4.5q-35 -29 -59.5 -45.5t-46 -29.5t-46 -25.5t-56.5 -28.5q4 -35 7 -53.5t4 -35t2 -37t1 -57.5q14 6 36.5 13.5t47 15.5t48.5 14.5t40 10.5q0 31 9 92t50 145q14 -43 23.5 -71.5t15.5 -54t10.5 -52.5l10.5 -63 q33 -6 51 -9.5t34.5 -6.5t36 -9t54.5 -18q-2 35 -1 90t5 90q-29 10 -85 36.5t-122 92.5q43 2 72 2q31 0 56.5 -2t52 -6t63.5 -11q16 31 25.5 47.5t17.5 31t20.5 31.5t34.5 46q-35 10 -87 26.5t-83 30.5q-20 -25 -63 -69.5t-127 -85.5q12 43 22 71.5t20.5 51t22.5 46t31 58.5 q-25 25 -38 39t-23.5 26.5t-23.5 29t-34 46.5q-10 -14 -23.5 -33.5t-28.5 -40t-29.5 -40t-26.5 -31.5q18 -25 46.5 -80t43.5 -147q-37 25 -60.5 43t-43 34.5t-39 35t-46.5 46.5q-31 -14 -47 -22t-31.5 -15.5t-36 -13.5t-55.5 -18z" />
<glyph unicode="+" horiz-adv-x="1255" d="M104 485h476v-475h176v475h477v187h-469v467h-180v-475h-480v-179z" />
<glyph unicode="," horiz-adv-x="385" d="M104 102q53 -45 91 -83.5t38 -98.5q0 -55 -8 -85t-37 -68l43 -29q41 51 66 99t43 93t36.5 87t47.5 79q-27 25 -43 41.5t-31.5 33.5t-34 38.5t-47.5 56.5q-31 -35 -47 -53t-31.5 -32.5t-34 -31t-51.5 -47.5z" />
<glyph unicode="-" horiz-adv-x="653" d="M113 391h503v127h-503v-127z" />
<glyph unicode="." horiz-adv-x="385" d="M104 100l164 -163l160 167l-164 162z" />
<glyph unicode="/" horiz-adv-x="722" d="M74 -68h102l557 1577h-94z" />
<glyph unicode="0" horiz-adv-x="1050" d="M117 756q0 -137 25.5 -277.5t82 -254t147.5 -185.5t224 -72q127 0 217 72t146.5 184.5t83 246.5t26.5 261q0 125 -26.5 259t-83 246t-146.5 183.5t-217 71.5q-133 0 -224 -74t-147.5 -183.5t-82 -238.5t-25.5 -239zM311 760q0 96 10.5 213t40 218t81 170t132.5 69 q94 0 151.5 -59.5t90.5 -159t44 -229.5t11 -271q0 -123 -11 -245t-44 -219t-90 -157.5t-152 -60.5q-82 0 -133 67.5t-80.5 173t-40 235.5t-10.5 255z" />
<glyph unicode="1" horiz-adv-x="1040" d="M319 1346q63 0 101.5 -18.5t58 -52.5t25.5 -82t6 -108v-692q0 -61 -6 -113.5t-23.5 -103.5t-51.5 -102t-89 -109l29 -37q51 29 88 54.5t65.5 53t52 59.5t50.5 73q12 -31 23 -52.5t25.5 -41t34 -39t50.5 -45.5l30 35q-37 55 -57 99t-30.5 87t-12.5 91t-2 110v1136 q-57 -41 -98 -63.5t-80 -36.5t-83 -24.5t-106 -22.5v-55z" />
<glyph unicode="2" horiz-adv-x="1040" d="M126 178q3 -90 11 -178h49q20 74 57.5 115t96.5 41q41 0 84 -29t90 -63.5t100.5 -63.5t116.5 -29q102 0 162.5 53.5t92.5 128t40 153.5t6 128h-57q-6 -51 -19.5 -101t-37 -90t-58.5 -64.5t-86 -24.5q-29 0 -54.5 8t-57.5 28l-31 21q-78 49 -125 76.5t-96 25.5 q-53 0 -104.5 -29.5t-92.5 -99.5q-6 88 7 155t51 122t103.5 103t164.5 100l88 45q88 45 152.5 81.5t106.5 82t62.5 103.5t20.5 148q0 96 -41 165t-105.5 113t-142.5 64.5t-154 20.5q-68 0 -124 -20.5t-98 -55.5t-64.5 -80t-22.5 -96q0 -29 6 -61.5t14.5 -64.5t14.5 -57.5 t6 -39.5q0 -41 -21.5 -54.5t-50.5 -27.5v-47q33 -4 42.5 -7.5t25.5 -3.5q66 0 101.5 28t50 70t12.5 92t-9.5 97t-16.5 85t-9 52q0 20 12.5 43t34 41.5t52 30.5t67.5 12q63 0 107 -25.5t72 -66.5t40 -90t12 -96q0 -72 -20.5 -127t-60.5 -102.5t-99 -91.5t-137 -93l-64 -41 q-115 -78 -172 -162t-80.5 -172t-20.5 -178z" />
<glyph unicode="3" horiz-adv-x="1040" d="M68 336q61 -43 93 -89t59.5 -92t68.5 -88t121 -73q76 -29 151 -29q119 0 208 43t149.5 110.5t90 148.5t29.5 155q0 98 -26.5 165.5t-73.5 112.5t-112.5 74.5t-141.5 52.5q55 16 105.5 40t89.5 60t62.5 87t23.5 123q0 100 -36 167.5t-91.5 107.5t-121 56.5t-122.5 16.5 q-74 0 -135.5 -18.5t-107.5 -50.5t-71.5 -77t-25.5 -100q0 -37 5 -82t9 -104q0 -25 -2 -39.5t-8 -21.5t-18.5 -12t-30.5 -13v-47q111 -16 167 30.5t56 128.5q2 51 -3 94.5t-5 77.5q0 72 43 120t111 48q96 0 149 -63.5t53 -198.5q2 -92 -20.5 -150.5t-57 -91t-74.5 -45 t-73 -12.5h-33v-61q10 -2 26 -4l15 -2q129 -18 205 -106.5t76 -260.5q0 -78 -21.5 -148.5t-59.5 -123t-92.5 -83t-119.5 -30.5q-68 0 -115 22.5t-77.5 55.5t-45 71.5t-14.5 71.5t14.5 63.5t36.5 67.5q-35 14 -56.5 25.5t-37.5 25t-33.5 29.5t-44.5 45q-12 -35 -22.5 -57.5 t-22.5 -42t-27.5 -38t-37.5 -42.5z" />
<glyph unicode="4" horiz-adv-x="1040" d="M104 498l50 -54q137 76 257.5 72t256.5 -67v-111v-111q0 -61 -13.5 -130.5t-47.5 -138.5t-99 -128l24 -41q102 59 159 118.5t100 127.5q20 -35 31.5 -55.5t23.5 -36t29.5 -31.5t48.5 -47l30 33q-37 51 -59.5 95t-35.5 95t-17 113.5t-4 152.5v76q37 -2 66.5 1t59 14.5 t58.5 32t61 54.5l-26 48q-31 -14 -53.5 -22.5t-45 -10.5t-51 3t-73.5 17v686v115q0 37 -16.5 59.5t-55.5 45t-119 75.5q-23 -25 -34 -35t-18 -18t-14.5 -20.5t-19.5 -36.5zM236 551l432 862v-817q-115 41 -218 23.5t-214 -68.5z" />
<glyph unicode="5" horiz-adv-x="1050" d="M100 319q61 -29 100.5 -75.5t75 -96t79.5 -94.5t118 -69q51 -18 117 -19q127 0 215 48t143.5 122t80 162t24.5 168q0 100 -35 188t-94.5 153.5t-139 103.5t-170.5 38q-66 0 -130 -23.5t-142 -64.5l16 406q23 -4 79.5 -10.5t127.5 -6.5q61 0 131 7.5t125.5 34t85 75.5 t13.5 135h-41q-37 -66 -105.5 -85t-145.5 -15t-152 22.5t-126 28.5l-63 14l-23 -643q-2 -47 -8 -77l-6 -31l47 -19q53 88 111.5 123t140.5 35q66 0 122 -26.5t98 -79t65.5 -127t23.5 -172.5q0 -96 -21.5 -173t-60.5 -130.5t-93 -83t-118 -29.5q-41 0 -82 17.5t-73.5 48 t-53 70.5t-20.5 85q0 16 6 48t45 91q-35 14 -56.5 26.5t-39 25t-35.5 30t-47 43.5q-14 -37 -25.5 -61.5t-22.5 -44t-25.5 -41t-35.5 -52.5z" />
<glyph unicode="6" horiz-adv-x="1060" d="M188 688q0 -160 29 -292t83 -228t133 -149.5t179 -53.5q92 0 170 32t134.5 94.5t88 153.5t31.5 208q0 119 -34.5 201.5t-90 135t-124 76t-136.5 23.5q-72 0 -138.5 -37t-131.5 -123q-4 47 0 132t16.5 176t37 174t63.5 128q41 45 85 64.5t83 17.5q59 0 94 -35.5t35 -89.5 q0 -35 -5.5 -73.5t-5.5 -71.5q0 -37 12.5 -65.5t33 -48t44 -29t46.5 -9.5q29 0 56.5 13.5t57.5 31.5l-18 39q-35 0 -48.5 18.5t-15.5 44t3.5 54.5t5.5 49q0 37 -7.5 67t-27.5 54q-47 66 -120 91.5t-138 25.5q-115 0 -204 -58.5t-150.5 -164t-93.5 -252t-32 -324.5zM401 424 q0 86 14.5 156.5t42 122t69.5 80t98 28.5q92 0 155.5 -99.5t63.5 -277.5q0 -186 -56.5 -297.5t-164.5 -111.5q-41 0 -81 28.5t-71 80.5t-50.5 126t-19.5 164z" />
<glyph unicode="7" horiz-adv-x="1040" d="M80 977h51q4 59 21.5 113.5t47 94.5t69.5 63.5t89 23.5t97.5 -20.5t101.5 -49.5l29 -18q76 -41 143 -41q98 0 201 96q-23 -102 -69 -172t-111 -141l-84 -84q-152 -152 -226.5 -285t-77.5 -262q0 -86 42 -173t155 -159q37 45 57.5 69.5t38 42t38 35t57.5 48.5l-39 43 l-62 -39q-33 27 -51 50.5t-26.5 47t-9.5 50t-1 59.5q4 111 58.5 234.5t140.5 227.5l69 84q106 135 148.5 260t34.5 267h-47q-10 -27 -23.5 -53.5t-32 -47t-42 -34t-54.5 -13.5q-53 0 -100 30t-93.5 66.5t-94.5 66.5t-103 30q-94 0 -153.5 -43t-110.5 -135l4 108h-62z" />
<glyph unicode="8" horiz-adv-x="1050" d="M145 401q0 -98 37 -178t98.5 -137t143.5 -89t174 -32q117 0 202 43t141 108.5t84 143.5t28 148t-21.5 125t-61.5 104t-99.5 98.5t-135.5 108.5q121 76 178.5 147.5t57.5 177.5q0 70 -28 128.5t-77 100.5t-115.5 65.5t-144.5 23.5q-84 0 -152.5 -30t-117.5 -75t-76 -99 t-27 -103q0 -113 53.5 -200t176.5 -183q-63 -29 -120.5 -66t-101.5 -85t-70 -108.5t-26 -136.5zM287 385q0 100 54 197.5t187 162.5l70 -45q70 -47 123 -83.5t87 -74.5t51.5 -81t17.5 -101q0 -59 -16.5 -117.5t-52.5 -104.5t-91 -75.5t-131 -29.5t-132.5 31.5t-93 83 t-55 114t-18.5 123.5zM399 1206q0 41 16.5 81t45 72t68.5 51.5t87 19.5q49 0 91.5 -22t73 -57.5t47 -82t16.5 -97.5q0 -43 -6.5 -77.5t-25.5 -66.5t-53 -65.5t-89 -74.5q-55 37 -104.5 69.5t-86.5 69.5t-58.5 80t-21.5 100z" />
<glyph unicode="9" horiz-adv-x="1056" d="M129 256q47 -35 65.5 -54.5t28.5 -35.5t23.5 -35.5t50.5 -56.5q66 -61 119 -85t112 -24q115 0 203 58.5t148.5 165t92.5 253t32 322.5q0 158 -28 290t-82 228t-132 150.5t-178 54.5q-92 0 -169 -32t-133.5 -94.5t-88 -152.5t-31.5 -207t33.5 -199.5t88 -136t121 -78 t134.5 -24.5q78 0 145.5 42t130.5 120q2 -47 -1 -131t-15.5 -175t-38 -173t-64.5 -125q-41 -47 -91 -69.5t-89 -22.5q-33 0 -61.5 15t-50 40t-34 55.5t-12.5 61.5q2 31 11.5 59.5t25.5 61.5q-37 16 -57.5 27t-36.5 21.5t-33.5 26t-46.5 39.5q-14 -39 -23.5 -63.5t-19.5 -43 t-21.5 -34.5t-27.5 -39zM354 1020q0 186 56.5 298t162.5 112q41 0 81 -29t71 -81t50.5 -126t19.5 -162q0 -86 -14.5 -157.5t-43 -124t-70.5 -81t-96 -28.5q-92 0 -154.5 101.5t-62.5 277.5z" />
<glyph unicode=":" horiz-adv-x="385" d="M104 98l164 -166l160 170l-164 162zM104 717l164 -164l160 170l-164 160z" />
<glyph unicode=";" horiz-adv-x="385" d="M104 102q53 -45 91 -83.5t38 -98.5q0 -55 -8 -85t-37 -68l43 -29q41 51 66 99t43 93t36.5 87t47.5 79q-27 25 -43 41.5t-31.5 33.5t-34 38.5t-47.5 56.5q-31 -35 -47 -53t-31.5 -32.5t-34 -31t-51.5 -47.5zM104 721l164 -166l160 170l-164 160z" />
<glyph unicode="&#x3c;" horiz-adv-x="1021" d="M104 561l961 -405v155l-774 318l774 319v158l-961 -408v-137z" />
<glyph unicode="=" horiz-adv-x="1271" d="M104 338h1125v174h-1125v-174zM104 694h1125v174h-1125v-174z" />
<glyph unicode="&#x3e;" horiz-adv-x="1021" d="M104 156l961 405v137l-961 408v-158l777 -319l-777 -318v-155z" />
<glyph unicode="?" horiz-adv-x="837" d="M104 1303l144 -119l293 180q53 -72 77.5 -158t26.5 -166q0 -141 -56.5 -223t-182.5 -129l32 -340h58q0 2 2 30t5 72t7 84.5t8 72.5t6 34q86 39 142.5 84t89 94t47 97.5t14.5 93.5q0 104 -43 191t-105.5 149.5t-133 100.5t-125.5 48q-12 -4 -61.5 -35.5t-104 -67.5 t-97.5 -64zM303 98q41 -37 60.5 -54t32 -29.5t25.5 -28t44 -47.5q39 43 58.5 63.5t33.5 33.5t27.5 25.5t38.5 34.5q-29 27 -48.5 46.5t-36 37t-33.5 36.5t-40 46q-41 -43 -79 -82t-83 -82z" />
<glyph unicode="@" horiz-adv-x="1757" d="M104 489q0 -174 66 -315t179.5 -240.5t265 -152.5t323.5 -53q162 0 332 54t329 161l-45 65q-168 -102 -322.5 -145t-301.5 -43q-141 0 -268 47t-224.5 134t-154 211t-56.5 277q0 190 61.5 336t168 244t249 148.5t302.5 50.5q121 0 232.5 -36t196.5 -106.5t136 -174 t51 -238.5q0 -96 -23.5 -178t-63.5 -141.5t-91 -94.5t-107 -35q-49 0 -79.5 11.5t-43 40t-7.5 77.5t26 125l117 430h-150l-43 -155q-8 35 -25.5 67.5t-45 59t-65.5 42t-89 15.5q-84 0 -162 -46t-137.5 -122t-94 -173t-34.5 -202q0 -80 24.5 -136t64.5 -92t90 -51.5 t101 -15.5q84 2 147.5 40t129.5 128q23 -74 71 -120t146 -46q68 0 144.5 31t141 101.5t106.5 184t42 281.5q0 127 -50 237.5t-142 193.5t-223.5 131.5t-292.5 48.5q-233 0 -403.5 -77t-281 -200t-164 -276.5t-53.5 -307.5zM670 401q0 74 23.5 157t63.5 152.5t93 114.5 t115 45q55 0 97 -42t42 -117q0 -82 -24.5 -166t-66.5 -152.5t-96.5 -111.5t-111.5 -43q-49 0 -92 41.5t-43 121.5z" />
<glyph unicode="A" horiz-adv-x="1458" d="M104 260q16 -41 23.5 -69.5t8.5 -55t-4 -54.5t-13 -69q25 3 47 3q38 0 66 -9q44 -14 80 -34.5t75 -39t100 -18.5q84 0 130.5 33t68 101.5t25.5 174t4 248.5q94 -27 196 -27q94 0 203 21v-103q2 -57 5 -111t16.5 -107.5t42 -106.5t84.5 -107q4 2 14 11.5t22.5 19.5 t22.5 19.5t14 13.5l164 139l-37 43q-12 -2 -24.5 -10t-23.5 -16.5t-19.5 -13.5t-10.5 -3q-51 37 -71.5 85t-20.5 114v725q0 70 4 125t24.5 100t62.5 86t118 84l-24 70q-66 -20 -110 -41t-78 -48.5t-62.5 -64.5t-59.5 -92q-92 111 -197.5 179.5t-254.5 68.5q-98 0 -180 -42 t-141.5 -113t-92.5 -164t-33 -193q0 -170 80 -289t201 -186q2 -135 9 -233q4 -53 4 -97q0 -37 -3 -67q-6 -64 -31.5 -96t-87.5 -32q-41 0 -66.5 20.5t-38.5 51.5t-13 68q0 39 10 73q-41 -6 -67.5 -7t-49 3t-48.5 13.5t-63 25.5zM350 1032q0 74 24.5 140.5t67.5 118.5 t102.5 83t129.5 31q92 0 182 -55q-78 -84 -135 -154t-95 -147.5t-56.5 -173t-20.5 -228.5q-86 59 -142.5 151.5t-56.5 233.5zM715 567q0 121 9 226.5t31.5 196.5t62 167.5t100.5 142.5q78 -74 131 -201.5t53 -310.5v-233q-74 -20 -168 -20q-49 0 -105.5 7t-113.5 25z" />
<glyph unicode="B" horiz-adv-x="1613" d="M104 1157q0 -86 43 -148.5t95.5 -113.5t95.5 -94t43 -92q0 -39 -29.5 -70t-70.5 -70l41 -43q51 41 84.5 74t53 62.5t27 61.5t7.5 69q0 86 -39 141t-86 101t-86 93.5t-39 116.5q0 86 50 135.5t128 49.5q129 0 195.5 -132.5t66.5 -414.5q0 -78 -4 -146.5t-21.5 -133 t-50.5 -125.5t-88 -124q-74 29 -151 29q-45 0 -89 -18.5t-80 -43t-58.5 -49t-26.5 -36.5l32 -37q47 29 80 42t62 13q41 0 84 -23.5t92 -60.5t105.5 -78t122 -78t142 -60.5t164.5 -23.5q115 0 212.5 43t168 119t109.5 176.5t39 214.5q0 49 -10.5 103.5t-33 111t-59 109.5 t-92.5 98q78 10 134.5 19.5t68.5 13.5l-10 57q-51 14 -81 39t-44.5 55.5t-17.5 67.5t-3 74q0 57 -11 109.5t-38.5 93.5t-78 65.5t-126.5 24.5q-72 0 -117.5 -19.5t-78.5 -50.5t-60.5 -71t-64.5 -78q-53 109 -147.5 164t-198.5 55q-74 0 -138.5 -32t-112.5 -83t-76 -116.5 t-28 -135.5zM592 322q59 70 105 126t80 113t55.5 123t31.5 156q40 10 80 10q58 0 114 -21q96 -36 170.5 -109t120.5 -172t46 -204q0 -59 -24.5 -113.5t-64.5 -95.5t-92.5 -64.5t-107.5 -23.5q-68 0 -131.5 29.5t-126 71.5t-126 89.5t-130.5 84.5zM868 918v71q0 86 11.5 166 t35 141.5t59.5 98.5t85 37q47 0 72.5 -18.5t38 -49.5t14.5 -70t2 -82q0 -59 42 -115.5t138 -99.5l20 -9q0 -1 -20 -5z" />
<glyph unicode="C" horiz-adv-x="1327" d="M104 809q0 -176 43 -336t129 -279.5t215.5 -190.5t299.5 -71q113 0 201.5 30t159.5 85t124 135t94 180l-53 27q-80 -129 -198 -209t-240 -80q-133 0 -242 49.5t-187.5 144.5t-121.5 233.5t-43 318.5q0 121 21.5 230.5t64.5 192.5t106.5 132t147.5 49q10 0 39.5 -2 t58.5 -10q-47 -53 -72.5 -122t-25.5 -147q0 -92 46 -179t101 -164.5t101.5 -142.5t46.5 -114q0 -84 -50.5 -134t-117.5 -50q-51 0 -88 23q-36 24 -56 64q-21 42 -21 97q0 50 19 105l-59 28q-33 -52 -35 -120v-8q0 -64 26 -122q28 -62 90 -105.5t156 -43.5q76 0 132.5 27.5 t93.5 71.5t55 97.5t18 104.5q0 86 -56 172t-123.5 167t-124 152.5t-56.5 131.5q0 35 13.5 70.5t38 65.5t57 48.5t69.5 18.5h12q59 0 112 -37q58 -41 112 -95l178 152l-35 47l-55 -33q-127 90 -252 90q-104 0 -189 -61q-23 10 -50 18.5t-53 14.5t-47.5 9t-33.5 3 q-106 0 -196.5 -59.5t-157 -158.5t-104.5 -231.5t-38 -279.5z" />
<glyph unicode="D" horiz-adv-x="1800" d="M104 1059q0 -61 23 -102.5t56.5 -70t75.5 -48t83 -33.5l16 57q-33 14 -64.5 29.5t-56 37t-40 49.5t-15.5 66q0 135 156.5 206t449.5 71q-16 -29 -38.5 -65.5t-45 -83t-38 -98.5t-15.5 -109q0 -66 27 -124.5t58.5 -110.5t58 -101t26.5 -97q0 -23 -12 -43t-32.5 -35.5 t-44 -24.5t-48.5 -9q-47 0 -82 23.5t-54.5 63.5t-23.5 91q-1 13 -1 26q0 39 9 81l-65 20q-17 -58 -17 -113q0 -20 2 -40q8 -72 44 -127.5t94.5 -87t138.5 -31.5q53 0 101.5 21.5t85 57t58 85t21.5 104.5q0 74 -33.5 132t-74.5 111.5t-75 107.5t-34 120q0 70 34 137.5 t60 118.5q143 -8 279.5 -63.5t242 -147.5t169 -219t63.5 -281q0 -96 -30.5 -189t-89 -165t-142.5 -116t-188 -44q-80 0 -156 25.5t-149.5 57.5t-148.5 57.5t-155 25.5q-102 0 -200.5 -47t-190.5 -168l55 -37q41 55 95.5 90t113.5 35q51 0 121 -30.5t154 -68.5t179 -68.5 t193 -30.5q158 0 276 60t195.5 165.5t116.5 248t39 306.5q0 147 -65.5 290.5t-188.5 257t-299 183.5t-395 70q-127 0 -246 -33t-211 -92.5t-148.5 -144.5t-56.5 -189z" />
<glyph unicode="E" horiz-adv-x="1376" d="M104 1231q0 -84 25 -137.5t64.5 -86t89 -49t100.5 -26.5v53q-78 23 -135.5 65t-57.5 121q0 35 13.5 68t37 58.5t54.5 41t67 15.5q66 0 126.5 -29.5t123.5 -64.5q-80 -125 -84 -238v-11q0 -47 16 -95q18 -54 39 -110t39.5 -115.5t18.5 -125.5q0 -74 -35 -128t-88 -97 t-114.5 -79t-116 -72.5t-91 -81t-38.5 -101.5l49 -18q45 86 84 109.5t90 23.5q66 0 135.5 -29t146 -62.5t163.5 -62t188 -28.5q106 0 183 35.5t125 93.5q48 56 68 128q16 55 17 111q0 16 -2 33h-51q1 -9 1 -18q-1 -48 -19 -92q-22 -52 -58.5 -91t-83.5 -61.5t-96 -22.5 q-61 0 -126 28t-133.5 61.5t-143 64.5t-158.5 37q74 55 124 103t81.5 94t46 91.5t14.5 98.5q0 20 -2 40.5t-6 39.5q35 6 62.5 12t55.5 14q16 -20 43 -50t44.5 -48t19.5 -20l166 118l-133 168q-78 -63 -143.5 -86.5t-135.5 -32.5q-16 49 -39.5 93.5t-44 84.5t-35 74.5 t-14.5 65.5q0 25 8 57.5t23 61.5q57 -31 122.5 -53.5t145.5 -22.5q84 0 162 40t164 126l-39 41q-35 -31 -61.5 -47.5t-48 -25.5t-42 -11t-43.5 -2q-80 0 -155.5 41t-151.5 90t-154.5 90t-164.5 41q-57 0 -111.5 -21.5t-96.5 -60.5t-68 -95.5t-26 -123.5z" />
<glyph unicode="F" horiz-adv-x="1359" d="M104 1161q0 -74 28 -135t77 -106.5t115.5 -72t142.5 -28.5q2 2 2 12v23v20v13q-150 29 -208 100.5t-58 161.5q0 39 16.5 70.5t43 54t60 36t70.5 13.5q53 0 99.5 -17.5t92.5 -43t96 -54t110 -51.5q-18 -39 -40 -88t-40.5 -103.5t-30.5 -109.5t-12 -106q0 -117 40 -213.5 t88 -184.5t88 -174t40 -184q0 -59 -15.5 -112.5t-47.5 -94.5t-80 -64.5t-115 -23.5q-63 0 -112.5 21.5t-84.5 58.5t-53.5 84t-18.5 96q0 51 15.5 106.5t34 115t34 122t15.5 127.5q0 106 -55.5 163.5t-131.5 57.5q-66 0 -110.5 -40t-81.5 -117l55 -25q20 35 47 59.5t55 24.5 q33 0 49.5 -25.5t16.5 -56.5q0 -27 -17.5 -77t-37 -111.5t-37 -128t-17.5 -123.5q0 -88 32 -160t88.5 -124t135 -80.5t172.5 -28.5q92 0 171 45t137.5 113.5t91.5 149.5t33 152q0 53 -20.5 114.5t-52.5 126t-70 132.5t-70 135q74 20 134 41t136 55q6 -8 28.5 -34.5t40 -47 t19.5 -24.5l164 117l-129 166q-111 -84 -211 -132.5t-217 -66.5q-25 57 -40.5 110.5t-15.5 104.5q0 76 24 133t52 105q31 -6 66 -10.5t74 -4.5q45 0 89 7.5t87 26.5t87 54t91 90l-39 45q-61 -43 -114.5 -62t-104.5 -19q-82 0 -164 40.5t-162 89t-157.5 89.5t-149.5 41 q-61 0 -126 -27t-117 -75t-86 -113.5t-34 -143.5z" />
<glyph unicode="G" horiz-adv-x="1615" d="M104 760q0 -207 67 -361.5t173.5 -257t238.5 -153.5t263 -51q92 0 156.5 15t130 54t146.5 102.5t208 161.5v482l-107 127q-90 -41 -177 -76t-187 -58q-35 68 -84 131.5t-94 124t-77 121t-32 121.5q0 41 17.5 75t46 57.5t62.5 36.5t69 13q57 0 105 -34.5t108 -94.5 l182 152l-37 43l-61 -39q-72 66 -127.5 84t-106.5 18q-45 0 -87 -12t-81 -35q-52 7 -100 7q-115 0 -209 -42q-133 -59 -223 -168.5t-136.5 -254t-46.5 -289.5zM303 795q0 115 17.5 220t58.5 177q59 111 142 168.5t208 73.5q-45 -49 -71.5 -114t-26.5 -138q0 -102 48 -193.5 t105.5 -174.5t105.5 -157.5t48 -144.5q0 -35 -13.5 -65.5t-38 -55t-57 -39t-69.5 -14.5q-72 0 -112 42t-66 118l-58 -17q16 -45 36 -84t47.5 -67.5t68.5 -45t100 -16.5q68 0 121 23.5t92 63.5t59.5 92.5t20.5 109.5q0 31 -6 60.5t-16 56.5q27 8 62.5 20.5t69 23.5t57.5 18 l24 7l55 -65v-408q-47 -45 -96.5 -91t-101.5 -84t-109.5 -61.5t-122.5 -23.5q-123 0 -228.5 45t-184.5 140.5t-124 244t-45 355.5z" />
<glyph unicode="H" horiz-adv-x="1556" d="M104 381q2 -33 16.5 -101.5t50.5 -137t98.5 -121t162.5 -52.5q86 0 150.5 40t105.5 99.5t61.5 127t20.5 124.5q0 80 -49 165t-141 198l327 207q47 0 106.5 -31t100.5 -61q57 -41 96 -93.5t63.5 -106.5t36 -106.5t11.5 -95.5q0 -47 -19.5 -103.5t-55.5 -105.5t-83 -81.5 t-102 -32.5q-47 0 -105 24q-10 -51 -42.5 -86t-68.5 -66.5t-64.5 -67.5t-28.5 -89q0 -74 57 -126t149 -52q86 0 169 49t169 156l-43 41q-31 -31 -65.5 -64t-71.5 -59.5t-77 -43t-83 -16.5q-59 0 -93 34t-34 73q0 29 11.5 49t28 33.5t36 19.5t37.5 6q27 0 54.5 -9t56.5 -23 q16 47 35.5 81.5t60.5 61.5q80 51 143.5 100t107.5 104.5t67.5 121t23.5 149.5v7q-1 186 -111 340q-112 157 -360 253l-504 -321q-84 84 -119 161.5t-35 155.5q0 98 46 193q35 -16 74.5 -27.5t84.5 -11.5q90 0 176 50t172 148l-36 45q-125 -88 -236 -88q-96 0 -184 68 q-74 -84 -118 -158t-67.5 -138.5t-32 -119.5t-8.5 -104q0 -90 29 -162t72 -133.5t93 -115.5t93 -106.5t72 -105.5t29 -115q0 -41 -15.5 -75.5t-40 -59t-54.5 -38t-56 -13.5q-35 0 -65 24.5t-51.5 66.5t-32.5 98q-7 36 -7 74q0 21 2 42z" />
<glyph unicode="I" horiz-adv-x="1394" d="M104 1051q0 -98 39 -168t98.5 -116t130 -69.5t134.5 -29.5l16 69q-59 6 -118.5 31t-106.5 64.5t-77 94t-30 120.5t25 126t67 105t96 71.5t114 26.5q57 0 103 -14t88 -36.5t82 -49.5t83 -51q-78 -72 -127 -143.5t-49 -170.5q0 -92 34.5 -181t77.5 -179l103 -215 q43 -90 47 -133q1 -6 1 -12q0 -35 -22 -56q-59 20 -115.5 48t-109.5 50.5t-102 39t-92 16.5q-113 0 -196 -77t-120 -216h53q35 90 81 126t106 36q41 0 82 -18.5t92 -45.5l115 -57q96 -49 183 -77t165 -28q111 4 208 63.5t195 207.5l-39 39q-82 -80 -148.5 -117t-137.5 -37 q-68 0 -142 23q33 59 48.5 112t15.5 107q0 59 -18.5 121.5t-65.5 156.5l-88 185q-29 61 -50.5 108t-21.5 92q0 51 34 98.5t81 94.5q39 -16 85 -25.5t95 -9.5q90 0 179 45t147 160l-48 33q-49 -47 -93 -65.5t-87 -18.5t-84 14t-82 33l-106 51q-104 51 -196.5 82t-180.5 31 q-94 0 -176 -40t-143.5 -105.5t-96.5 -148.5t-35 -171z" />
<glyph unicode="J" horiz-adv-x="1310" d="M104 1081q0 -86 30 -155.5t83 -119.5t128 -83t167 -45q4 20 5 34.5t3 30.5q-158 33 -242.5 111t-84.5 207q0 68 25.5 127t68.5 103t96 71t109 27q78 0 131 -32t92 -79t69.5 -101.5t62.5 -101.5t73 -78.5t98 -31.5q70 0 114 27.5t70.5 75.5t37.5 112.5t15 136.5l-75 -2 q-2 -111 -33 -172.5t-72 -61.5q-29 0 -50 33t-46 81t-55.5 105.5t-76.5 105.5t-112.5 81t-161.5 33q-88 0 -172 -36t-150.5 -96.5t-106.5 -140.5t-40 -166zM113 102q51 -16 79.5 -34.5t47 -44t35 -60.5t44.5 -84q74 -125 171.5 -181t203.5 -56q111 0 201 38.5t152.5 102 t96.5 146.5t34 173q0 82 -34 167t-74 164t-73.5 143.5t-33.5 107.5q0 47 35.5 81t78.5 34t70 -18.5t45 -47t30.5 -62.5t24.5 -65l62 17q-8 49 -25.5 97t-48.5 88t-75 64.5t-103 24.5q-61 0 -109.5 -24.5t-82.5 -64.5t-52 -93t-18 -111q0 -80 32.5 -165t72.5 -167t74 -156.5 t34 -131.5q0 -53 -20.5 -96.5t-52.5 -74t-70 -48t-72 -17.5q-72 0 -131.5 39t-112.5 121q-63 94 -107.5 146t-88.5 77t-99 31t-141 6v-66z" />
<glyph unicode="K" horiz-adv-x="1554" d="M104 1147q0 -57 18.5 -116.5t67.5 -115.5q43 -47 80 -75.5t64.5 -51t43 -45t15.5 -55.5q0 -47 -16.5 -77.5t-67.5 -75.5l35 -52q96 68 128 133.5t32 141.5q0 55 -22.5 109.5t-69.5 97.5q-41 37 -77 62.5t-63.5 52t-45 59t-17.5 84.5q0 41 16.5 79.5t46 68.5t70.5 47.5 t88 17.5q80 0 134 -39t88 -138.5t49.5 -270.5t15.5 -437q0 -98 -13.5 -196.5t-42 -176.5t-74.5 -127t-110 -49q-53 0 -85 30.5t-36 61.5q-2 12 -2 23q0 27 12 45q18 26 60 63q-39 18 -62.5 31.5t-39 26t-28.5 28t-34 39.5q-12 -35 -22.5 -58.5t-22.5 -42t-26.5 -35.5 t-36.5 -40q23 -12 39 -21.5t28 -20.5t24.5 -25.5t28.5 -36.5q33 -49 60.5 -78t52.5 -44.5t49.5 -19.5t50.5 -4q121 0 199 63.5t124 167t66.5 234.5t26.5 268q27 31 57.5 70t65.5 84q68 -59 102.5 -128t52 -142.5t28 -152.5t27.5 -156.5t53 -154.5t106 -149q43 41 68.5 63.5 t46 39t41 31t53.5 36.5l-29 49l-23 -16q-24 -16 -43 -16q-55 82 -77.5 152.5t-31.5 134t-15.5 125t-29 128t-71.5 142t-143 168.5q100 133 172 272l174 -59l74 196l-240 82q-72 -160 -168 -321.5t-246 -348.5v52q0 178 -35.5 307t-96 212t-139.5 123t-163 40 q-80 0 -147.5 -30t-116.5 -80t-77 -118.5t-28 -144.5z" />
<glyph unicode="L" horiz-adv-x="1271" d="M104 -6l52 -10q39 86 84 116.5t120 30.5q72 0 152 -30.5t160 -66.5t155.5 -66.5t139.5 -30.5q80 0 144.5 35.5t109.5 91t69.5 123t24.5 132.5h-58q-16 -106 -75.5 -160.5t-147.5 -54.5q-55 0 -122.5 27t-136 58.5t-137.5 58t-128 26.5q-57 0 -115.5 -19t-124.5 -60 q39 51 90.5 101t97.5 106.5t77.5 123t31.5 154.5q0 74 -36.5 152.5t-79.5 154.5t-80 143.5t-37 116.5q0 41 21.5 78t58.5 64.5t86 43t102 15.5q51 0 101.5 -13.5t90.5 -36t65.5 -56t25.5 -72.5q0 -37 -17.5 -74t-37 -74t-37 -72.5t-17.5 -72.5q0 -86 59.5 -127t155.5 -41v51 q-23 0 -37 4t-22 11.5t-10 14.5t-2 11q0 27 17 56.5t38.5 63.5t39 76t17.5 93q0 66 -29.5 126t-86 105t-137.5 72t-181 27q-84 0 -158.5 -30t-130 -82t-87.5 -121.5t-32 -149.5q0 -82 34 -156t74 -144.5t74 -139t34 -138.5q0 -80 -45.5 -136t-100.5 -115.5t-102 -131.5 t-54 -182z" />
<glyph unicode="M" horiz-adv-x="2066" d="M104 1151q0 -70 19.5 -119t48.5 -84t61.5 -61.5t61.5 -52t48 -53t19 -64.5q0 -51 -36.5 -82t-77.5 -49l20 -58q113 41 159 109t46 162q0 57 -19.5 101t-49 79t-64.5 65.5t-64.5 63.5t-49 69.5t-19.5 86.5q0 35 16.5 68.5t43 59t61 41t71.5 15.5q92 0 142.5 -59.5t74 -162 t28.5 -239.5t5 -293l-2 -155q-2 -111 -29.5 -209.5t-82.5 -206.5q-47 25 -99.5 51.5t-144.5 63.5q-29 -43 -45.5 -68t-31.5 -46.5t-35.5 -47t-57.5 -72.5l53 -41l86 96q51 -23 87 -40t60.5 -29.5t41 -21.5t30.5 -15q129 145 203 272t110.5 248t45 244t8.5 262v127 q0 48 -1 112v11q0 59 10 109q11 56 39 93t85 37q63 0 107 -53t72 -141t39 -199.5t11 -230.5v-174q0 -174 -35.5 -309.5t-89.5 -229.5q-27 14 -73.5 40t-145.5 67q-10 -14 -36.5 -51t-55.5 -75t-52 -68l-22 -30l52 -41l77 82q90 -43 149 -77l58 -33q115 141 186.5 261 t111.5 235.5t54.5 232.5t14.5 250v116q0 106 20.5 185.5t53 130.5t73.5 76.5t84 25.5q57 0 80 -28.5t30 -73.5t7 -105q0 -57 14.5 -117.5t53 -116.5t120.5 -97q-98 -35 -163.5 -79t-104.5 -107.5t-55.5 -154t-16.5 -217.5q0 -57 8.5 -116.5t27 -116.5t47 -108.5t71.5 -92.5 l248 205l-35 53l-88 -55q-4 -2 -18.5 4t-32 35t-30.5 88t-13 164q0 147 23.5 233t64.5 133.5t97 64.5t122 26v61q-47 8 -73.5 30.5t-40 62.5t-17.5 96.5t-4 130.5q0 63 -22.5 116.5t-59.5 91t-83 59t-93 21.5q-66 0 -122 -24.5t-102.5 -63.5t-80 -87t-52.5 -93 q-66 129 -157.5 195.5t-190.5 66.5q-45 0 -77.5 -11t-59.5 -32.5t-49 -52.5t-45 -70q-35 43 -68 75t-66.5 51.5t-71.5 28.5t-87 9q-166 0 -264.5 -104.5t-98.5 -284.5z" />
<glyph unicode="N" horiz-adv-x="1548" d="M104 1141q0 -76 20.5 -127t50.5 -89t64.5 -66t64.5 -53.5t50.5 -53t20.5 -66.5q0 -47 -36 -73.5t-77 -47.5l19 -57q204 72 204 254q0 96 -43 156t-95 106.5t-95 91.5t-43 111q0 35 14.5 69.5t40 63.5t61 46t78.5 17q86 0 137.5 -57t79 -147.5t36 -201t8.5 -216.5l2 -215 q0 -53 -3.5 -105.5t-14.5 -110t-33.5 -121t-59.5 -138.5l-254 110l-164 -252l49 -32l80 118q43 -16 68.5 -29.5t48.5 -25.5t47.5 -26.5t65.5 -34.5q115 127 186.5 235.5t111.5 211.5t55 209.5t17 231.5l2 138q0 98 18.5 186t52.5 153.5t80 103.5t99 38q66 0 90.5 -47 t26.5 -107q2 -72 3 -125t14.5 -98t50 -85t110.5 -85q-80 -27 -144.5 -67.5t-110.5 -104t-70.5 -154t-24.5 -215.5q0 -117 32.5 -231.5t108.5 -194.5l26 20q25 19 63 47t82 60.5t83 57.5l-35 51l-98 -51q-20 4 -34.5 35.5t-24 75.5t-14.5 93.5t-5 86.5q0 82 8.5 159.5t40 139 t96 101.5t177.5 50v57q-70 18 -99.5 48t-37.5 70q-4 23 -4 49q0 19 2 40q6 49 6 109q0 68 -21.5 123t-58.5 93t-86 58.5t-105 20.5q-68 0 -121 -22.5t-94 -60.5t-73.5 -88.5t-57.5 -105.5q-49 129 -138 201t-218 72q-90 0 -156.5 -36t-111.5 -92.5t-68 -124t-23 -128.5z" />
<glyph unicode="O" d="M104 713q0 -174 53.5 -316.5t148.5 -244t229.5 -157.5t295.5 -56q145 0 268.5 57t212.5 158.5t139 241t50 302.5q0 154 -50 276t-135 207t-196.5 129t-234.5 44q-68 0 -128.5 -19.5t-107.5 -55.5t-74.5 -85t-27.5 -109q0 -68 38 -121t84 -99t84 -92t38 -101 q0 -47 -41 -86t-103 -39q-45 0 -74.5 18.5t-49 50t-30 73.5t-16.5 87h-55q2 -61 15.5 -117.5t44 -97.5t80.5 -65.5t128 -24.5q47 0 94 17.5t85 51t61.5 83t23.5 112.5q0 88 -42 146.5t-92 103.5t-92 83t-42 85q0 53 33 85t121 32q129 0 221 -57.5t151.5 -149.5t87 -207 t27.5 -229q0 -150 -43 -264.5t-112.5 -192.5t-157.5 -118t-176 -40q-119 0 -219.5 48.5t-173 137.5t-113.5 215t-41 283q0 131 31.5 256t89.5 226q53 92 112.5 144t124 80t137 38t152.5 16h29q25 4 40 8t27.5 11.5t25.5 18.5t34 30l-35 49q-43 -41 -72 -46t-63 -9h-56 q-100 -6 -192 -24.5t-175 -59.5t-155 -110t-131 -175q-55 -98 -83 -209t-28 -227z" />
<glyph unicode="P" horiz-adv-x="1568" d="M104 1161q0 -88 41 -144t90.5 -100.5t90.5 -85t41 -96.5q0 -41 -25 -72.5t-70 -72.5l41 -49q84 61 127 125.5t43 154.5q0 66 -17 109t-44 73.5t-58.5 54t-58 51.5t-44 64.5t-17.5 92.5q0 35 14 67.5t37.5 58t55.5 41t69 15.5q129 0 185.5 -100.5t56.5 -321.5v-332 q-41 -10 -71 -22.5t-54.5 -30.5t-46 -48t-44.5 -75l48 -29q27 25 43 39.5t28.5 21.5t21.5 9t19 2t25.5 -3t30.5 -19l40 -869h89l49 781l235 -103l199 205q133 137 203.5 251t70.5 234q0 113 -35.5 202t-95 151.5t-138.5 96.5t-165 34q-88 -2 -155.5 -51.5t-139.5 -155.5 q-78 125 -162 172t-180 47q-74 0 -141.5 -25.5t-118.5 -74t-82 -117t-31 -156.5zM838 668v301q0 92 14 175t46 147.5t81 102.5t117 38t121 -35t88.5 -93.5t55 -137.5t19.5 -165q0 -59 -14 -110t-45 -105.5t-79 -117t-114 -146.5z" />
<glyph unicode="Q" d="M104 711q0 -174 53.5 -316.5t148.5 -244t229.5 -157.5t295.5 -56q109 0 204 31.5t177 88.5q41 -41 74 -85t48.5 -68.5t17.5 -28.5l207 227l-39 39q-8 -2 -26.5 -17t-32 -28.5l-15.5 -15.5l-28 32q-27 33 -77 74q76 100 118 229.5t42 280.5q0 154 -50 276t-135 207 t-196.5 129t-234.5 44q-68 0 -128.5 -19.5t-107.5 -55.5t-74.5 -85t-27.5 -109q0 -68 38 -121t84 -99t84 -92t38 -101q0 -47 -41 -87t-103 -40q-16 0 -30.5 4t-26.5 8q-37 16 -58.5 41t-32 54.5t-15.5 61t-7 62.5h-55v-22q0 -53 8 -96q10 -52 51 -101q45 -51 101.5 -68.5 t107.5 -17.5q47 0 94 17.5t85 51t61.5 83t23.5 112.5q0 88 -42 146.5t-92 103.5t-92 83t-42 85q0 53 33 85t121 32q129 0 221 -57.5t151.5 -149.5t87 -207t27.5 -229q0 -111 -23.5 -203t-68.5 -164q-74 37 -166 41h-10q-88 0 -182 -63l28 -54q31 11 62 11q27 0 55 -9 q57 -18 108 -55q-66 -59 -140.5 -89t-151.5 -30q-119 0 -219.5 48t-173 137.5t-113.5 215.5t-41 283q0 131 31.5 256t89.5 226q53 92 112.5 144t124 79.5t137 38t152.5 16.5h29q25 4 40 8t27.5 11.5t25.5 18.5t34 30l-35 49q-43 -41 -72 -46t-63 -9h-56q-100 -6 -192 -24.5 t-175 -59.5t-155 -110t-131 -175q-55 -98 -83 -209t-28 -227z" />
<glyph unicode="R" horiz-adv-x="1525" d="M104 1169q0 -59 20.5 -116.5t68.5 -112.5q20 -25 54 -51.5t66.5 -57t56 -63.5t23.5 -70q0 -41 -26.5 -70.5t-63.5 -60.5l39 -55q53 39 86 75t50.5 70.5t23.5 69.5t6 74q0 53 -22.5 104t-75.5 99q-59 53 -97.5 81.5t-61 50t-31.5 45t-9 68.5q0 47 21.5 87t55.5 69t74.5 45 t81.5 16q55 0 98.5 -28.5t75 -75.5t52 -104.5t33 -116t17.5 -109.5t5 -86v-389q0 -104 -18.5 -200.5t-52 -169t-79 -115.5t-100.5 -43q-53 0 -85 28.5t-38 63.5q-2 12 -2 24q0 27 12 45q18 28 60 66q-33 14 -54.5 26.5t-38 24.5t-32.5 29.5t-39 44.5q-14 -37 -24.5 -61.5 t-22.5 -43t-27.5 -35t-40.5 -40.5q49 -23 75 -43.5t52 -59.5q33 -49 59.5 -78.5t50 -44t49.5 -18.5t58 -4q98 0 176 58.5t133.5 154.5t85 218t29.5 251v131l211 20l17 -440q2 -49 6 -97t18.5 -96.5t44 -97.5t82.5 -98l238 209l-43 49l-74 -53q-39 35 -58.5 66.5t-26.5 63.5 t-8 64.5t-3 73.5l-12 422q25 10 54 22.5t66 32t83 48t102 71.5q-43 61 -73 105.5t-53.5 87.5t-45 91t-52.5 115l-59 134q-49 -23 -108.5 -56t-121 -76t-120 -94t-105.5 -106q-47 152 -150.5 238.5t-240.5 86.5q-80 0 -148.5 -30.5t-118.5 -84t-79 -123t-29 -145.5zM910 1030 q1 68 26 126t83 116.5t169 132.5l20 -37q25 -59 45.5 -107.5t43 -91.5t49 -86t61.5 -94q-43 -25 -106.5 -49.5t-132 -46t-137 -35.5t-120.5 -20v32q-1 61 -1 112v48z" />
<glyph unicode="S" horiz-adv-x="1605" d="M104 702q45 -18 65.5 -42.5t29 -53t9.5 -61.5t5 -66q8 -66 39 -138.5t80 -140t114.5 -124t145.5 -86.5q61 -27 130 -39t140 -12q131 0 252 46t213 125.5t147.5 185t55.5 226.5q0 86 -27.5 165t-78 139.5t-120 97.5t-153.5 37q-70 0 -139.5 -33t-155.5 -92l-37 -25 q-57 -41 -105 -63.5t-93 -22.5q-47 0 -84 29.5t-62.5 72.5t-39 92.5t-13.5 88.5q0 84 30.5 150.5t78 111.5t102.5 68.5t102 23.5q61 0 124 -22.5t134 -45.5l58 -20q61 -20 109 -22h7q44 0 85 18q44 20 87 60t93 104l-39 36q-43 -33 -74 -50t-59.5 -22t-59.5 2t-70 23l-32 15 q-92 43 -168 66.5t-146 23.5q-86 0 -166.5 -43t-144 -118t-101.5 -175t-38 -215q0 -90 19.5 -172t59.5 -143.5t103.5 -97.5t151.5 -36q63 0 125.5 30t138.5 85l39 27q70 51 127 80.5t114 29.5q53 0 95.5 -20.5t72 -53t46 -74.5t16.5 -85q0 -90 -48 -165t-127 -129 t-181.5 -85t-208.5 -33q-78 0 -155 15.5t-142 44.5q-94 43 -149.5 90t-88.5 99t-49.5 112.5t-32.5 132.5q-14 63 -46 88.5t-97 42.5z" />
<glyph unicode="T" horiz-adv-x="1220" d="M104 1161q0 -63 20.5 -109t56.5 -79t82 -55.5t97 -36.5q2 2 5.5 12t6.5 21.5t5 20.5t2 13q-49 10 -85 34t-58.5 51.5t-34 56t-11.5 51.5q0 41 16.5 80t46.5 69.5t72 49t95 18.5q104 0 203.5 -42t199.5 -85q-16 -47 -49 -85q-34 -38 -56 -92q-22 -51 -21 -126v-6 q1 -80 55 -209l86 -215q29 -68 52 -136.5t23 -134.5q0 -41 -13 -79.5t-36.5 -68.5t-55.5 -47.5t-69 -17.5q-41 0 -72.5 12.5t-56.5 45.5q-33 40 -33 78q1 5 1 9q4 42 18 89q-54 -12 -96 -12q-18 0 -34 2q-52 8 -114 30q29 -66 34 -127q1 -18 1 -36q0 -44 -8 -91q27 0 44 -1 t33.5 -3t35 -7t43.5 -13q33 -10 56 -20.5t44.5 -18.5t44 -13.5t55.5 -5.5q78 0 139.5 34t104.5 87t66.5 119t23.5 131v12q1 80 -25 161q-28 87 -65 173l-84 211q-43 106 -47 166q-1 15 -1 29q0 40 9 65q12 33 27.5 49.5t11.5 32.5q51 -20 103.5 -31.5t105.5 -11.5 q84 0 157.5 45t151.5 148l-43 37q-51 -39 -92 -55.5t-78 -16.5q-59 0 -134 32.5t-162 72.5t-183 73t-197 33q-80 0 -155.5 -26.5t-134 -75t-94.5 -116t-36 -149.5z" />
<glyph unicode="U" horiz-adv-x="1662" d="M104 1188q0 -86 41 -146.5t91.5 -109.5t91.5 -91t41 -89q0 -43 -26 -73t-69 -71l39 -47q51 43 85 76t52.5 64.5t25.5 64.5t7 74q0 82 -37.5 135t-83 98t-83 92t-37.5 115q0 37 12 71.5t35.5 62.5t55.5 44.5t73 16.5q150 0 208 -139.5t58 -397.5q0 -84 -4 -156.5 t-21.5 -138t-49 -128t-87.5 -126.5v-76q66 -41 116 -80.5t91 -85t78 -96.5t78 -112q70 27 129 57.5t110.5 70t96.5 92t86 122.5q2 -37 7 -74t18.5 -76t39 -80t70.5 -90l264 211l-39 47l-90 -63q-27 8 -43 33.5t-27.5 59.5t-16.5 69.5t-7 62.5v737q0 63 -3 91t6 44.5t37.5 35 t90.5 65.5l-295 190l-201 -176l39 -55l76 61l78 -55v-602v-27q1 -64 -7 -135q-10 -86 -41.5 -171t-92 -165t-160.5 -143q-35 68 -69 116t-72 89t-85.5 79.5t-113.5 85.5q43 55 77.5 108.5t60.5 117t40 144.5t14 192q0 262 -101.5 406.5t-301.5 144.5q-63 0 -127 -28 t-114 -77t-82 -116.5t-32 -149.5z" />
<glyph unicode="V" horiz-adv-x="1601" d="M104 1165q0 -61 20.5 -105t50.5 -80t65.5 -63.5t65.5 -55t50.5 -58.5t20.5 -70q0 -35 -23.5 -66.5t-72.5 -76.5l41 -53q47 39 79.5 71.5t52 65.5t27.5 66.5t8 74.5q0 66 -18 109t-46 74.5t-59.5 57t-59 53.5t-46 64.5t-18.5 92.5q0 33 13 66.5t35.5 61t55.5 44t72 16.5 q72 0 125 -39t88 -106.5t52 -158.5t17 -196q0 -223 -44 -370.5t-121 -218.5l6 -70q59 -35 110 -74t95.5 -83t85 -98t81.5 -120q141 61 253 133t189 163t117.5 203.5t40.5 254.5q0 117 -26.5 236.5t-57 222t-57 179.5t-26.5 107q0 39 18 101l-49 36q-43 -78 -59.5 -135 t-16.5 -116q0 -51 12.5 -125t26.5 -158t26.5 -175t12.5 -177q0 -80 -10.5 -166t-40 -168t-83 -153.5t-141.5 -123.5q-35 63 -66.5 110.5t-70.5 88.5t-90 81t-125 91q111 143 156 282.5t45 270.5q0 104 -23.5 203.5t-73 177.5t-125 125t-180.5 47q-82 0 -152.5 -28.5 t-121.5 -80t-81 -119t-30 -143.5z" />
<glyph unicode="W" horiz-adv-x="2115" d="M104 135l50 -31q43 53 84 86t100 33q57 0 122.5 -46t135.5 -102.5t143.5 -102.5t145.5 -46q70 0 142.5 43t143.5 115q45 -16 107.5 -41t125 -48.5t120 -39.5t92.5 -16q70 0 143.5 39.5t133 104t98.5 146.5t39 166q0 98 -35 210t-78 221.5t-78 209t-35 170.5 q0 70 29 141.5t104 168.5l-39 45q-72 -59 -119.5 -115.5t-76.5 -111t-41 -107.5t-12 -107q0 -94 38.5 -214t86 -238.5t86 -223t38.5 -168.5q0 -76 -53 -130t-135 -54q-51 0 -113.5 22.5t-120 52.5t-104.5 56.5t-67 32.5q68 135 97.5 239.5t29.5 204.5t-20.5 185.5t-48.5 159 t-57 135.5q-28 64 -42 122q-10 40 -10 78q0 17 2 34q6 54 44 110l-51 41q-79 -65 -107 -137q-27 -67 -26 -141v-10q2 -79 26.5 -166t52.5 -182t51.5 -198.5t23.5 -218.5q0 -78 -22.5 -159t-61.5 -145.5t-91.5 -105.5t-111.5 -41q-29 0 -70 21.5t-93 57.5t-112.5 83 t-127.5 96q76 94 131 177.5t91 160t52 149.5t16 146q0 121 -22.5 224.5t-70.5 179.5t-120.5 119t-171.5 43q-70 0 -135 -28t-115.5 -78t-80 -119.5t-29.5 -155.5q0 -106 40 -170t88 -107t88 -76.5t40 -83.5q0 -47 -32 -78.5t-89 -54.5l19 -57q100 35 156.5 99.5t56.5 162.5 q0 84 -41 144.5t-90.5 109.5t-90.5 94t-41 101q0 27 10.5 61.5t34 65t59.5 52t87 21.5q133 0 198.5 -130t65.5 -384q0 -119 -11 -192.5t-33 -130t-51.5 -108.5t-66.5 -128q-59 14 -119 14q-41 0 -86 -18t-86 -49t-74.5 -72t-52.5 -88z" />
<glyph unicode="X" horiz-adv-x="1093" d="M104 115l205 -150l283 389q18 -92 46 -157.5t66.5 -110.5t92 -73.5t125.5 -47.5q41 61 65.5 98t46 65t44 55.5t59.5 70.5l-50 43q-31 -33 -58.5 -61.5t-55.5 -59.5q-72 16 -120 48t-78 72t-45 85t-20 88t-5 82v65v111h40q104 0 164 47t82 125l-53 21q-16 -47 -72.5 -61.5 t-117.5 -14.5h-43v129q0 51 8 91t28.5 80t55 86t88.5 109q20 -16 52 -39.5t97 -66.5q33 41 46.5 56.5t20.5 25.5t15 25.5t33 56.5l-203 155l-282 -393q-16 82 -39 145.5t-60 110.5t-92 80t-141 57q-37 -55 -58.5 -87.5t-43 -61.5t-46 -58.5t-67.5 -78.5l51 -47 q33 29 61.5 62.5t49.5 61.5q70 -12 116.5 -43.5t75.5 -73.5t42 -91.5t18.5 -95.5t5.5 -87v-67v-41h-50q-63 0 -130.5 -40t-96.5 -136l49 -23q18 39 45 56.5t53.5 23.5t49 4t32.5 -2h48v-104q0 -81 1 -129v-7q0 -43 -12 -81q-12 -40 -47 -91t-106 -137l-152 101 q-31 -37 -56.5 -73t-60.5 -91z" />
<glyph unicode="Y" horiz-adv-x="1497" d="M104 1153q0 -80 36 -142.5t79 -115.5t79 -100t36 -97q0 -41 -25.5 -76.5t-66.5 -86.5l45 -43q57 55 93 97t54.5 76.5t24.5 65.5t6 68q0 78 -38 134t-84 104t-84 93.5t-38 100.5q0 80 51.5 140.5t145.5 60.5q66 0 109.5 -41t71.5 -112t39 -167t11 -207q0 -143 -26.5 -278 t-92.5 -221v-64q63 -31 101.5 -54.5t67 -51t54 -62.5t62.5 -90q61 51 146.5 94t156.5 60q-31 -113 -79 -208.5t-112.5 -164t-146.5 -107.5t-182 -39q-92 0 -125 48.5t-37 126.5q-31 -12 -52.5 -20.5t-43 -12.5t-47.5 -4q-27 0 -64 4q14 -35 22.5 -55.5t12.5 -39t5 -43 t1 -67.5q31 10 54 15q11 2 26 2q18 0 41 -3h35q27 0 63.5 -6t92.5 -6q203 0 350 86t244.5 223t144.5 310.5t47 349.5q0 139 -14.5 240.5t-36 177t-44 132t-39.5 107.5t-24 104q-2 17 -2 36q0 38 9 83l-39 27q-63 -70 -72 -162q-3 -33 -3 -69q0 -62 10 -131q15 -107 38 -229 t23 -251q0 -96 -9.5 -189t-27.5 -179q-70 -10 -132.5 -35t-93.5 -39q-33 49 -55 77.5t-43.5 49t-47.5 39t-65 45.5q33 51 58.5 96t43 96.5t26 111.5t8.5 144q0 141 -28 255t-78 193t-120.5 121t-156.5 42q-72 0 -135.5 -29t-110.5 -79t-75 -116.5t-28 -142.5z" />
<glyph unicode="Z" horiz-adv-x="1445" d="M104 -18q0 -63 72 -156l45 39q-16 33 -27.5 61.5t-11.5 55.5q0 53 42 84.5t85 31.5q29 0 55.5 -13t46 -33.5t31 -45t11.5 -49.5q0 -27 -9.5 -51.5t-23.5 -50.5h7q46 0 95 -25q53 -27 109.5 -59.5t118 -59t127.5 -26.5q100 0 194 47t168 126t119 180t45 210q0 115 -34 215 t-97.5 175t-154.5 118t-204 43q-115 0 -213 -45l607 694l-43 41q-53 -35 -99.5 -51.5t-89.5 -19.5q-12 -1 -25 -1l-61 5q-43 8 -90 22l-82 29q-59 20 -122.5 34.5t-125.5 14.5q-53 0 -104 -20.5t-91 -59.5t-63.5 -94.5t-23.5 -124.5q0 -51 16 -97.5t50 -81t84 -55t116 -20.5 q35 0 70 6l-13 59q-59 0 -99 12.5t-64.5 34t-35 49t-10.5 56.5q0 80 52.5 120t130.5 40q63 0 119.5 -13.5t68.5 -17.5l105 -25q31 -6 51 -9t39 -3q18 0 38.5 1t51.5 5l-477 -541q-31 -35 -54.5 -64.5t-42 -59t-34 -61.5t-27.5 -71l57 -20q31 59 71 100t84 66.5t91 37 t90 11.5q82 0 158 -34t133 -94t91 -142t34 -176t-31 -178.5t-83 -149t-122.5 -102t-148.5 -37.5q-84 0 -139.5 45t-55.5 110q0 53 29 109q-47 4 -73.5 11t-48 19.5t-48.5 31t-74 44.5q-70 41 -133 41q-45 0 -82 -17.5t-62.5 -46t-40 -64.5t-14.5 -70z" />
<glyph unicode="[" horiz-adv-x="598" d="M176 -373q66 10 113 17.5t90 7.5q45 0 91 -6t112 -21l22 56q-33 12 -57.5 20t-49 15.5t-56 12.5t-81.5 11v1667q59 4 111.5 14.5t103.5 28.5l-14 61q-57 -12 -101 -19t-87 -7q-41 0 -88 5t-109 17v-1880z" />
<glyph unicode="\" horiz-adv-x="518" d="M33 911h145l60 -1282h65l82 1282l-154 402q0 80 43 80q12 0 55.5 -8.5t73.5 -8.5q102 0 148 70q27 45 39 139l-58 14q-25 -33 -63 -32q-14 0 -72 18q-55 20 -86 21q-70 0 -111.5 -61.5t-41.5 -143.5v-174q0 -119 -28 -172.5t-97 -69.5v-74z" />
<glyph unicode="]" horiz-adv-x="598" d="M90 -319l23 -56q63 14 113 20.5t95.5 5.5t91.5 -7t105 -17v1880q-59 -10 -105 -16t-91.5 -7t-95.5 5t-113 20l-23 -55q66 -25 122 -38t122 -21v-1655q-66 -8 -122 -21.5t-122 -37.5z" />
<glyph unicode="^" horiz-adv-x="579" d="M104 1114l37 -16q35 23 72 63.5t78 81.5q27 -23 60.5 -47.5t64 -46t55.5 -35.5t35 -16q14 -4 29.5 0t31 15t29.5 24.5t27 27.5q-66 43 -138.5 92.5t-132.5 96.5h-10q-31 -25 -57.5 -53.5t-52 -59.5t-56.5 -62.5t-72 -64.5z" />
<glyph unicode="_" horiz-adv-x="1107" d="M104 -205v-84h1221v84h-1221z" />
<glyph unicode="`" horiz-adv-x="385" d="M104 1257l308 -155l16 16l-213 244h-111v-105z" />
<glyph unicode="a" horiz-adv-x="933" d="M143 496q0 -133 9.5 -226.5t37 -159t80 -106.5t136.5 -65q27 33 44 55t36.5 44.5t49 53.5t80.5 80q0 -43 11.5 -83t30 -70.5t41 -52t46.5 -29.5q10 6 24.5 22t36 36.5t53.5 44t75 44.5l-23 61l-71 -24q-23 0 -39.5 15.5t-16.5 49.5v568l93 90l-361 203l-184 -121 q-55 -37 -92 -68t-58.5 -76t-30 -112.5t-8.5 -173.5zM311 473q0 141 20.5 244.5t84.5 189.5l200 -127v-491l-163 -160q-43 18 -70 39.5t-43 58.5t-22.5 95.5t-6.5 150.5z" />
<glyph unicode="b" horiz-adv-x="909" d="M78 1384q47 -66 73.5 -110.5t39 -84.5t15.5 -84t3 -106v-729l-25 -26q-26 -27 -69 -72q63 -35 111 -60.5t89 -51t80 -54.5t86 -67q43 33 61.5 45t26.5 18l39 25q80 49 125 74.5t69.5 51t36 62.5t21.5 111q4 31 7 93t3 134q0 102 -6 181t-33.5 139.5t-85 102.5t-159.5 68 q-10 -10 -24.5 -23t-38 -32.5t-57.5 -50.5t-85 -76v135v150t18.5 122t63.5 105t133 103l-29 59q-66 -20 -110.5 -43t-79.5 -53.5t-64.5 -69.5t-66.5 -92q-23 31 -35 47t-23.5 29.5t-26 29t-36.5 43.5zM381 231v492q2 12 26.5 40t52 54.5t51.5 46.5l24 21q90 -16 125.5 -103 t35.5 -239q0 -61 -1 -123t-12 -120t-36.5 -110.5t-73.5 -95.5z" />
<glyph unicode="c" horiz-adv-x="751" d="M143 463q0 -78 13.5 -158t46.5 -151.5t89 -129t142 -85.5l297 182l-29 51l-163 -74q-59 8 -100.5 44t-66 90.5t-35.5 124t-11 147.5q0 51 7 106.5t22.5 105.5t41 95t64.5 80q16 -29 41.5 -74t81.5 -129l143 105q-47 63 -74.5 103t-45 66.5t-28 45.5t-22.5 39l-246 -158 q-41 -27 -72.5 -57.5t-53 -77.5t-32 -117t-10.5 -174z" />
<glyph unicode="d" horiz-adv-x="968" d="M117 162l42 -24q42 -23 101 -57t124 -73t110 -69l137 102q84 63 136 114.5t81 100.5t38 102.5t9 118.5q0 135 -14.5 227.5t-57.5 163t-120.5 130t-202.5 124.5l-54 27q-27 16 -56.5 35.5t-54 42t-39.5 47t-15 51.5q0 47 32.5 80t77.5 72l-31 53q-106 -57 -149 -125 t-43 -150q0 -53 14.5 -89t43 -66.5t72.5 -62t103 -72.5q-33 -16 -54 -27.5t-40.5 -21t-42 -19.5t-55.5 -23v-622zM381 236v622l98 72q78 -41 123 -83t68.5 -94.5t31 -122t7.5 -165.5q0 -92 -23.5 -190.5t-101.5 -180.5l-32 20q-32 21 -70 47.5t-69.5 48t-31.5 26.5z" />
<glyph unicode="e" horiz-adv-x="837" d="M143 520q0 -135 25 -238.5t66.5 -176t96 -113.5t115.5 -53l369 194l-29 51l-235 -90q-57 0 -99 40t-70 94.5t-40 110.5q-9 42 -9 72q0 10 1 19l475 227q-2 4 -21.5 34t-49 79t-52.5 86q-20 35 -46 81t-41 73.5t-17 31.5l-127 -67q-102 -59 -163 -101.5t-94.5 -88.5 t-44 -107.5t-10.5 -157.5zM326 514q0 45 2 100.5t16 109.5t45 102t88 79q14 -35 26.5 -60.5t27 -52t34 -60.5t49.5 -85z" />
<glyph unicode="f" horiz-adv-x="493" d="M31 868h139l57 -1222h62l78 1222h139v99q-94 6 -150.5 36.5t-86 71.5t-39 88t-9.5 88q0 45 10.5 60.5t30.5 15.5q23 0 52.5 -8t70.5 -8q55 0 88 19.5t51.5 48t25.5 64.5t11 68l-53 13q-18 -23 -28.5 -27t-33.5 -4q-10 0 -28.5 6t-39 12.5t-42 12.5t-39.5 6 q-37 0 -64.5 -17.5t-47 -45t-29.5 -62.5q-7 -27 -7 -53q0 -9 1 -17v-166q0 -111 -25 -163t-94 -68v-70z" />
<glyph unicode="g" horiz-adv-x="966" d="M143 479q0 -117 7.5 -199.5t35 -141t85 -99.5t155.5 -76q29 35 77 89t140 126l15 -43q14 -43 30.5 -99t30.5 -109.5t14 -73.5q0 -37 -19.5 -65t-47 -46t-59.5 -27.5t-58 -9.5q-92 0 -127 57q-27 45 -27 100q0 16 2 32q-33 -8 -54 -12.5t-42 -4.5q-20 0 -46 4t-65 13 q10 -33 15.5 -55.5t7.5 -46t0 -51.5t-6 -71q31 10 53.5 14.5t42.5 4.5q29 0 54.5 -8.5t54 -18.5t63.5 -18.5t82 -8.5q78 0 137.5 23t100.5 59.5t61.5 84.5t20.5 102q0 59 -11.5 104t-25 98.5t-24.5 126t-11 189.5v346l78 80l-346 196l-150 -94q-55 -39 -99 -69.5t-77 -78.5 t-50.5 -123t-17.5 -200zM322 496v151t10 99t35.5 77t76.5 82q6 -6 38 -25.5t66 -41t62 -38.5l27 -16v-512l-162 -139q-61 25 -93 62.5t-45 85t-14 102t-1 113.5z" />
<glyph unicode="h" horiz-adv-x="970" d="M74 1358q49 -68 76.5 -111t40 -83t15.5 -83t3 -110v-801l-92 -92l225 -139l227 167l-39 56l-84 -58l-65 56v542q18 31 45 63t51.5 56.5l40.5 40.5l17 15q61 -29 96 -78t51 -113.5t19.5 -144.5t3.5 -172q0 -123 -8.5 -213t-30 -167t-61.5 -151t-101 -162l43 -36 q113 98 181.5 209.5t105 223t49 216t12.5 190.5q0 229 -73.5 367.5t-229.5 200.5q-12 -12 -65.5 -69.5t-145.5 -141.5v110q0 92 5 166t26.5 135.5t63.5 110.5t116 92l-27 59q-63 -20 -108 -42.5t-82 -53.5t-68 -70.5t-65 -95.5q-27 37 -38 53.5t-20.5 26.5t-23 24.5 t-39.5 47.5z" />
<glyph unicode="i" horiz-adv-x="522" d="M78 895l33 -53l49 20l49 -47v-582q0 -59 2 -98t12 -68.5t34 -59.5t67 -70q92 72 149 101.5t76 41.5l-23 57l-82 -31q-35 10 -49 34t-14 81v557l25 26q26 27 69 73l-170 165q-37 -27 -63.5 -45t-51 -33.5t-50 -32t-62.5 -36.5zM205 1413q0 -27 7 -57.5t17.5 -63 t22.5 -62.5t22 -54h50q51 88 65 141t14 86q0 41 -24.5 79t-77.5 38q-37 0 -66.5 -30t-29.5 -77z" />
<glyph unicode="j" horiz-adv-x="522" d="M49 -317l23 -43q59 23 96 43t64.5 43.5t50 56.5t53.5 80q20 -31 32.5 -48.5t26 -30.5t28.5 -29.5t42 -47.5l43 41q-43 59 -68.5 103.5t-39 85t-16.5 83.5t-3 101v659l25 27q26 27 69 72l-170 165q-37 -27 -63.5 -45t-51 -33.5t-50 -31.5t-62.5 -37l33 -53l49 20l49 -47 v-756q0 -43 -3 -90t-18.5 -96t-48.5 -97t-90 -95zM205 1417q0 -27 7 -58.5t17.5 -63t22.5 -62.5t22 -55h50q51 88 65 141t14 86q0 43 -24.5 80t-77.5 37q-37 0 -66.5 -29t-29.5 -76z" />
<glyph unicode="k" horiz-adv-x="913" d="M74 1409q49 -61 75.5 -106.5t40 -86t16.5 -83.5t3 -101v-856l-92 -94q33 -18 54.5 -32.5t39.5 -29t37.5 -34t50.5 -47.5q41 43 66.5 64.5t44 34.5t35 21.5t40.5 22.5l-104 90v385l47 61l188 -434q23 -49 64 -115.5t102 -131.5q47 41 68.5 60t36 30.5t31 23.5t55.5 41 l-31 47l-47 -20q-18 2 -33.5 11t-33 33.5t-41 66.5t-58.5 114l-194 397q35 37 68.5 70t55.5 49q33 -27 69 -60.5t69 -66.5l118 129q-27 31 -47 51.5t-40.5 39t-44 40t-56.5 51.5l-346 -342v334v123q0 57 13.5 109.5t45 103.5t92.5 107l-22 43q-55 -20 -93 -41t-68 -47.5 t-53.5 -60.5t-51.5 -81q-23 29 -36 47.5t-25.5 35t-27 33.5t-34.5 42z" />
<glyph unicode="l" horiz-adv-x="522" d="M74 1364q49 -66 76.5 -110t41 -86t15.5 -89t2 -116v-785l-92 -92l231 -147q29 23 47.5 42t57.5 52q47 39 79 63l33 23l-35 49l-84 -53l-65 43v872q2 76 4 134.5t21.5 108.5t65.5 95t136 94q0 2 -4 11.5t-8 19.5t-9 19.5t-7 11.5q-72 -23 -120 -47.5t-83 -57.5 t-64.5 -74.5t-64.5 -101.5q-10 12 -19.5 25.5t-22.5 32t-34.5 43t-54.5 61.5z" />
<glyph unicode="m" horiz-adv-x="1474" d="M39 901l22 -61q33 10 53.5 20t24.5 14q25 -14 38 -30.5t20.5 -42t9.5 -66.5t2 -106v-459l-103 -86q33 -18 56.5 -31.5t44 -29t42 -35t52.5 -49.5q33 33 54.5 52t41 33.5t40 25.5t50.5 28l-106 98v563q31 20 55.5 36t49 30t52 28.5t64.5 36.5q37 -33 54.5 -62.5t24.5 -60 t6 -62.5t-1 -69v-442l-50.5 -50.5t-51.5 -49.5q37 -18 59.5 -29.5t42 -25t39.5 -32t55 -48.5q33 33 54.5 53t40 32.5t37 22.5t42.5 23l-20 20l-34.5 34.5l-33.5 33.5l-14 16v565q68 53 129 82t109 56l69 -54v-587q0 -59 2 -98.5t13.5 -69t35 -59t66.5 -70.5 q92 72 146.5 104.5t70.5 42.5l-20 57l-82 -28q-35 10 -50.5 33.5t-15.5 78.5v586q29 35 49.5 50.5t36.5 37.5q-53 31 -75.5 44t-38 23.5t-35 25t-68.5 48.5q-53 -41 -88 -66.5t-71 -45t-80 -42t-115 -57.5q-4 35 -9.5 65t-18.5 55.5t-38.5 49t-68.5 43.5q-55 -47 -87 -72.5 t-63 -45t-71 -40t-111 -55.5q-10 66 -35 119.5t-105 93.5q-25 -29 -46 -48t-43.5 -34.5t-47 -29.5t-57.5 -31z" />
<glyph unicode="n" horiz-adv-x="1007" d="M41 897l20 -59q6 2 28 10t37 14t17 6q29 -10 42.5 -38.5t18.5 -63.5t5 -74v-63v-455l-98 -94q39 -25 62.5 -41t43 -29.5t38.5 -30t48 -40.5q31 25 50.5 42t38 32.5t39 29.5t50.5 35l-100 88v573q39 29 82 53.5t80 43l61 30.5l23 11l59 -50v-591q0 -59 2 -98.5t13.5 -69 t35 -59t66.5 -70.5q92 72 149.5 104.5t77.5 42.5l-22 57l-82 -28q-35 10 -49.5 33.5t-14.5 78.5v594l84 80q-49 27 -76.5 43.5t-48 29.5t-41 28.5t-55.5 39.5q-96 -82 -184 -127t-174 -86q-2 35 -7.5 66t-18.5 57.5t-39 50t-69 41.5q-33 -37 -57 -59t-45.5 -37.5t-43 -27 t-46.5 -23.5z" />
<glyph unicode="o" horiz-adv-x="923" d="M90 147l385 -208q125 80 202 135t119 112.5t55 128t13 179.5q0 94 -22.5 186t-62.5 168t-95 128t-119 66q-41 -23 -142 -71.5t-237 -114.5v-614zM352 219v623l90 67q76 -33 122 -79t72 -101t35 -114.5t9 -120.5q0 -41 -1 -86.5t-10.5 -95.5t-31 -106t-62.5 -120z" />
<glyph unicode="p" horiz-adv-x="956" d="M90 954q0 -33 9.5 -54t21.5 -42.5t28.5 -46.5t28.5 -65.5t21.5 -102.5t9.5 -154v-262l-82 -71l80 -45l69 -471h43l54 378l141 -79q84 41 144.5 71.5t101.5 59t65.5 62.5t36.5 84t16.5 123t4.5 177q0 63 -7.5 144t-37 157t-89 136.5t-163.5 82.5q-25 -31 -47.5 -58.5 t-47 -53t-53 -52t-63.5 -57.5q-14 47 -46 81t-64 61.5t-56.5 52t-24.5 53.5q0 10 3 19.5t8 25.5l-50 27q-25 -47 -40 -93.5t-15 -87.5zM381 219v481l166 164q49 -20 79.5 -53t48 -80t24 -113.5t6.5 -154.5q0 -55 -4.5 -112.5t-15.5 -110t-29.5 -95.5t-47.5 -71z" />
<glyph unicode="q" horiz-adv-x="950" d="M143 500q0 -117 9.5 -201t38 -147.5t84 -113.5t145.5 -99q47 59 97 113t132 118l62 -520h47l53 946q2 61 6 94t13.5 54.5t29 39t53.5 45.5q-55 27 -121.5 64t-125 70.5t-78.5 45.5l-60 35l-231 -163q-51 -35 -81 -72t-46 -82t-21.5 -100.5t-5.5 -126.5zM317 508 q0 59 4.5 114.5t18.5 102.5t38.5 88t67.5 74l199 -117v-446q-12 -20 -26.5 -41t-34 -43.5t-46 -52t-63.5 -68.5q-47 31 -77.5 75t-48 95t-25 107.5t-7.5 111.5z" />
<glyph unicode="r" horiz-adv-x="751" d="M39 899l22 -59l76 30q51 0 61.5 -54t10.5 -146v-494l-88 -88l262 -149l258 204l-43 50l-121 -95l-96 70v582l23 24q22 23 42 41q14 12 35 26.5t33 22.5t14 10q18 -25 30.5 -41t21 -31.5t15.5 -34.5t17 -50l181 47q-20 94 -57.5 165.5t-131.5 114.5q-37 -35 -62.5 -58 t-49 -42.5t-51 -39t-66.5 -46.5q-10 78 -43 126.5t-96 66.5q-31 -35 -53.5 -56.5t-43 -37t-44 -27.5t-56.5 -31z" />
<glyph unicode="s" horiz-adv-x="942" d="M104 639q0 -59 21.5 -107.5t55.5 -88.5t75 -74.5t78 -67.5l248 254q90 -63 134 -117.5t44 -107.5t-34 -112.5t-83 -119.5q-82 43 -172 84t-186 70q-27 -47 -46.5 -82t-45.5 -76q57 -18 122.5 -44.5t123 -51.5t95.5 -42l37 -17q59 49 119 110.5t106 128t74.5 133 t28.5 127.5q0 49 -20.5 92t-53 82t-73.5 72t-84 61l-248 -253q-49 47 -82 78.5t-52.5 56t-27.5 45t-8 43.5q0 37 18.5 73.5t55.5 83.5q72 -41 128 -65.5t117 -24.5q68 0 119 23.5t84 60.5t49.5 84t16.5 94q0 55 -25 98.5t-62.5 73t-83.5 45t-89 15.5q-63 0 -129 -29.5 t-132 -101.5l43 -39q74 59 121 80.5t94 21.5q31 0 61 -11t53.5 -29.5t36.5 -43t13 -51.5q0 -47 -37.5 -81t-89.5 -34q-57 0 -117.5 30t-105.5 61l-98 -111q-49 -55 -84 -91t-58.5 -65.5t-34 -61.5t-10.5 -81z" />
<glyph unicode="t" horiz-adv-x="555" d="M74 868h135v-704l-90 -84q37 -23 62.5 -37t48 -28.5t50 -32t68.5 -43.5q29 25 48.5 40t42 33.5t54 42t87.5 64.5l-37 55l-99 -63l-63 43v714h211v99h-211v542h-80v-59q0 -59 -9 -136t-35 -153t-70 -141.5t-113 -101.5v-50z" />
<glyph unicode="u" horiz-adv-x="997" d="M41 897l20 -59q6 2 28 10t37 14t17 6q27 -10 40.5 -35.5t19.5 -60.5t6 -74v-69v-467l-92 -80q49 -29 77.5 -45.5t49 -29.5t42 -28.5t56.5 -39.5q98 80 184 126t172 89q2 -35 6.5 -66t18.5 -57.5t39.5 -50t68.5 -41.5q33 37 57.5 59t47 37.5t44 27t46.5 23.5l-22 57 l-82 -28q-35 10 -49.5 33.5t-14.5 78.5v582l98 94q-43 25 -69.5 41.5t-46 29.5t-36 29.5l-40.5 40.5q-35 -35 -55.5 -54t-39 -32.5t-37 -23.5t-48.5 -29l102 -88v-588l-248 -125l-57 52v602q0 45 -6 78.5t-22.5 65.5t-45 64.5t-74.5 77.5q-33 -37 -57 -59t-45.5 -37.5 t-43 -27t-46.5 -23.5z" />
<glyph unicode="v" horiz-adv-x="913" d="M98 963q0 -55 17.5 -82t38 -54.5t38 -74.5t17.5 -144v-356l-68 -72l348 -241q82 72 142.5 123t102.5 91t68.5 75.5t41 76.5t19.5 92.5t5 124.5q0 53 -6 119t-21.5 134.5t-42 139t-65.5 134.5l-196 -175l32 -38l47 43q16 -23 31 -65t24 -94t14 -107.5t5 -102.5 q0 -111 -27.5 -218.5t-93.5 -195.5l-188 135v461q0 74 -13.5 122t-33 79t-42 49.5t-42 36.5t-32.5 40.5t-13 59.5q0 27 6 58l-43 28q-33 -59 -51.5 -110t-18.5 -92z" />
<glyph unicode="w" horiz-adv-x="1449" d="M92 977q0 -59 18.5 -95t40 -67t40 -65.5t18.5 -87.5v-474l-109 -104q45 -14 109.5 -39t125 -48.5t103.5 -40.5l43 -17l199 116l283 -118q66 39 125 62.5t108 45t89 49t67.5 75.5t43 125t15.5 195q0 68 -9 145t-36 152.5t-74 146.5t-121 124l-196 -174l33 -39l47 30 q57 -39 92 -81.5t53.5 -90t24.5 -98.5t6 -104q0 -109 -5 -180.5t-20.5 -118.5t-42 -74t-67.5 -43l-207 92v475q0 51 -2 104.5t-18.5 105.5t-52.5 100.5t-101 91.5l-193 -170l33 -39l55 41q31 -18 51.5 -36t32 -42.5t16.5 -59t5 -85.5v-502l-125 -76l-209 82v590 q0 84 -28.5 126t-64.5 70.5t-64.5 56t-28.5 83.5q0 10 2 21t4 26l-47 28q-27 -53 -44.5 -98t-17.5 -92z" />
<glyph unicode="x" horiz-adv-x="794" d="M70 102l11 -15t31.5 -38.5t45 -53.5t53.5 -56q2 2 17.5 18t40 43t45 47.5t46 45t42 39.5t18.5 18q18 -41 37.5 -71t42 -53.5t49 -45t59.5 -43.5q18 20 49 54t62 64.5t53 52.5l21 23l-43 41l-64 -51q-57 33 -90 62.5t-50.5 61t-21.5 67.5t-4 83v51q55 4 90 27t62 88 l-37 19q-33 -31 -59.5 -40.5t-55.5 -9.5v179v75l66 70l98 -106l117 114l-139 174q-2 -2 -18.5 -19.5t-43.5 -46t-49 -50.5q-18 -20 -44 -46t-42 -41.5t-19 -17.5q-12 37 -25 65.5t-34.5 53t-51.5 49.5t-73 57l-192 -174l30 -39l47 31q61 -31 102.5 -58.5t64 -57t31.5 -62.5 t9 -70v-80q-41 0 -68.5 -4t-47 -17t-30.5 -39t-20 -69h43q10 29 34 36t89 7v-215l-82 -92l-84 86z" />
<glyph unicode="y" horiz-adv-x="915" d="M98 897q0 -53 17.5 -79.5t38 -55.5t38 -77t17.5 -144v-357l-92 -69l313 -203q-66 -55 -104 -102q-34 -40 -34 -94q0 -8 1 -17q4 -74 63 -107q25 -15 66 -15h5q44 1 90 11.5t90 25.5t71 28l-16 53q-39 -6 -70 -10t-57 2q-35 8 -62 28.5t-22 48.5q6 49 41.5 96.5t80.5 89.5 t89.5 75.5t66.5 54.5q43 41 70.5 77t43 77.5t20.5 94t5 126.5q0 55 -6 120.5t-21.5 134t-42 139.5t-65.5 134l-196 -174l32 -39l47 39q16 -23 31 -66t24 -93t14 -105.5t5 -102.5q0 -111 -27.5 -218t-93.5 -193l-188 119v475q0 74 -13.5 121t-33 77.5t-42 49t-42 37t-32.5 41 t-13 61.5q0 25 6 59l-43 27q-33 -59 -51.5 -109.5t-18.5 -91.5z" />
<glyph unicode="z" horiz-adv-x="579" d="M25 -143q0 -51 15 -102.5t47 -93.5t82 -67.5t120 -25.5q53 0 106.5 18.5t95 58.5t68.5 104.5t27 158.5q0 61 -11.5 112.5t-32 95.5t-47 87t-59.5 90l107 92l-39 53l-109 -88l-69 70q78 84 136 160.5t58 160.5q0 211 -291 236q-23 -37 -37 -59.5t-28 -43t-33.5 -43 t-52.5 -59.5l47 -47l88 59q74 0 123 -33.5t49 -97.5q0 -37 -29.5 -82t-71.5 -89t-89.5 -86t-81.5 -72l110 -105q-96 -98 -146 -184t-52 -178zM113 -131q0 78 41 146.5t125 150.5q66 -80 114.5 -157t48.5 -154q0 -78 -46 -132.5t-122 -54.5q-27 0 -55.5 9.5t-52 32 t-38.5 61.5t-15 98z" />
<glyph unicode="{" horiz-adv-x="839" d="M104 582q100 -8 166 -33t103 -61.5t51 -84t14 -102.5v-186q0 -102 36 -172t97.5 -113t141.5 -61.5t170 -18.5v57q-72 0 -128.5 25t-95 65t-60 92t-21.5 109v123q-6 119 -32 191.5t-76 115.5t-126 63.5t-180 35.5q104 16 182 41.5t129 65.5t77 99.5t26 143.5v127 q0 94 13 154.5t48 98.5t93.5 58.5t150.5 36.5v55q-215 0 -330 -93t-115 -296v-106q0 -96 -19.5 -156.5t-61.5 -97.5t-104.5 -55.5t-148.5 -30.5v-90z" />
<glyph unicode="|" horiz-adv-x="229" d="M104 -266h82v1775h-82v-1775z" />
<glyph unicode="}" horiz-adv-x="839" d="M104 -193v-57q90 0 172 18.5t143.5 61.5t97.5 112.5t36 172.5v186q0 55 14.5 102.5t51 84t100 61t164.5 33.5v90q-86 12 -147.5 30.5t-102.5 55.5t-60.5 97t-19.5 157v106q0 205 -116 297t-333 92v-55q92 -16 151.5 -36.5t94.5 -58.5t48.5 -98.5t13.5 -154.5v-127 q0 -84 25.5 -143.5t77.5 -99.5t130 -65.5t182 -41.5q-106 -14 -185 -35t-130 -64t-75.5 -115.5t-24.5 -191.5v-123q0 -57 -21.5 -109t-61.5 -92t-96.5 -65t-128.5 -25z" />
<glyph unicode="~" horiz-adv-x="651" d="M104 1126l31 -20l72 84q31 -10 70.5 -26.5t82.5 -32t87.5 -25.5t80.5 -10q31 0 62 13t53.5 33.5t36.5 45t14 49.5q0 35 -12 54.5t-23 29.5q-23 16 -36 19t-23 1q-12 -2 -12 -22q0 -18 14 -19q59 0 60 -40q0 -31 -20.5 -43.5t-45.5 -12.5q-31 0 -77 15.5t-92 34t-87 34 t-61 15.5q-29 0 -55.5 -21.5t-49 -50.5t-40 -58.5t-30.5 -46.5z" />
<glyph unicode="&#xa1;" horiz-adv-x="524" d="M111 -8l28 -53q168 88 246 288q37 -68 139 -182l45 43q-47 66 -77.5 113t-40.5 80q-14 43 -25 194l-51 676h-56l-65 -803q-8 -123 -29 -182q-35 -106 -114 -174zM176 1417q47 -45 89 -89t79 -89q63 66 106.5 109t65.5 65q-45 41 -85 83t-79 87q-74 -80 -176 -166z" />
<glyph unicode="&#xa2;" horiz-adv-x="731" d="M147 711q0 -76 13.5 -156t45.5 -151.5t87 -128t141 -87.5v-186h86v234l215 133l-28 53l-164 -74q-6 2 -13 2q-6 0 -10 2v692q25 -47 70 -106l141 104q-47 63 -74.5 102.5t-45 66t-28 45t-22.5 40.5l-41 -26v213h-86v-269l-119 -75q-41 -27 -72.5 -57.5t-53 -78t-32 -118 t-10.5 -174.5zM332 752q0 94 21.5 190t80.5 168v-711q-57 53 -79.5 147.5t-22.5 205.5z" />
<glyph unicode="&#xa3;" horiz-adv-x="1175" d="M100 111q0 -68 47.5 -106t106.5 -38q70 0 125 42t96 102q35 -23 71 -47.5t74.5 -46t78.5 -36t83 -14.5q82 0 140.5 23.5t102.5 63.5t78 94.5t66 117.5q2 6 7.5 24.5t-9.5 18.5q-14 0 -26.5 -9t-16.5 -15q-37 -35 -66.5 -58.5t-60 -39t-68.5 -21.5t-89 -6q-78 0 -161 24.5 t-159 53.5q25 86 44.5 172t15.5 172l-11 149h275v105h-283l-18 274q0 55 6 115.5t27.5 113t63.5 86t112 33.5q57 0 94 -12t59.5 -30.5t31.5 -40t9 -42.5q0 -14 -8 -49t-15.5 -80t-9.5 -93t11.5 -89t47.5 -66.5t97 -25.5q14 0 22.5 4t38.5 8v45q-29 10 -48 22.5t-19 53.5 q0 12 6 37.5t13.5 55.5t13.5 61.5t6 58.5q0 98 -78 167.5t-225 69.5q-113 0 -197 -39.5t-139 -110.5t-83 -170t-28 -218q0 -72 6 -139h-229v-105h240q14 -129 30.5 -244.5t10.5 -216.5q-41 10 -88 11q-41 2 -81 -7.5t-71 -30t-50.5 -53t-19.5 -79.5zM162 115q0 41 31.5 63.5 t82.5 22.5q43 0 70 -14.5t43 -30.5q-23 -51 -54.5 -87t-78.5 -36q-29 0 -61.5 18.5t-32.5 63.5z" />
<glyph unicode="&#xa4;" horiz-adv-x="1228" d="M63 219l91 -86l196 197q47 -39 116 -63.5t148 -24.5q80 0 148.5 24.5t116.5 63.5l200 -197l86 86l-196 201q39 47 63.5 115.5t24.5 148.5q0 78 -24.5 147.5t-63.5 116.5l196 197l-86 90l-200 -201q-45 39 -115 63.5t-150 24.5q-78 0 -145.5 -23.5t-118.5 -64.5l-196 201 l-91 -90l201 -197q-39 -47 -63.5 -116.5t-24.5 -147.5t23.5 -145.5t64.5 -118.5zM283 684q0 66 25.5 127t70.5 107.5t105 74t130 27.5t131.5 -27.5t107.5 -74t71.5 -107.5t25.5 -127q0 -68 -25.5 -129t-71.5 -108.5t-107.5 -75t-131.5 -27.5t-130 27.5t-105 75t-70.5 108.5 t-25.5 129z" />
<glyph unicode="&#xa5;" horiz-adv-x="722" d="M131 1509l557 -1577h103l-566 1577h-94z" />
<glyph unicode="&#xa6;" horiz-adv-x="454" d="M176 -358h103v716h-103v-716zM176 666h103v716h-103v-716z" />
<glyph unicode="&#xa7;" horiz-adv-x="960" d="M147 616q6 -49 37 -99t74 -100t92 -98.5t96 -91.5q51 -47 89 -85t65 -72.5t40 -67.5t13 -70q0 -35 -12 -62.5t-29.5 -48t-35 -34.5t-25.5 -20q-59 18 -97 44.5t-60.5 54.5t-31 52.5t-8.5 36.5q0 16 9.5 29.5t19.5 21.5l-21 31l-22 -17q-23 -16 -51.5 -36.5t-58 -42 t-48.5 -33.5q14 -25 36 -54.5t56.5 -59.5t86 -56.5t128.5 -44.5q135 47 201 130t66 185q0 49 -15.5 92t-37 80t-47 66.5t-46.5 50.5q49 35 82 62.5t55.5 54t39 55.5t32.5 66q-4 45 -27.5 91t-60.5 92t-85 93t-99 94q-61 57 -106.5 98t-73 76t-41 66t-13.5 65q0 33 26 76 t79 78q57 -2 99 -21.5t69.5 -44t42 -51t14.5 -45.5q0 -16 -8 -27.5t-25 -33.5l23 -25q25 20 44 36.5t37.5 32t39 31t47.5 33.5q-51 102 -135 145.5t-177 57.5q-119 -45 -193.5 -130t-74.5 -189q0 -82 41 -142.5t100 -122.5q-82 -47 -141 -114.5t-74 -137.5zM264 682 q18 45 44 83t81 73q6 -6 35 -32t65.5 -59.5t72.5 -67.5t56 -54q49 -47 65.5 -81t23.5 -52q-10 -25 -31.5 -65t-93.5 -101q-102 82 -193 174q-39 39 -61.5 66.5t-34.5 48t-18.5 36t-10.5 31.5z" />
<glyph unicode="&#xa8;" horiz-adv-x="536" d="M104 1092l197 260h-147zM340 1087l197 265h-148z" />
<glyph unicode="&#xa9;" horiz-adv-x="808" d="M104 1171q0 -70 27 -131t73 -108t107.5 -75t132.5 -28q70 0 132.5 26t108.5 72t73.5 106.5t27.5 131.5q0 72 -25.5 134.5t-71.5 109.5t-107 73.5t-133 26.5q-70 0 -132.5 -26.5t-109.5 -72.5t-75 -107.5t-28 -131.5zM143 1171q0 63 25 119t66.5 95.5t97 63.5t117.5 24 q63 0 117.5 -25t95 -67t64.5 -97t24 -119q0 -61 -25 -115.5t-66 -94.5t-96 -63.5t-119 -23.5q-63 0 -117.5 25t-95.5 65.5t-64.5 96t-23.5 116.5zM246 1174q0 -43 15 -82t41 -68t60.5 -45t73.5 -16q57 0 99.5 26.5t78.5 85.5l-18 10q-23 -37 -56.5 -64.5t-74.5 -27.5 q-70 0 -102.5 54.5t-32.5 121.5q0 84 30.5 138.5t88.5 54.5q59 0 91.5 -44t43.5 -97h20v163h-20q0 -33 -23 -32q-16 0 -41.5 17t-79.5 17q-37 0 -71.5 -16t-62 -45t-44 -67.5t-16.5 -83.5z" />
<glyph unicode="&#xaa;" horiz-adv-x="712" d="M141 1038q0 -45 5.5 -82.5t20.5 -71.5t42 -63.5t72 -58.5q23 18 72.5 49t121.5 63q0 -41 22.5 -65.5t55.5 -46.5q29 20 61.5 42.5t63.5 37.5l-4 26q-12 -10 -28.5 -17t-27.5 -7q-23 0 -34 25.5t-11 60.5v280q0 20 10.5 43t37.5 27v12q-63 10 -125 38t-109 59 q-16 -16 -34.5 -28.5t-39 -25t-43 -27t-49.5 -38.5q-47 -43 -63.5 -98.5t-16.5 -133.5zM246 1047q0 98 13 170.5t56 91.5q45 -16 93.5 -36t66.5 -42v-328q-12 -8 -29.5 -17t-37 -18.5t-37 -15.5t-27.5 -6q-55 0 -76.5 55t-21.5 146z" />
<glyph unicode="&#xab;" horiz-adv-x="1003" d="M39 565q12 -10 20.5 -18t17.5 -19.5t22.5 -29t31.5 -47.5l219 -345q35 -53 58 -108l135 78l-342 540l471 361h-86l-430 -330q-23 -16 -45.5 -33.5t-71.5 -48.5zM360 588q41 -33 61.5 -62.5t35.5 -52.5l202 -317q23 -35 43.5 -73t32.5 -73l137 78l-350 551l441 338h-86 l-435 -334q-16 -12 -32.5 -23.5t-49.5 -31.5z" />
<glyph unicode="&#xac;" horiz-adv-x="1228" d="M98 713h930v-445h102v547h-1032v-102z" />
<glyph unicode="&#xad;" horiz-adv-x="653" d="M113 391h503v127h-503v-127z" />
<glyph unicode="&#xae;" horiz-adv-x="808" d="M104 1171q0 -70 27 -132t73 -109t107.5 -75t132.5 -28q70 0 132.5 27t108.5 72t73.5 106.5t27.5 132.5q0 70 -26.5 133.5t-71.5 109.5t-107 73.5t-132 27.5t-132.5 -26.5t-109.5 -72.5t-75 -107.5t-28 -131.5zM143 1171q0 63 25 117.5t66.5 95.5t97 65t117.5 24 q61 0 116.5 -25t96 -67t64.5 -97t24 -119q0 -61 -25 -116.5t-66 -95.5t-97 -63.5t-118 -23.5q-63 0 -117.5 24.5t-95.5 65.5t-64.5 97.5t-23.5 117.5zM254 971h199v24q-45 0 -55.5 8.5t-10.5 43.5v112h49q47 0 56.5 -30.5t11.5 -66.5t13 -66.5t63 -30.5q25 0 41 10t25 25.5 t13.5 33t4.5 31.5h-23q0 -27 -9 -48.5t-24 -21.5q-18 0 -22 21.5t-11.5 49.5t-27 56.5t-68.5 44.5q16 2 39 9.5t44.5 19.5t35.5 29.5t14 42.5q-2 37 -28.5 56t-61.5 28.5t-68.5 11.5t-52.5 2h-147v-23q45 0 55 -8t10 -43v-245q0 -35 -10 -43.5t-55 -8.5v-24zM387 1186v106 q0 29 8 41.5t43 12.5q45 0 69.5 -21.5t24.5 -50.5q0 -47 -25.5 -67.5t-78.5 -20.5h-41z" />
<glyph unicode="&#xaf;" horiz-adv-x="681" d="M104 1098q45 4 89.5 5t103.5 1h53q33 0 66 -1t62.5 -2t51.5 -3l48 137l-234 -2q-66 0 -108.5 1t-81.5 5z" />
<glyph unicode="&#xb0;" horiz-adv-x="819" d="M117 1212q0 -61 22.5 -114.5t62.5 -93t93.5 -62t114.5 -22.5t114.5 22.5t93 62t62 93t22.5 114.5t-22.5 114.5t-62 93.5t-93 62.5t-114.5 22.5t-114.5 -22.5t-93.5 -62.5t-62.5 -93t-22.5 -115zM188 1212q0 45 17.5 87t47.5 75t69.5 51.5t87.5 18.5q45 0 86 -18.5 t70.5 -51.5t47 -75t17.5 -87q0 -47 -17.5 -88t-47 -73.5t-70.5 -51t-86 -18.5q-47 0 -87 18.5t-70 51t-47.5 73.5t-17.5 88z" />
<glyph unicode="&#xb1;" horiz-adv-x="1228" d="M98 23h1032v102h-1032v-102zM98 600h465v-381h103v381h464v102h-464v381h-103v-381h-465v-102z" />
<glyph unicode="&#xb2;" horiz-adv-x="618" d="M37 635q0 -23 22 -23q4 0 25.5 5.5t38.5 9.5q27 8 73 13t78 5q35 0 94.5 -8t118.5 -29l80 86q-29 10 -92 24.5t-145 14.5q-55 0 -109.5 -9t-105.5 -32q10 18 20 34.5t31.5 34t58.5 39t101 54.5q53 27 95 50.5t71.5 53t46 68.5t16.5 94q0 14 -1 23.5t-3 21.5l-270 144 l-230 -156l84 -70l215 146q8 -4 21.5 -11.5t27 -21.5t23.5 -35.5t10 -54.5q0 -47 -25.5 -84t-46.5 -57q-10 -10 -36.5 -30t-58.5 -41.5t-59.5 -40.5t-39.5 -28q-43 -33 -68.5 -64.5t-39 -58t-17.5 -45t-4 -22.5z" />
<glyph unicode="&#xb3;" horiz-adv-x="618" d="M27 748l227 -140q35 8 87 22.5t100 37t83 56.5t35 83q0 18 -9 42.5t-30.5 49.5t-59.5 47.5t-95 34.5q76 25 115.5 72t39.5 104q0 16 -2 28.5t-6 22.5l-254 107l-203 -123l80 -72l129 80q33 20 47.5 26.5t30.5 6.5q23 0 36 -19.5t13 -52.5q0 -25 -12 -55.5t-39 -55 t-69 -39t-103 -10.5v-38q33 2 55 2q25 0 60 -11q49 -12 77.5 -34.5t44 -47t20.5 -46t5 -33.5q0 -43 -21.5 -75t-62.5 -46l-240 145z" />
<glyph unicode="&#xb4;" horiz-adv-x="448" d="M104 1118l17 -16l307 155v105h-111z" />
<glyph unicode="&#xb5;" horiz-adv-x="1087" d="M88 891l18 -35q25 14 42.5 23.5t39.5 9.5q33 0 60.5 -29t27.5 -119v-417q0 -31 3.5 -108t7.5 -173t11 -198.5t13 -184.5h45q4 45 9.5 94t10.5 94.5t9 83t6 60.5q20 25 60.5 51.5t93.5 55t114.5 60t122.5 62.5q-2 -78 21.5 -129t81.5 -92q53 39 101 65.5t101 57.5l-8 39 q-53 -37 -86 -37q-61 0 -61 117v778h-74q-29 -43 -65.5 -75t-94.5 -60v-37q55 -2 69.5 -28.5t14.5 -67.5l2 -484q-125 -72 -192.5 -101.5t-93.5 -29.5q-35 0 -54.5 32t-19.5 79v510q0 43 -8 86t-23.5 78.5t-38 63.5t-53.5 40q-41 -35 -100.5 -73t-112.5 -62z" />
<glyph unicode="&#xb6;" horiz-adv-x="1599" d="M84 682q0 -143 48 -269t141.5 -219.5t230.5 -147.5t315 -54q61 0 135 6t156 20q63 10 100 16.5t59.5 9.5t39 4t39.5 1q47 0 66.5 -6t39.5 -18q-12 -6 -26.5 -18.5t-14.5 -41.5q0 -35 21.5 -52t46.5 -17q37 0 55 26.5t18 50.5q0 43 -47 85t-149 42q-25 0 -60.5 -3 t-77.5 -8t-84 -12t-79 -16v1061q0 31 1 70t5 74q45 -41 69.5 -70t51.5 -72h22v164q-29 16 -67.5 35.5t-91 36t-119 28t-152.5 11.5q-186 0 -317 -66.5t-214 -170t-122 -230.5t-39 -250zM430 741q0 92 5 160t13.5 118t18.5 86t22 64q8 18 23.5 47t39 55.5t55.5 45t71 18.5 q43 0 67.5 -23.5t36 -64.5t14.5 -94t3 -111v-714q0 -59 -2 -109.5t-11.5 -86.5t-29 -55.5t-54.5 -19.5q-49 0 -88 27t-67.5 65.5t-46 80.5t-25.5 71q-25 92 -35 193.5t-10 246.5zM852 43v1303q41 -4 76 -12.5t71 -24.5q8 -76 9.5 -166t1.5 -176v-912q-27 -4 -44.5 -6t-34 -4 t-34.5 -2h-45z" />
<glyph unicode="&#xb7;" horiz-adv-x="380" d="M35 -367q39 -14 87 -24t95 -10q94 0 150.5 44t56.5 113q0 33 -14.5 58.5t-36 42t-49 24.5t-54.5 8h-30q-14 0 -31 -4l76 115h-68l-113 -164l29 -22q25 6 46.5 11t43.5 5q29 0 57.5 -18.5t28.5 -59.5q0 -39 -29.5 -65.5t-84.5 -26.5q-53 0 -134 31z" />
<glyph unicode="&#xb9;" horiz-adv-x="598" d="M135 1210l25 -28q33 23 41 27.5t16 4.5q12 0 19.5 -10t10.5 -25.5t4 -30.5t1 -24v-405q0 -51 -11.5 -66.5t-56.5 -23.5v-33q27 4 35 6t23 6q41 14 58 19.5t34 5.5q23 0 33 -2q20 -4 30 -8l15 34q-14 2 -22.5 4.5t-12.5 8.5t-5 19t-1 36v403q0 70 -14.5 112t-82.5 69z" />
<glyph unicode="&#xba;" horiz-adv-x="716" d="M158 864q66 -8 141.5 -35.5t130.5 -60.5q25 33 63.5 52.5t76.5 44t65 65.5t27 114q0 88 -14.5 147.5t-39 97.5t-55.5 60.5t-61 39.5q-41 -23 -75 -39.5t-67 -26.5t-65.5 -14t-71.5 -4v-377q0 -43 -55 -51v-13zM309 924v358q16 14 49 22.5t50 8.5q88 0 120.5 -82 t32.5 -207q0 -51 -3 -81t-11 -48t-22.5 -29.5t-37.5 -23.5q-53 16 -101 37.5t-77 44.5z" />
<glyph unicode="&#xbb;" horiz-adv-x="1003" d="M41 -2h84l436 334q16 14 31.5 25.5t50.5 31.5q-41 33 -62.5 62.5t-33.5 50.5l-205 319q-20 33 -40.5 71t-33.5 73l-139 -78l352 -551zM330 -2h86l432 332q23 16 45 33.5t70 48.5q-12 10 -20.5 18t-18 19.5t-21.5 29t-31 47.5l-219 342q-16 27 -31.5 55.5t-25.5 53.5 l-135 -78l342 -539z" />
<glyph unicode="&#xbc;" horiz-adv-x="1193" d="M131 1210l25 -28q33 23 42 27.5t15 4.5q12 0 19.5 -10t10.5 -25.5t4 -30.5t1 -24v-405q0 -25 -2 -41t-9.5 -25.5t-20.5 -14.5t-36 -9v-33q29 4 36 6t22 6q41 14 58 19.5t34 5.5q23 0 32 -2q20 -4 31 -8l17 34q-14 2 -22.5 4.5t-13.5 8.5t-6 19t-1 36v403q0 70 -14.5 112 t-82.5 69zM268 -27h70l575 1332h-69zM627 319l20 -86h271v-139q0 -23 -1.5 -38t-7.5 -24t-19 -15.5t-38 -12.5v-33q16 4 27.5 7.5t27.5 7.5q41 10 59.5 16t32.5 6q20 0 31 -2q16 0 33 -6l16 35q-29 4 -36 12t-7 55v131h113l-21 93h-92v174q0 82 -16 123t-78 63zM692 326 l209 243q10 -16 13.5 -38.5t3.5 -63.5v-141h-226z" />
<glyph unicode="&#xbd;" horiz-adv-x="1216" d="M131 1210l25 -28q33 23 42 27.5t15 4.5q12 0 19.5 -10t10.5 -25.5t4 -30.5t1 -24v-405q0 -51 -10.5 -66.5t-55.5 -23.5v-33q27 4 34 6t22 6q43 14 59 19.5t33 5.5q23 0 32 -2q20 -4 31 -8l17 34q-14 2 -22.5 4.5t-13.5 8.5t-6 19t-1 36v403q0 70 -14.5 112t-82.5 69z M264 -27h70l575 1332h-71zM670 10q0 -8 5 -15t17 -7q6 0 26.5 6t37.5 10q29 8 73.5 12t77.5 4q35 0 94.5 -7t118.5 -27l80 86q-29 8 -92.5 23.5t-144.5 15.5q-109 0 -215 -41q10 18 20 34.5t31.5 34t58.5 39t100 53.5q53 27 95.5 50.5t72 53.5t46 67.5t16.5 93.5v24 q0 10 -4 23l-271 143l-227 -158l82 -67l215 145q8 -4 22.5 -11t28 -21.5t22.5 -36t9 -54.5q0 -49 -25.5 -86t-46.5 -55q-10 -10 -36.5 -29.5t-58.5 -41t-59.5 -41t-39.5 -27.5q-43 -33 -68.5 -66t-39 -59.5t-17.5 -45t-4 -22.5z" />
<glyph unicode="&#xbe;" horiz-adv-x="1236" d="M33 748l229 -140q35 8 87 22.5t100.5 37t83 56.5t34.5 83q0 18 -9 42.5t-31.5 49.5t-59.5 47.5t-94 34.5q76 25 114.5 72t38.5 104q0 16 -2 28.5t-4 22.5l-254 107l-203 -123l80 -72l127 80q35 20 48.5 26.5t29.5 6.5q23 0 36 -19.5t13 -52.5q0 -25 -12 -55.5t-37.5 -55 t-68.5 -39t-105 -10.5v-38q33 2 57.5 1t59.5 -10q49 -12 77.5 -34.5t44 -47t20.5 -46t5 -33.5q0 -43 -22.5 -75t-63.5 -46l-239 145zM307 -27h70l575 1332h-69zM664 319l20 -86h272v-139q0 -23 -1 -38t-8 -24t-20.5 -15.5t-37.5 -12.5v-33q16 4 30.5 7.5t26.5 7.5 q25 6 39 11t23.5 7t15.5 3t14 1q20 0 29 -2q16 0 35 -6l16 35q-29 4 -36 12t-7 55v131h113l-23 93h-90v174q0 82 -17.5 123t-78.5 63zM729 326l211 243q10 -16 13 -38.5t3 -63.5v-141h-227z" />
<glyph unicode="&#xbf;" horiz-adv-x="878" d="M111 449q0 -201 153 -357q133 -133 273 -153q88 53 168.5 104t152.5 98l-151 125l-308 -188q-104 141 -108 340q-2 276 250 368l-33 357h-62q-23 -301 -28 -307q-305 -139 -307 -387zM313 1407q113 -106 166 -174q57 59 99.5 101t70.5 71q-59 55 -101 97t-69 71 q-139 -141 -166 -166z" />
<glyph unicode="&#xc0;" horiz-adv-x="1458" d="M104 260q16 -41 23.5 -69.5t8.5 -55t-4 -54.5t-13 -69q70 8 113.5 -6t79.5 -34.5t75 -39t100 -18.5q84 0 130.5 33t68 101.5t25.5 174t4 248.5q94 -27 196 -27q94 0 203 21v-103q2 -57 5 -111t16.5 -107.5t42 -106.5t84.5 -107q4 2 14 11.5t22.5 19.5t22.5 19.5t14 13.5 l164 139l-37 43q-12 -2 -24.5 -10t-23.5 -16.5t-19.5 -13.5t-10.5 -3q-51 37 -71.5 85t-20.5 114v725q0 70 4 125t24.5 100t62.5 86t118 84l-24 70q-66 -20 -110 -41t-78 -48.5t-62.5 -64.5t-59.5 -92q-92 111 -197.5 179.5t-254.5 68.5q-98 0 -180 -42t-141.5 -113 t-92.5 -164t-33 -193q0 -170 80 -289t201 -186q2 -135 9 -233.5t1 -163t-31.5 -96.5t-87.5 -32q-41 0 -66.5 20.5t-38.5 51.5t-13 68q0 39 10 73q-41 -6 -67.5 -7t-49 3t-48.5 13.5t-63 25.5zM350 1032q0 74 24.5 140.5t67.5 118.5t102.5 83t129.5 31q92 0 182 -55 q-78 -84 -135 -154t-95 -147.5t-56.5 -173t-20.5 -228.5q-86 59 -142.5 151.5t-56.5 233.5zM690 1786l307 -156l15 17l-213 243h-109v-104zM715 567q0 121 9 226.5t31.5 196.5t62 167.5t100.5 142.5q78 -74 131 -201.5t53 -310.5v-233q-74 -20 -168 -20q-49 0 -105.5 7 t-113.5 25z" />
<glyph unicode="&#xc1;" horiz-adv-x="1458" d="M104 260q16 -41 23.5 -69.5t8.5 -55t-4 -54.5t-13 -69q70 8 113.5 -6t79.5 -34.5t75 -39t100 -18.5q84 0 130.5 33t68 101.5t25.5 174t4 248.5q94 -27 196 -27q94 0 203 21v-103q2 -57 5 -111t16.5 -107.5t42 -106.5t84.5 -107q4 2 14 11.5t22.5 19.5t22.5 19.5t14 13.5 l164 139l-37 43q-12 -2 -24.5 -10t-23.5 -16.5t-19.5 -13.5t-10.5 -3q-51 37 -71.5 85t-20.5 114v725q0 70 4 125t24.5 100t62.5 86t118 84l-24 70q-66 -20 -110 -41t-78 -48.5t-62.5 -64.5t-59.5 -92q-92 111 -197.5 179.5t-254.5 68.5q-98 0 -180 -42t-141.5 -113 t-92.5 -164t-33 -193q0 -170 80 -289t201 -186q2 -135 9 -233.5t1 -163t-31.5 -96.5t-87.5 -32q-41 0 -66.5 20.5t-38.5 51.5t-13 68q0 39 10 73q-41 -6 -67.5 -7t-49 3t-48.5 13.5t-63 25.5zM350 1032q0 74 24.5 140.5t67.5 118.5t102.5 83t129.5 31q92 0 182 -55 q-78 -84 -135 -154t-95 -147.5t-56.5 -173t-20.5 -228.5q-86 59 -142.5 151.5t-56.5 233.5zM715 567q0 121 9 226.5t31.5 196.5t62 167.5t100.5 142.5q78 -74 131 -201.5t53 -310.5v-233q-74 -20 -168 -20q-49 0 -105.5 7t-113.5 25zM971 1659l16 -14l307 153v107h-110z" />
<glyph unicode="&#xc2;" horiz-adv-x="1458" d="M104 260q16 -41 23.5 -69.5t8.5 -55t-4 -54.5t-13 -69q70 8 113.5 -6t79.5 -34.5t75 -39t100 -18.5q84 0 130.5 33t68 101.5t25.5 174t4 248.5q94 -27 196 -27q94 0 203 21v-103q2 -57 5 -111t16.5 -107.5t42 -106.5t84.5 -107q4 2 14 11.5t22.5 19.5t22.5 19.5t14 13.5 l164 139l-37 43q-12 -2 -24.5 -10t-23.5 -16.5t-19.5 -13.5t-10.5 -3q-51 37 -71.5 85t-20.5 114v725q0 70 4 125t24.5 100t62.5 86t118 84l-24 70q-66 -20 -110 -41t-78 -48.5t-62.5 -64.5t-59.5 -92q-92 111 -197.5 179.5t-254.5 68.5q-98 0 -180 -42t-141.5 -113 t-92.5 -164t-33 -193q0 -170 80 -289t201 -186q2 -135 9 -233.5t1 -163t-31.5 -96.5t-87.5 -32q-41 0 -66.5 20.5t-38.5 51.5t-13 68q0 39 10 73q-41 -6 -67.5 -7t-49 3t-48.5 13.5t-63 25.5zM350 1032q0 74 24.5 140.5t67.5 118.5t102.5 83t129.5 31q92 0 182 -55 q-78 -84 -135 -154t-95 -147.5t-56.5 -173t-20.5 -228.5q-86 59 -142.5 151.5t-56.5 233.5zM715 567q0 121 9 226.5t31.5 196.5t62 167.5t100.5 142.5q78 -74 131 -201.5t53 -310.5v-233q-74 -20 -168 -20q-49 0 -105.5 7t-113.5 25zM741 1671l37 -14q35 23 72 63.5t76 79.5 q29 -23 61.5 -46t63 -44.5t55 -36t35.5 -16.5q14 -4 29.5 0t31 15t30.5 24.5t28 27.5q-66 43 -139.5 92.5t-131.5 96.5h-12q-31 -25 -56.5 -54.5t-52 -60.5t-57.5 -62.5t-70 -64.5z" />
<glyph unicode="&#xc3;" horiz-adv-x="1458" d="M104 260q16 -41 23.5 -69.5t8.5 -55t-4 -54.5t-13 -69q70 8 113.5 -6t79.5 -34.5t75 -39t100 -18.5q84 0 130.5 33t68 101.5t25.5 174t4 248.5q94 -27 196 -27q94 0 203 21v-103q2 -57 5 -111t16.5 -107.5t42 -106.5t84.5 -107q4 2 14 11.5t22.5 19.5t22.5 19.5t14 13.5 l164 139l-37 43q-12 -2 -24.5 -10t-23.5 -16.5t-19.5 -13.5t-10.5 -3q-51 37 -71.5 85t-20.5 114v725q0 70 4 125t24.5 100t62.5 86t118 84l-24 70q-66 -20 -110 -41t-78 -48.5t-62.5 -64.5t-59.5 -92q-92 111 -197.5 179.5t-254.5 68.5q-98 0 -180 -42t-141.5 -113 t-92.5 -164t-33 -193q0 -170 80 -289t201 -186q2 -135 9 -233.5t1 -163t-31.5 -96.5t-87.5 -32q-41 0 -66.5 20.5t-38.5 51.5t-13 68q0 39 10 73q-41 -6 -67.5 -7t-49 3t-48.5 13.5t-63 25.5zM350 1032q0 74 24.5 140.5t67.5 118.5t102.5 83t129.5 31q92 0 182 -55 q-78 -84 -135 -154t-95 -147.5t-56.5 -173t-20.5 -228.5q-86 59 -142.5 151.5t-56.5 233.5zM715 567q0 121 9 226.5t31.5 196.5t62 167.5t100.5 142.5q78 -74 131 -201.5t53 -310.5v-233q-74 -20 -168 -20q-49 0 -105.5 7t-113.5 25zM731 1675l29 -18l71 84q31 -12 71 -27.5 t83 -31t87 -25.5t81 -10q31 0 61.5 13t53 33.5t37 45t14.5 49.5q0 35 -11.5 54.5t-23.5 29.5q-20 14 -34.5 17t-24.5 1t-11 -22q0 -18 13 -19q29 0 45 -10t16 -29q0 -31 -20.5 -44t-46.5 -13q-31 0 -77 16.5t-92 35t-86 33.5t-61 15q-29 0 -55.5 -21.5t-50 -50t-41 -58 t-27.5 -48.5z" />
<glyph unicode="&#xc4;" horiz-adv-x="1458" d="M104 260q16 -41 23.5 -69.5t8.5 -55t-4 -54.5t-13 -69q70 8 113.5 -6t79.5 -34.5t75 -39t100 -18.5q84 0 130.5 33t68 101.5t25.5 174t4 248.5q94 -27 196 -27q94 0 203 21v-103q2 -57 5 -111t16.5 -107.5t42 -106.5t84.5 -107q4 2 14 11.5t22.5 19.5t22.5 19.5t14 13.5 l164 139l-37 43q-12 -2 -24.5 -10t-23.5 -16.5t-19.5 -13.5t-10.5 -3q-51 37 -71.5 85t-20.5 114v725q0 70 4 125t24.5 100t62.5 86t118 84l-24 70q-66 -20 -110 -41t-78 -48.5t-62.5 -64.5t-59.5 -92q-92 111 -197.5 179.5t-254.5 68.5q-98 0 -180 -42t-141.5 -113 t-92.5 -164t-33 -193q0 -170 80 -289t201 -186q2 -135 9 -233.5t1 -163t-31.5 -96.5t-87.5 -32q-41 0 -66.5 20.5t-38.5 51.5t-13 68q0 39 10 73q-41 -6 -67.5 -7t-49 3t-48.5 13.5t-63 25.5zM350 1032q0 74 24.5 140.5t67.5 118.5t102.5 83t129.5 31q92 0 182 -55 q-78 -84 -135 -154t-95 -147.5t-56.5 -173t-20.5 -228.5q-86 59 -142.5 151.5t-56.5 233.5zM715 567q0 121 9 226.5t31.5 196.5t62 167.5t100.5 142.5q78 -74 131 -201.5t53 -310.5v-233q-74 -20 -168 -20q-49 0 -105.5 7t-113.5 25zM846 1659l196 260h-147zM1081 1655 l197 264h-148z" />
<glyph unicode="&#xc5;" horiz-adv-x="1458" d="M104 260q16 -41 23.5 -69.5t8.5 -55t-4 -54.5t-13 -69q70 8 113.5 -6t79.5 -34.5t75 -39t100 -18.5q84 0 130.5 33t68 101.5t25.5 174t4 248.5q94 -27 196 -27q94 0 203 21v-103q2 -57 5 -111t16.5 -107.5t42 -106.5t84.5 -107q4 2 14 11.5t22.5 19.5t22.5 19.5t14 13.5 l164 139l-37 43q-12 -2 -24.5 -10t-23.5 -16.5t-19.5 -13.5t-10.5 -3q-51 37 -71.5 85t-20.5 114v725q0 70 4 125t24.5 100t62.5 86t118 84l-24 70q-66 -20 -110 -41t-78 -48.5t-62.5 -64.5t-59.5 -92q-92 111 -197.5 179.5t-254.5 68.5q-98 0 -180 -42t-141.5 -113 t-92.5 -164t-33 -193q0 -170 80 -289t201 -186q2 -135 9 -233.5t1 -163t-31.5 -96.5t-87.5 -32q-41 0 -66.5 20.5t-38.5 51.5t-13 68q0 39 10 73q-41 -6 -67.5 -7t-49 3t-48.5 13.5t-63 25.5zM350 1032q0 74 24.5 140.5t67.5 118.5t102.5 83t129.5 31q92 0 182 -55 q-78 -84 -135 -154t-95 -147.5t-56.5 -173t-20.5 -228.5q-86 59 -142.5 151.5t-56.5 233.5zM715 567q0 121 9 226.5t31.5 196.5t62 167.5t100.5 142.5q78 -74 131 -201.5t53 -310.5v-233q-74 -20 -168 -20q-49 0 -105.5 7t-113.5 25zM803 1778q0 -59 41 -100.5t98 -41.5 q55 0 97 41t42 101q0 53 -42 94t-97 41q-57 0 -98 -41t-41 -94zM864 1778q0 29 23.5 53t54.5 24q33 0 55.5 -24.5t22.5 -52.5q0 -35 -22.5 -58.5t-55.5 -23.5q-31 0 -54.5 23.5t-23.5 58.5z" />
<glyph unicode="&#xc6;" horiz-adv-x="1945" d="M104 268q16 -41 23.5 -69.5t8.5 -54t-4 -54.5t-13 -70q70 8 113.5 -6t79.5 -34.5t75 -39t100 -18.5q84 0 130.5 33t68 101.5t25.5 174t4 248.5q49 -12 98 -19t98 -7q45 0 87 5t102 15q0 -84 10 -185.5t51 -219.5q37 -18 85 -40t104.5 -42.5t118 -33.5t126.5 -13 q104 0 181 35.5t126.5 93t70 129t14.5 143.5h-54q4 -59 -17.5 -110.5t-58 -90.5t-84 -61.5t-94.5 -22.5q-37 0 -86 15.5t-98 37t-92 44t-68 34.5q-8 8 -16 26.5t-14.5 38t-9.5 40t-3 33.5v405q25 0 54.5 2t57.5 6t51.5 8.5t37.5 8.5q16 -20 43 -49t45 -47.5t21 -20.5 q6 -6 33.5 10.5t58 39t53 43t20.5 24.5l-135 168q-78 -63 -172 -93t-168 -28v112q0 61 1 117.5t3 106t7 80.5q29 -16 83 -34t134 -18q84 0 161.5 40t163.5 126l-39 39q-35 -29 -61.5 -46t-48 -26.5t-42 -11.5t-42.5 -2q-76 0 -149.5 42t-155.5 92t-173.5 92t-199.5 42 q-131 0 -252 -26.5t-213 -88t-146.5 -164t-54.5 -253.5q0 -170 80 -288t201 -185q2 -135 9 -234.5t1 -164t-31.5 -96.5t-87.5 -32q-41 0 -66.5 20.5t-38.5 51.5t-13 68q0 39 10 73q-41 -6 -67.5 -7t-49 3t-48.5 13.5t-63 25.5zM350 1040q0 74 24.5 140.5t67.5 119t102.5 83 t129.5 30.5q92 0 182 -55q-78 -84 -135 -153.5t-95 -147.5t-56.5 -173.5t-20.5 -228.5q-86 59 -142.5 152.5t-56.5 232.5zM715 575q0 123 10 229.5t34.5 200t67.5 173t113 147.5q25 -10 52.5 -15t58 -9.5t64.5 -11.5t73 -21q-31 -55 -47.5 -131t-25.5 -166t-11 -193.5 t-2 -214.5q-39 -10 -81 -15t-87 -5q-49 0 -105.5 8t-113.5 24z" />
<glyph unicode="&#xc7;" horiz-adv-x="1327" d="M104 809q0 -174 41 -329.5t124 -275.5t208 -192.5t291 -79.5l-74 -104l29 -23q23 6 45.5 11.5t44.5 5.5q29 0 57.5 -19.5t28.5 -58.5t-29.5 -65.5t-85.5 -26.5q-57 0 -133 31l-28 -60q39 -12 87 -22.5t95 -10.5q94 0 150.5 44t56.5 114q0 33 -14.5 58.5t-36 42t-48 24.5 t-53.5 8h-31q-14 0 -32 -4l39 60q102 6 184 37.5t146.5 86t114.5 131t89 170.5l-53 27q-80 -129 -198 -209t-240 -80q-133 0 -242 49.5t-187.5 144.5t-121.5 233.5t-43 318.5q0 121 21.5 230.5t64.5 192.5t106.5 132t147.5 49q10 0 39.5 -2t58.5 -10q-47 -53 -72.5 -122 t-25.5 -147q0 -92 46 -179t101 -164.5t101.5 -142.5t46.5 -114q0 -84 -50.5 -134t-117.5 -50q-51 0 -88 23.5t-56.5 63.5t-20.5 92t19 110l-59 28q-33 -51 -35 -119.5t26.5 -131t90 -105.5t155.5 -43q76 0 132.5 27.5t93.5 71.5t55 97.5t18 104.5q0 86 -56 172t-123.5 167 t-124 152.5t-56.5 131.5q0 35 13.5 70.5t38 65.5t57 48.5t69.5 18.5q66 4 124 -37t112 -95l178 152l-35 47l-55 -33q-127 90 -252 90q-104 0 -189 -61q-23 10 -50 18.5t-53 14.5t-47.5 9t-33.5 3q-106 0 -196.5 -59.5t-157 -158.5t-104.5 -231.5t-38 -279.5z" />
<glyph unicode="&#xc8;" horiz-adv-x="1376" d="M104 1231q0 -84 25 -137.5t64.5 -86t89 -49t100.5 -26.5v53q-78 23 -135.5 65t-57.5 121q0 35 13.5 68t37 58.5t54.5 41t67 15.5q66 0 126.5 -29.5t123.5 -64.5q-80 -125 -84 -238q-2 -53 15.5 -106.5t39 -109.5t40 -115.5t18.5 -125.5q0 -74 -35 -128t-88 -97 t-114.5 -79t-116 -72.5t-91 -81t-38.5 -101.5l49 -18q45 86 84 109.5t90 23.5q66 0 135.5 -29t146 -62.5t163.5 -62t188 -28.5q106 0 183 35.5t125 93t68.5 129t14.5 143.5h-51q4 -59 -17.5 -110.5t-58.5 -90.5t-84 -61.5t-96 -22.5q-61 0 -126 28t-133.5 61.5t-143 64.5 t-158.5 37q74 55 124 103t81.5 94t46 91.5t14.5 98.5q0 20 -2 40.5t-6 39.5q35 6 62.5 12t55.5 14q16 -20 43 -50t44.5 -48t19.5 -20l166 118l-133 168q-78 -63 -143.5 -86.5t-135.5 -32.5q-16 49 -39.5 93.5t-44 84.5t-35 74.5t-14.5 65.5q0 25 8 57.5t23 61.5 q57 -31 122.5 -53.5t145.5 -22.5q84 0 162 40t164 126l-39 41q-35 -31 -61.5 -47.5t-48 -25.5t-42 -11t-43.5 -2q-80 0 -155.5 41t-151.5 90t-154.5 90t-164.5 41q-57 0 -111.5 -21.5t-96.5 -60.5t-68 -95.5t-26 -123.5zM492 1774l307 -156l16 14l-213 246h-110v-104z" />
<glyph unicode="&#xc9;" horiz-adv-x="1376" d="M104 1231q0 -84 25 -137.5t64.5 -86t89 -49t100.5 -26.5v53q-78 23 -135.5 65t-57.5 121q0 35 13.5 68t37 58.5t54.5 41t67 15.5q66 0 126.5 -29.5t123.5 -64.5q-80 -125 -84 -238q-2 -53 15.5 -106.5t39 -109.5t40 -115.5t18.5 -125.5q0 -74 -35 -128t-88 -97 t-114.5 -79t-116 -72.5t-91 -81t-38.5 -101.5l49 -18q45 86 84 109.5t90 23.5q66 0 135.5 -29t146 -62.5t163.5 -62t188 -28.5q106 0 183 35.5t125 93t68.5 129t14.5 143.5h-51q4 -59 -17.5 -110.5t-58.5 -90.5t-84 -61.5t-96 -22.5q-61 0 -126 28t-133.5 61.5t-143 64.5 t-158.5 37q74 55 124 103t81.5 94t46 91.5t14.5 98.5q0 20 -2 40.5t-6 39.5q35 6 62.5 12t55.5 14q16 -20 43 -50t44.5 -48t19.5 -20l166 118l-133 168q-78 -63 -143.5 -86.5t-135.5 -32.5q-16 49 -39.5 93.5t-44 84.5t-35 74.5t-14.5 65.5q0 25 8 57.5t23 61.5 q57 -31 122.5 -53.5t145.5 -22.5q84 0 162 40t164 126l-39 41q-35 -31 -61.5 -47.5t-48 -25.5t-42 -11t-43.5 -2q-80 0 -155.5 41t-151.5 90t-154.5 90t-164.5 41q-57 0 -111.5 -21.5t-96.5 -60.5t-68 -95.5t-26 -123.5zM805 1667l16 -14l307 153v107h-110z" />
<glyph unicode="&#xca;" horiz-adv-x="1376" d="M104 1231q0 -84 25 -137.5t64.5 -86t89 -49t100.5 -26.5v53q-78 23 -135.5 65t-57.5 121q0 35 13.5 68t37 58.5t54.5 41t67 15.5q66 0 126.5 -29.5t123.5 -64.5q-80 -125 -84 -238q-2 -53 15.5 -106.5t39 -109.5t40 -115.5t18.5 -125.5q0 -74 -35 -128t-88 -97 t-114.5 -79t-116 -72.5t-91 -81t-38.5 -101.5l49 -18q45 86 84 109.5t90 23.5q66 0 135.5 -29t146 -62.5t163.5 -62t188 -28.5q106 0 183 35.5t125 93t68.5 129t14.5 143.5h-51q4 -59 -17.5 -110.5t-58.5 -90.5t-84 -61.5t-96 -22.5q-61 0 -126 28t-133.5 61.5t-143 64.5 t-158.5 37q74 55 124 103t81.5 94t46 91.5t14.5 98.5q0 20 -2 40.5t-6 39.5q35 6 62.5 12t55.5 14q16 -20 43 -50t44.5 -48t19.5 -20l166 118l-133 168q-78 -63 -143.5 -86.5t-135.5 -32.5q-16 49 -39.5 93.5t-44 84.5t-35 74.5t-14.5 65.5q0 25 8 57.5t23 61.5 q57 -31 122.5 -53.5t145.5 -22.5q84 0 162 40t164 126l-39 41q-35 -31 -61.5 -47.5t-48 -25.5t-42 -11t-43.5 -2q-80 0 -155.5 41t-151.5 90t-154.5 90t-164.5 41q-57 0 -111.5 -21.5t-96.5 -60.5t-68 -95.5t-26 -123.5zM592 1632l35 -14q35 23 72.5 63.5t76.5 79.5 q29 -23 61.5 -46t63.5 -44.5t55.5 -36t34.5 -16.5q14 -4 29.5 0t31 15.5t30 24.5t26.5 28q-66 43 -138.5 92t-131.5 96h-11q-31 -25 -57.5 -54.5t-52 -60t-56 -62.5t-69.5 -65z" />
<glyph unicode="&#xcb;" horiz-adv-x="1376" d="M104 1231q0 -84 25 -137.5t64.5 -86t89 -49t100.5 -26.5v53q-78 23 -135.5 65t-57.5 121q0 35 13.5 68t37 58.5t54.5 41t67 15.5q66 0 126.5 -29.5t123.5 -64.5q-80 -125 -84 -238q-2 -53 15.5 -106.5t39 -109.5t40 -115.5t18.5 -125.5q0 -74 -35 -128t-88 -97 t-114.5 -79t-116 -72.5t-91 -81t-38.5 -101.5l49 -18q45 86 84 109.5t90 23.5q66 0 135.5 -29t146 -62.5t163.5 -62t188 -28.5q106 0 183 35.5t125 93t68.5 129t14.5 143.5h-51q4 -59 -17.5 -110.5t-58.5 -90.5t-84 -61.5t-96 -22.5q-61 0 -126 28t-133.5 61.5t-143 64.5 t-158.5 37q74 55 124 103t81.5 94t46 91.5t14.5 98.5q0 20 -2 40.5t-6 39.5q35 6 62.5 12t55.5 14q16 -20 43 -50t44.5 -48t19.5 -20l166 118l-133 168q-78 -63 -143.5 -86.5t-135.5 -32.5q-16 49 -39.5 93.5t-44 84.5t-35 74.5t-14.5 65.5q0 25 8 57.5t23 61.5 q57 -31 122.5 -53.5t145.5 -22.5q84 0 162 40t164 126l-39 41q-35 -31 -61.5 -47.5t-48 -25.5t-42 -11t-43.5 -2q-80 0 -155.5 41t-151.5 90t-154.5 90t-164.5 41q-57 0 -111.5 -21.5t-96.5 -60.5t-68 -95.5t-26 -123.5zM651 1638l195 260h-148zM885 1632l198 266h-149z" />
<glyph unicode="&#xcc;" horiz-adv-x="1394" d="M104 1051q0 -98 39 -168t98.5 -116t130 -69.5t134.5 -29.5q4 0 7 9t5 21.5t3 23.5t1 15q-59 6 -118.5 31t-106.5 64.5t-77 94t-30 120.5t25 126t67 105t96 71.5t114 26.5q57 0 103 -14t88 -36.5t82 -49.5t83 -51q-78 -72 -127 -143.5t-49 -170.5q0 -92 34.5 -181 t77.5 -179l103 -215q43 -90 47 -133t-21 -68q-59 20 -115.5 48t-109.5 50.5t-102 39t-92 16.5q-113 0 -196 -77t-120 -216h53q35 90 81 126t106 36q41 0 82 -18.5t92 -45.5l115 -57q96 -49 183 -77t165 -28q111 4 208 63.5t195 207.5l-39 39q-82 -80 -148.5 -117t-137.5 -37 q-68 0 -142 23q35 66 50.5 121t13.5 111t-23.5 119.5t-60.5 145.5l-88 185q-29 61 -50.5 108t-21.5 92q0 51 34 98.5t81 94.5q55 -23 124.5 -32t139.5 6.5t134.5 61.5t107.5 134l-48 33q-49 -47 -93 -65.5t-87 -18.5t-84 14t-82 33l-106 51q-104 51 -196.5 82t-180.5 31 q-94 0 -176 -40t-143.5 -105.5t-96.5 -148.5t-35 -171zM682 1769l307 -155l15 14l-213 246h-109v-105z" />
<glyph unicode="&#xcd;" horiz-adv-x="1394" d="M104 1051q0 -98 39 -168t98.5 -116t130 -69.5t134.5 -29.5q4 0 7 9t5 21.5t3 23.5t1 15q-59 6 -118.5 31t-106.5 64.5t-77 94t-30 120.5t25 126t67 105t96 71.5t114 26.5q57 0 103 -14t88 -36.5t82 -49.5t83 -51q-78 -72 -127 -143.5t-49 -170.5q0 -92 34.5 -181 t77.5 -179l103 -215q43 -90 47 -133t-21 -68q-59 20 -115.5 48t-109.5 50.5t-102 39t-92 16.5q-113 0 -196 -77t-120 -216h53q35 90 81 126t106 36q41 0 82 -18.5t92 -45.5l115 -57q96 -49 183 -77t165 -28q111 4 208 63.5t195 207.5l-39 39q-82 -80 -148.5 -117t-137.5 -37 q-68 0 -142 23q35 66 50.5 121t13.5 111t-23.5 119.5t-60.5 145.5l-88 185q-29 61 -50.5 108t-21.5 92q0 51 34 98.5t81 94.5q55 -23 124.5 -32t139.5 6.5t134.5 61.5t107.5 134l-48 33q-49 -47 -93 -65.5t-87 -18.5t-84 14t-82 33l-106 51q-104 51 -196.5 82t-180.5 31 q-94 0 -176 -40t-143.5 -105.5t-96.5 -148.5t-35 -171zM897 1655l14 -15l308 154v107h-111z" />
<glyph unicode="&#xce;" horiz-adv-x="1394" d="M104 1051q0 -98 39 -168t98.5 -116t130 -69.5t134.5 -29.5q4 0 7 9t5 21.5t3 23.5t1 15q-59 6 -118.5 31t-106.5 64.5t-77 94t-30 120.5t25 126t67 105t96 71.5t114 26.5q57 0 103 -14t88 -36.5t82 -49.5t83 -51q-78 -72 -127 -143.5t-49 -170.5q0 -92 34.5 -181 t77.5 -179l103 -215q43 -90 47 -133t-21 -68q-59 20 -115.5 48t-109.5 50.5t-102 39t-92 16.5q-113 0 -196 -77t-120 -216h53q35 90 81 126t106 36q41 0 82 -18.5t92 -45.5l115 -57q96 -49 183 -77t165 -28q111 4 208 63.5t195 207.5l-39 39q-82 -80 -148.5 -117t-137.5 -37 q-68 0 -142 23q35 66 50.5 121t13.5 111t-23.5 119.5t-60.5 145.5l-88 185q-29 61 -50.5 108t-21.5 92q0 51 34 98.5t81 94.5q55 -23 124.5 -32t139.5 6.5t134.5 61.5t107.5 134l-48 33q-49 -47 -93 -65.5t-87 -18.5t-84 14t-82 33l-106 51q-104 51 -196.5 82t-180.5 31 q-94 0 -176 -40t-143.5 -105.5t-96.5 -148.5t-35 -171zM680 1565l35 -15q37 23 73.5 64t75.5 80q29 -23 61.5 -46.5t63.5 -45t55.5 -36t34.5 -16.5q29 -10 60.5 13.5t56.5 52.5q-66 43 -138.5 92t-131.5 96h-11q-31 -25 -57.5 -53.5t-52 -59t-56 -62.5t-69.5 -64z" />
<glyph unicode="&#xcf;" horiz-adv-x="1394" d="M104 1051q0 -98 39 -168t98.5 -116t130 -69.5t134.5 -29.5q4 0 7 9t5 21.5t3 23.5t1 15q-59 6 -118.5 31t-106.5 64.5t-77 94t-30 120.5t25 126t67 105t96 71.5t114 26.5q57 0 103 -14t88 -36.5t82 -49.5t83 -51q-78 -72 -127 -143.5t-49 -170.5q0 -92 34.5 -181 t77.5 -179l103 -215q43 -90 47 -133t-21 -68q-59 20 -115.5 48t-109.5 50.5t-102 39t-92 16.5q-113 0 -196 -77t-120 -216h53q35 90 81 126t106 36q41 0 82 -18.5t92 -45.5l115 -57q96 -49 183 -77t165 -28q111 4 208 63.5t195 207.5l-39 39q-82 -80 -148.5 -117t-137.5 -37 q-68 0 -142 23q35 66 50.5 121t13.5 111t-23.5 119.5t-60.5 145.5l-88 185q-29 61 -50.5 108t-21.5 92q0 51 34 98.5t81 94.5q55 -23 124.5 -32t139.5 6.5t134.5 61.5t107.5 134l-48 33q-49 -47 -93 -65.5t-87 -18.5t-84 14t-82 33l-106 51q-104 51 -196.5 82t-180.5 31 q-94 0 -176 -40t-143.5 -105.5t-96.5 -148.5t-35 -171zM664 1642l196 261h-149zM899 1638l197 265h-148z" />
<glyph unicode="&#xd1;" horiz-adv-x="1548" d="M104 1141q0 -76 20.5 -127t50.5 -89t64.5 -66t64.5 -53.5t50.5 -53t20.5 -66.5q0 -47 -36 -73.5t-77 -47.5l19 -57q205 72 204 256q0 94 -43 153.5t-95 106.5t-95 92t-43 111q0 35 14.5 69.5t40 63.5t61 46t78.5 17q86 0 137.5 -57t79 -147.5t36 -201t8.5 -216.5v-215 q-2 -51 -5.5 -103.5t-14.5 -110t-31.5 -122t-57.5 -139.5q-4 2 -37 17t-93 42t-124 51l-160 -239l49 -35l82 94q43 -16 68 -26.5t46.5 -19.5t45 -21.5t64.5 -32.5q115 127 186.5 236.5t112.5 213t56 210t17 226.5v138q0 98 18.5 186t52.5 153.5t80 103.5t99 38 q66 0 90.5 -47t26.5 -107q2 -72 3 -125t14.5 -98t50 -85t110.5 -85q-80 -27 -144.5 -67.5t-110.5 -104t-70.5 -154t-24.5 -215.5q0 -117 32.5 -233.5t108.5 -196.5l26 20q25 19 63 49t82 62.5t83 57.5l-35 51l-98 -51q-35 37 -51.5 72.5t-22.5 71.5t-5 73t1 74 q0 82 8.5 159.5t40 139t96 101.5t177.5 50v57q-70 18 -99.5 48t-37 70t-2 89t5.5 109q0 68 -21.5 123t-58.5 93t-86 58.5t-105 20.5q-68 0 -121 -22.5t-94 -60.5t-73.5 -88.5t-57.5 -105.5q-49 129 -138 201t-218 72q-90 0 -156.5 -36t-111.5 -92.5t-68 -124t-23 -128.5z M571 1712l31 -18l70 84q31 -12 70.5 -27.5t83.5 -31t88 -26t81 -10.5q31 0 61.5 13.5t53.5 33t37 45t14 50.5q0 35 -12 54t-23 30q-23 14 -36 17t-25 1q-10 -2 -10 -22q0 -18 14 -19q27 0 43 -10t16 -31q0 -31 -20.5 -43t-46.5 -12q-31 0 -77 15.5t-92 34t-86 33.5t-61 15 q-29 0 -55 -21.5t-49 -50t-40 -58t-30 -46.5z" />
<glyph unicode="&#xd2;" d="M104 713q0 -174 53.5 -316.5t148.5 -244t229.5 -157.5t295.5 -56q145 0 268.5 57t212.5 158.5t139 241t50 302.5q0 154 -50 276t-135 207t-196.5 129t-234.5 44q-68 0 -128.5 -19.5t-107.5 -55.5t-74.5 -85t-27.5 -109q0 -68 38 -121t84 -99t84 -92t38 -101 q0 -47 -41 -86t-103 -39q-45 0 -74.5 18.5t-49 50t-30 73.5t-16.5 87h-55q2 -61 15.5 -117.5t44 -97.5t80.5 -65.5t128 -24.5q47 0 94 17.5t85 51t61.5 83t23.5 112.5q0 88 -42 146.5t-92 103.5t-92 83t-42 85q0 53 33 85t121 32q129 0 221 -57.5t151.5 -149.5t87 -207 t27.5 -229q0 -150 -43 -264.5t-112.5 -192.5t-157.5 -118t-176 -40q-119 0 -219.5 48.5t-173 137.5t-113.5 215t-41 283q0 131 31.5 256t89.5 226q53 92 112.5 144t124 80t137 38t152.5 16h29q25 4 40 8t27.5 11.5t25.5 18.5t34 30l-35 49q-43 -41 -72 -46t-63 -9h-56 q-100 -6 -192 -24.5t-175 -59.5t-155 -110t-131 -175q-55 -98 -83 -209t-28 -227zM580 1923l307 -154l16 15l-213 246h-110v-107z" />
<glyph unicode="&#xd3;" d="M104 713q0 -174 53.5 -316.5t148.5 -244t229.5 -157.5t295.5 -56q145 0 268.5 57t212.5 158.5t139 241t50 302.5q0 154 -50 276t-135 207t-196.5 129t-234.5 44q-68 0 -128.5 -19.5t-107.5 -55.5t-74.5 -85t-27.5 -109q0 -68 38 -121t84 -99t84 -92t38 -101 q0 -47 -41 -86t-103 -39q-45 0 -74.5 18.5t-49 50t-30 73.5t-16.5 87h-55q2 -61 15.5 -117.5t44 -97.5t80.5 -65.5t128 -24.5q47 0 94 17.5t85 51t61.5 83t23.5 112.5q0 88 -42 146.5t-92 103.5t-92 83t-42 85q0 53 33 85t121 32q129 0 221 -57.5t151.5 -149.5t87 -207 t27.5 -229q0 -150 -43 -264.5t-112.5 -192.5t-157.5 -118t-176 -40q-119 0 -219.5 48.5t-173 137.5t-113.5 215t-41 283q0 131 31.5 256t89.5 226q53 92 112.5 144t124 80t137 38t152.5 16h29q25 4 40 8t27.5 11.5t25.5 18.5t34 30l-35 49q-43 -41 -72 -46t-63 -9h-56 q-100 -6 -192 -24.5t-175 -59.5t-155 -110t-131 -175q-55 -98 -83 -209t-28 -227zM901 1655l14 -15l308 154v107h-109z" />
<glyph unicode="&#xd4;" d="M104 713q0 -174 53.5 -316.5t148.5 -244t229.5 -157.5t295.5 -56q145 0 268.5 57t212.5 158.5t139 241t50 302.5q0 154 -50 276t-135 207t-196.5 129t-234.5 44q-68 0 -128.5 -19.5t-107.5 -55.5t-74.5 -85t-27.5 -109q0 -68 38 -121t84 -99t84 -92t38 -101 q0 -47 -41 -86t-103 -39q-45 0 -74.5 18.5t-49 50t-30 73.5t-16.5 87h-55q2 -61 15.5 -117.5t44 -97.5t80.5 -65.5t128 -24.5q47 0 94 17.5t85 51t61.5 83t23.5 112.5q0 88 -42 146.5t-92 103.5t-92 83t-42 85q0 53 33 85t121 32q129 0 221 -57.5t151.5 -149.5t87 -207 t27.5 -229q0 -150 -43 -264.5t-112.5 -192.5t-157.5 -118t-176 -40q-119 0 -219.5 48.5t-173 137.5t-113.5 215t-41 283q0 131 31.5 256t89.5 226q53 92 112.5 144t124 80t137 38t152.5 16h29q25 4 40 8t27.5 11.5t25.5 18.5t34 30l-35 49q-43 -41 -72 -46t-63 -9h-56 q-100 -6 -192 -24.5t-175 -59.5t-155 -110t-131 -175q-55 -98 -83 -209t-28 -227zM606 1675l37 -14q35 23 72 63.5t76 79.5q29 -23 61.5 -46t63 -44.5t55 -36t35.5 -16.5q14 -4 29.5 0t30.5 15.5t30.5 24.5t27.5 28q-66 43 -139.5 92t-130.5 96h-12q-31 -25 -57.5 -54.5 t-52 -60t-56.5 -62.5t-70 -65z" />
<glyph unicode="&#xd5;" d="M104 713q0 -174 53.5 -316.5t148.5 -244t229.5 -157.5t295.5 -56q145 0 268.5 57t212.5 158.5t139 241t50 302.5q0 154 -50 276t-135 207t-196.5 129t-234.5 44q-68 0 -128.5 -19.5t-107.5 -55.5t-74.5 -85t-27.5 -109q0 -68 38 -121t84 -99t84 -92t38 -101 q0 -47 -41 -86t-103 -39q-45 0 -74.5 18.5t-49 50t-30 73.5t-16.5 87h-55q2 -61 15.5 -117.5t44 -97.5t80.5 -65.5t128 -24.5q47 0 94 17.5t85 51t61.5 83t23.5 112.5q0 88 -42 146.5t-92 103.5t-92 83t-42 85q0 53 33 85t121 32q129 0 221 -57.5t151.5 -149.5t87 -207 t27.5 -229q0 -150 -43 -264.5t-112.5 -192.5t-157.5 -118t-176 -40q-119 0 -219.5 48.5t-173 137.5t-113.5 215t-41 283q0 131 31.5 256t89.5 226q53 92 112.5 144t124 80t137 38t152.5 16h29q25 4 40 8t27.5 11.5t25.5 18.5t34 30l-35 49q-43 -41 -72 -46t-63 -9h-56 q-100 -6 -192 -24.5t-175 -59.5t-155 -110t-131 -175q-55 -98 -83 -209t-28 -227zM592 1714l29 -18l71 84q31 -12 71 -27.5t83 -31t87 -25.5t81 -10q31 0 61.5 13t53 32.5t37 45t14.5 50.5q0 35 -11.5 54.5t-23.5 29.5q-20 14 -35 17t-25 1t-10 -22q0 -18 12 -19 q59 0 60 -41q0 -31 -19.5 -43t-46.5 -12q-31 0 -77 15.5t-92 34t-86 33.5t-60 15q-29 0 -55.5 -21.5t-50 -50t-41 -58t-27.5 -46.5z" />
<glyph unicode="&#xd6;" d="M104 713q0 -174 53.5 -316.5t148.5 -244t229.5 -157.5t295.5 -56q145 0 268.5 57t212.5 158.5t139 241t50 302.5q0 154 -50 276t-135 207t-196.5 129t-234.5 44q-68 0 -128.5 -19.5t-107.5 -55.5t-74.5 -85t-27.5 -109q0 -68 38 -121t84 -99t84 -92t38 -101 q0 -47 -41 -86t-103 -39q-45 0 -74.5 18.5t-49 50t-30 73.5t-16.5 87h-55q2 -61 15.5 -117.5t44 -97.5t80.5 -65.5t128 -24.5q47 0 94 17.5t85 51t61.5 83t23.5 112.5q0 88 -42 146.5t-92 103.5t-92 83t-42 85q0 53 33 85t121 32q129 0 221 -57.5t151.5 -149.5t87 -207 t27.5 -229q0 -150 -43 -264.5t-112.5 -192.5t-157.5 -118t-176 -40q-119 0 -219.5 48.5t-173 137.5t-113.5 215t-41 283q0 131 31.5 256t89.5 226q53 92 112.5 144t124 80t137 38t152.5 16h29q25 4 40 8t27.5 11.5t25.5 18.5t34 30l-35 49q-43 -41 -72 -46t-63 -9h-56 q-100 -6 -192 -24.5t-175 -59.5t-155 -110t-131 -175q-55 -98 -83 -209t-28 -227zM682 1624l195 260h-148zM915 1620l199 264h-149z" />
<glyph unicode="&#xd7;" horiz-adv-x="1228" d="M141 166l74 -74l397 402l402 -402l73 74l-401 399l401 400l-73 73l-402 -401l-397 401l-74 -73l400 -400z" />
<glyph unicode="&#xd8;" d="M104 713q0 -174 52.5 -316.5t150.5 -246.5l-196 -170h102l143 122q92 -78 213 -120.5t262 -42.5q145 0 268.5 57t212.5 158.5t139 241t50 302.5q0 98 -20.5 182.5t-57.5 155.5l189 166h-94l-127 -110q-86 129 -219.5 195.5t-286.5 66.5q-68 0 -128.5 -19.5t-107.5 -55.5 t-74.5 -85t-27.5 -109q0 -68 38 -121t84 -99t84 -92t38 -101q0 -47 -41 -86t-103 -39q-45 0 -74.5 18.5t-49 50t-30 73.5t-16.5 87h-55q2 -61 14.5 -115.5t42 -95.5t77.5 -66.5t122 -27.5l-266 -227q-57 86 -89 199.5t-32 252.5q0 131 31.5 256t89.5 226q53 92 112.5 144 t124 80t137 38t152.5 16h29q25 4 40 8t27.5 11.5t25.5 18.5t34 30l-35 49q-43 -41 -72 -46t-63 -9h-56q-100 -6 -192 -24.5t-175 -59.5t-155 -110t-131 -175q-55 -98 -83 -209t-28 -227zM453 188l356 310q65 35 104 94l369 321q23 -68 34 -140.5t11 -145.5 q0 -150 -43 -264.5t-112.5 -192.5t-157.5 -118t-176 -40q-115 0 -213.5 46t-171.5 130zM686 1153q0 53 33 85t121 32q78 0 142.5 -22.5t116.5 -61.5t92 -93.5t69 -117.5l-306 -264v24q0 88 -42 146.5t-92 103.5t-92 83t-42 85z" />
<glyph unicode="&#xd9;" horiz-adv-x="1662" d="M104 1188q0 -86 41 -146.5t91.5 -109.5t91.5 -91t41 -89q0 -43 -26 -73t-69 -71l39 -47q51 43 85 76t52.5 64.5t25.5 64.5t7 74q0 82 -37.5 135t-83 98t-83 92t-37.5 115q0 37 12 71.5t35.5 62.5t55.5 44.5t73 16.5q150 0 208 -139.5t58 -397.5q0 -84 -4 -156.5 t-21.5 -138t-49 -128t-87.5 -126.5v-76q66 -41 116 -80.5t91 -85t78 -96.5t78 -112q70 27 129 57.5t110.5 70t96.5 92t86 122.5q2 -37 7 -74t18.5 -76t39 -80t70.5 -90l264 211l-39 47l-90 -63q-27 8 -43 33.5t-27.5 59.5t-16.5 69.5t-7 62.5v737q0 63 -3 91t6 44.5t37.5 35 t90.5 65.5l-295 190l-201 -176l39 -55l76 61l78 -55v-602q2 -76 -7.5 -162t-41 -171t-92 -165t-160.5 -143q-35 68 -69 116t-72 89t-85.5 79.5t-113.5 85.5q43 55 77.5 108.5t60.5 117t40 144.5t14 192q0 262 -101.5 406.5t-301.5 144.5q-63 0 -127 -28t-114 -77t-82 -116.5 t-32 -149.5zM682 1841l307 -153l15 14l-213 246h-109v-107z" />
<glyph unicode="&#xda;" horiz-adv-x="1662" d="M104 1188q0 -86 41 -146.5t91.5 -109.5t91.5 -91t41 -89q0 -43 -26 -73t-69 -71l39 -47q51 43 85 76t52.5 64.5t25.5 64.5t7 74q0 82 -37.5 135t-83 98t-83 92t-37.5 115q0 37 12 71.5t35.5 62.5t55.5 44.5t73 16.5q150 0 208 -139.5t58 -397.5q0 -84 -4 -156.5 t-21.5 -138t-49 -128t-87.5 -126.5v-76q66 -41 116 -80.5t91 -85t78 -96.5t78 -112q70 27 129 57.5t110.5 70t96.5 92t86 122.5q2 -37 7 -74t18.5 -76t39 -80t70.5 -90l264 211l-39 47l-90 -63q-27 8 -43 33.5t-27.5 59.5t-16.5 69.5t-7 62.5v737q0 63 -3 91t6 44.5t37.5 35 t90.5 65.5l-295 190l-201 -176l39 -55l76 61l78 -55v-602q2 -76 -7.5 -162t-41 -171t-92 -165t-160.5 -143q-35 68 -69 116t-72 89t-85.5 79.5t-113.5 85.5q43 55 77.5 108.5t60.5 117t40 144.5t14 192q0 262 -101.5 406.5t-301.5 144.5q-63 0 -127 -28t-114 -77t-82 -116.5 t-32 -149.5zM942 1702l14 -14l308 153v107h-111z" />
<glyph unicode="&#xdb;" horiz-adv-x="1662" d="M104 1188q0 -86 41 -146.5t91.5 -109.5t91.5 -91t41 -89q0 -43 -26 -73t-69 -71l39 -47q51 43 85 76t52.5 64.5t25.5 64.5t7 74q0 82 -37.5 135t-83 98t-83 92t-37.5 115q0 37 12 71.5t35.5 62.5t55.5 44.5t73 16.5q150 0 208 -139.5t58 -397.5q0 -84 -4 -156.5 t-21.5 -138t-49 -128t-87.5 -126.5v-76q66 -41 116 -80.5t91 -85t78 -96.5t78 -112q70 27 129 57.5t110.5 70t96.5 92t86 122.5q2 -37 7 -74t18.5 -76t39 -80t70.5 -90l264 211l-39 47l-90 -63q-27 8 -43 33.5t-27.5 59.5t-16.5 69.5t-7 62.5v737q0 63 -3 91t6 44.5t37.5 35 t90.5 65.5l-295 190l-201 -176l39 -55l76 61l78 -55v-602q2 -76 -7.5 -162t-41 -171t-92 -165t-160.5 -143q-35 68 -69 116t-72 89t-85.5 79.5t-113.5 85.5q43 55 77.5 108.5t60.5 117t40 144.5t14 192q0 262 -101.5 406.5t-301.5 144.5q-63 0 -127 -28t-114 -77t-82 -116.5 t-32 -149.5zM680 1724l35 -16q37 23 73.5 63.5t75.5 81.5q29 -23 61.5 -47t63.5 -45.5t55.5 -36t34.5 -16.5q14 -4 29.5 0t31 15.5t30 24.5t26.5 28q-66 43 -138.5 92t-131.5 96h-11q-31 -25 -57.5 -53.5t-52 -59t-56 -62.5t-69.5 -65z" />
<glyph unicode="&#xdc;" horiz-adv-x="1744" d="M111 1247q0 -106 69 -196q6 -8 40 -42t95 -96q72 -76 72 -125q0 -41 -29 -75q-14 -20 -69 -74l41 -49q111 90 141 145q37 57 37 146q0 96 -68 180q-59 63 -121 127q-66 78 -65 155q0 41 13.5 78t38 66t58 45t74.5 16q152 0 217 -147q61 -135 62 -416q0 -207 -27 -311 q-33 -143 -141 -266v-78q66 -39 119 -83t98 -91q66 -76 162 -217q78 29 141.5 61.5t110.5 71.5q104 82 190 223q10 -102 27 -158q35 -88 116 -176l277 219l-41 49l-94 -65q-51 16 -78 98q-20 61 -21 137v775v30q0 16 -2 33v41q0 35 23 57l117 86l-310 199l-210 -184l40 -58 l80 64l82 -58v-632q0 -475 -317 -672q-35 66 -71 120t-75 95q-33 35 -86 78t-125 96q104 131 146 236q57 139 57 352q0 279 -107.5 429t-316.5 150q-141 0 -254 -110q-117 -117 -116 -279zM930 1704l205 272h-156zM1176 1700l208 276h-157z" />
<glyph unicode="&#xdf;" horiz-adv-x="987" d="M104 903h132q14 0 13 -5t-1 -11l55 -1206h59l17 149q57 -57 130 -99t144 -42q53 0 105.5 22.5t93.5 68.5t66.5 113.5t25.5 157.5q0 55 -10 118.5t-36 119t-72 91.5t-117 36q45 37 80.5 67.5t61.5 65.5t39 80t13 110q0 35 -5 68t-21.5 73t-48 89t-85.5 118 q-45 -27 -77.5 -46t-60 -33.5t-54.5 -25.5t-59 -21q-20 12 -53 52t-64 89t-53.5 99t-24.5 83q-2 47 8 62.5t31 15.5q23 0 53.5 -8t71.5 -8q55 0 87 18t50 48t26.5 64.5t12.5 67.5l-55 15q-23 -16 -36.5 -23.5t-23.5 -7.5q-12 0 -29.5 6t-38 12t-42 12.5t-39.5 6.5 q-37 0 -64.5 -17.5t-46 -45t-28 -62.5t-9.5 -72v-164q2 -47 3 -86t-8 -69.5t-35.5 -51t-80.5 -26.5v-68zM381 -47l27 397q76 16 146.5 -6t124.5 -72.5t87 -122t33 -151.5q0 -33 -12.5 -71t-34 -69.5t-53 -52t-68.5 -20.5q-66 0 -119 47t-131 121zM410 442l30 418 q41 18 86 19.5t80 1.5q53 0 85 -25t49.5 -60.5t22.5 -75.5t5 -69t-24.5 -69.5t-71.5 -75.5t-113.5 -55.5t-148.5 -8.5z" />
<glyph unicode="&#xe0;" horiz-adv-x="933" d="M143 496q0 -133 8.5 -226.5t35 -158t78.5 -105.5t141 -67q16 16 62 75.5t148 157.5q0 -12 7.5 -48t24 -76t40 -70.5t57.5 -30.5q8 0 22.5 13t37 33.5t54.5 45t75 45.5l-23 61q-20 0 -32.5 -10t-26.5 -10q-23 0 -36 21.5t-20.5 55.5t-9.5 77t-2 88v387l93 90l-361 203 l-184 -121q-55 -37 -92 -68t-58.5 -76t-30 -112.5t-8.5 -173.5zM311 473q0 141 20.5 244.5t84.5 189.5l200 -127v-475q-6 -16 -31.5 -46t-55 -58.5t-53.5 -50.5l-23 -21q-43 18 -70 39.5t-43 58.5t-22.5 95.5t-6.5 150.5zM322 1325l307 -154l16 15l-213 246h-110v-107z" />
<glyph unicode="&#xe1;" horiz-adv-x="933" d="M143 496q0 -133 8.5 -226.5t35 -158t78.5 -105.5t141 -67q16 16 62 75.5t148 157.5q0 -12 7.5 -48t24 -76t40 -70.5t57.5 -30.5q8 0 22.5 13t37 33.5t54.5 45t75 45.5l-23 61q-20 0 -32.5 -10t-26.5 -10q-23 0 -36 21.5t-20.5 55.5t-9.5 77t-2 88v387l93 90l-361 203 l-184 -121q-55 -37 -92 -68t-58.5 -76t-30 -112.5t-8.5 -173.5zM311 473q0 141 20.5 244.5t84.5 189.5l200 -127v-475q-6 -16 -31.5 -46t-55 -58.5t-53.5 -50.5l-23 -21q-43 18 -70 39.5t-43 58.5t-22.5 95.5t-6.5 150.5zM446 1157l17 -16l307 155v105h-111z" />
<glyph unicode="&#xe2;" horiz-adv-x="933" d="M143 496q0 -133 8.5 -226.5t35 -158t78.5 -105.5t141 -67q16 16 62 75.5t148 157.5q0 -12 7.5 -48t24 -76t40 -70.5t57.5 -30.5q8 0 22.5 13t37 33.5t54.5 45t75 45.5l-23 61q-20 0 -32.5 -10t-26.5 -10q-23 0 -36 21.5t-20.5 55.5t-9.5 77t-2 88v387l93 90l-361 203 l-184 -121q-55 -37 -92 -68t-58.5 -76t-30 -112.5t-8.5 -173.5zM303 1221l37 -15q35 23 72 64t75 80q29 -23 62 -46.5t63.5 -45t55 -36t34.5 -16.5q29 -10 61 13.5t58 52.5q-66 45 -139.5 94t-130.5 96h-12q-31 -25 -57.5 -54.5t-52.5 -60t-56.5 -62.5t-69.5 -64zM311 473 q0 141 20.5 244.5t84.5 189.5l200 -127v-475q-6 -16 -31.5 -46t-55 -58.5t-53.5 -50.5l-23 -21q-43 18 -70 39.5t-43 58.5t-22.5 95.5t-6.5 150.5z" />
<glyph unicode="&#xe3;" horiz-adv-x="933" d="M143 496q0 -133 8.5 -226.5t35 -158t78.5 -105.5t141 -67q16 16 62 75.5t148 157.5q0 -12 7.5 -48t24 -76t40 -70.5t57.5 -30.5q8 0 22.5 13t37 33.5t54.5 45t75 45.5l-23 61q-20 0 -32.5 -10t-26.5 -10q-23 0 -36 21.5t-20.5 55.5t-9.5 77t-2 88v387l93 90l-361 203 l-184 -121q-55 -37 -92 -68t-58.5 -76t-30 -112.5t-8.5 -173.5zM250 1212l29 -20l71 84q31 -10 71 -26.5t83 -32t87 -25.5t81 -10q31 0 61.5 13t53 33.5t37 45t14.5 49.5q0 35 -11.5 54.5t-23.5 29.5q-20 16 -35 19t-25 1t-10 -22q0 -18 12 -19q59 0 60 -40 q0 -31 -19.5 -43.5t-46.5 -12.5q-31 0 -77 15.5t-92 34t-86 34t-60 15.5q-29 0 -55.5 -21.5t-50 -50.5t-41 -58.5t-27.5 -46.5zM311 473q0 141 20.5 244.5t84.5 189.5l200 -127v-475q-6 -16 -31.5 -46t-55 -58.5t-53.5 -50.5l-23 -21q-43 18 -70 39.5t-43 58.5t-22.5 95.5 t-6.5 150.5z" />
<glyph unicode="&#xe4;" horiz-adv-x="933" d="M143 496q0 -133 8.5 -226.5t35 -158t78.5 -105.5t141 -67q16 16 62 75.5t148 157.5q0 -12 7.5 -48t24 -76t40 -70.5t57.5 -30.5q8 0 22.5 13t37 33.5t54.5 45t75 45.5l-23 61q-20 0 -32.5 -10t-26.5 -10q-23 0 -36 21.5t-20.5 55.5t-9.5 77t-2 88v387l93 90l-361 203 l-184 -121q-55 -37 -92 -68t-58.5 -76t-30 -112.5t-8.5 -173.5zM311 473q0 141 20.5 244.5t84.5 189.5l200 -127v-475q-6 -16 -31.5 -46t-55 -58.5t-53.5 -50.5l-23 -21q-43 18 -70 39.5t-43 58.5t-22.5 95.5t-6.5 150.5zM387 1157l195 260h-148zM621 1151l198 266h-149z " />
<glyph unicode="&#xe5;" horiz-adv-x="933" d="M143 496q0 -133 8.5 -226.5t35 -158t78.5 -105.5t141 -67q16 16 62 75.5t148 157.5q0 -12 7.5 -48t24 -76t40 -70.5t57.5 -30.5q8 0 22.5 13t37 33.5t54.5 45t75 45.5l-23 61q-20 0 -32.5 -10t-26.5 -10q-23 0 -36 21.5t-20.5 55.5t-9.5 77t-2 88v387l93 90l-361 203 l-184 -121q-55 -37 -92 -68t-58.5 -76t-30 -112.5t-8.5 -173.5zM311 473q0 141 20.5 244.5t84.5 189.5l200 -127v-475q-6 -16 -31.5 -46t-55 -58.5t-53.5 -50.5l-23 -21q-43 18 -70 39.5t-43 58.5t-22.5 95.5t-6.5 150.5zM387 1296q0 -59 40 -101t97 -42t98.5 42t41.5 101 q0 53 -41.5 94.5t-98.5 41.5t-97 -41t-40 -95zM446 1296q0 29 23.5 53.5t54.5 24.5q33 0 56.5 -24.5t23.5 -53.5q0 -35 -23.5 -58.5t-56.5 -23.5q-31 0 -54.5 24t-23.5 58z" />
<glyph unicode="&#xe6;" horiz-adv-x="1208" d="M147 496q0 -133 8.5 -226.5t35 -158t79 -105.5t140.5 -67q6 6 36.5 40.5t70.5 79.5t81 90.5t66.5 74t27.5 30.5q29 -143 90.5 -221t147.5 -94l368 194l-28 51l-236 -90q-57 0 -99 40t-68.5 94.5t-39 110.5t-10.5 91l475 227l-20 33q-35 51 -56.5 84t-39 63.5t-36 68.5 t-46.5 100l-29 43l-125 -74q-43 -23 -78 -44.5t-63 -41.5l-279 158l-184 -121q-55 -37 -92 -68t-58.5 -76t-30 -112.5t-8.5 -173.5zM315 473q0 141 20.5 244.5t84.5 189.5l201 -127v-475q-6 -16 -32 -46t-54.5 -58.5t-52.5 -50.5l-23 -21q-43 18 -71 39.5t-44 58.5 t-22.5 95.5t-6.5 150.5zM811 514q0 45 2 100.5t16.5 109.5t45 102t86.5 79q14 -35 26 -60.5t26.5 -52t34 -60.5t50.5 -85z" />
<glyph unicode="&#xe7;" horiz-adv-x="751" d="M143 463q0 -72 10.5 -145.5t38 -141t73.5 -124t118 -93.5l-74 -104l29 -25q23 6 45.5 11t44.5 5q29 0 57.5 -18t28.5 -57t-29.5 -66t-85.5 -27q-53 0 -133 29l-28 -57q41 -12 88 -23.5t96 -11.5q94 0 149.5 45t55.5 115q0 33 -13.5 58.5t-35 41.5t-49 24.5t-54.5 8.5h-31 q-14 0 -32 -4l24 37l295 180l-29 51l-163 -74q-59 8 -100.5 44t-66 90.5t-35.5 124t-11 147.5q0 51 7 106.5t22.5 105.5t41 95t64.5 80q16 -29 41.5 -74t81.5 -129l143 105q-47 63 -74.5 103t-45 66.5t-28 45t-22.5 39.5l-246 -158q-41 -27 -72.5 -57.5t-53 -77.5t-32 -117 t-10.5 -174z" />
<glyph unicode="&#xe8;" horiz-adv-x="837" d="M143 520q0 -135 25 -238.5t66.5 -176t96 -113.5t115.5 -53l369 194l-29 51l-235 -90q-57 0 -99 40t-70 94.5t-40 110.5t-8 91l475 227q-2 4 -21.5 34t-49 79t-52.5 86q-20 35 -46 81t-41 73.5t-17 31.5l-127 -67q-102 -59 -163 -101.5t-94.5 -88.5t-44 -107.5 t-10.5 -157.5zM260 1356l307 -154l15 15l-213 245h-109v-106zM326 514q0 45 2 100.5t16 109.5t45 102t88 79q14 -35 26.5 -60.5t27 -52t34 -60.5t49.5 -85z" />
<glyph unicode="&#xe9;" horiz-adv-x="837" d="M143 520q0 -135 25 -238.5t66.5 -176t96 -113.5t115.5 -53l369 194l-29 51l-235 -90q-57 0 -99 40t-70 94.5t-40 110.5t-8 91l475 227q-2 4 -21.5 34t-49 79t-52.5 86q-20 35 -46 81t-41 73.5t-17 31.5l-127 -67q-102 -59 -163 -101.5t-94.5 -88.5t-44 -107.5 t-10.5 -157.5zM326 514q0 45 2 100.5t16 109.5t45 102t88 79q14 -35 26.5 -60.5t27 -52t34 -60.5t49.5 -85zM358 1157l17 -16l307 155v105h-111z" />
<glyph unicode="&#xea;" horiz-adv-x="837" d="M143 520q0 -135 25 -238.5t66.5 -176t96 -113.5t115.5 -53l369 194l-29 51l-235 -90q-57 0 -99 40t-70 94.5t-40 110.5t-8 91l475 227q-2 4 -21.5 34t-49 79t-52.5 86q-20 35 -46 81t-41 73.5t-17 31.5l-127 -67q-102 -59 -163 -101.5t-94.5 -88.5t-44 -107.5 t-10.5 -157.5zM262 1221l37 -15q35 23 72 64t75 80q29 -23 62 -46.5t63.5 -45t55 -36t35.5 -16.5q29 -10 60.5 13.5t57.5 52.5q-66 45 -139.5 94t-130.5 96h-12q-31 -25 -56.5 -54.5t-52.5 -60t-57.5 -62.5t-69.5 -64zM326 514q0 45 2 100.5t16 109.5t45 102t88 79 q14 -35 26.5 -60.5t27 -52t34 -60.5t49.5 -85z" />
<glyph unicode="&#xeb;" horiz-adv-x="837" d="M143 520q0 -135 25 -238.5t66.5 -176t96 -113.5t115.5 -53l369 194l-29 51l-235 -90q-57 0 -99 40t-70 94.5t-40 110.5t-8 91l475 227q-2 4 -21.5 34t-49 79t-52.5 86q-20 35 -46 81t-41 73.5t-17 31.5l-127 -67q-102 -59 -163 -101.5t-94.5 -88.5t-44 -107.5 t-10.5 -157.5zM326 514q0 45 2 100.5t16 109.5t45 102t88 79q14 -35 26.5 -60.5t27 -52t34 -60.5t49.5 -85zM383 1157l195 260h-148zM616 1151l199 266h-149z" />
<glyph unicode="&#xec;" horiz-adv-x="522" d="M78 895l33 -53l49 20l49 -47v-582q0 -59 2 -98t12 -68.5t34 -59.5t67 -70q92 72 149 101.5t76 41.5l-23 57l-82 -31q-35 10 -49 34t-14 81v557l25 26q26 27 69 73l-170 165q-37 -27 -63.5 -45t-51 -33.5t-50 -32t-62.5 -36.5zM78 1362l307 -154l14 15l-213 245h-108v-106 z" />
<glyph unicode="&#xed;" horiz-adv-x="522" d="M78 895l33 -53l49 20l49 -47v-582q0 -59 2 -98t12 -68.5t34 -59.5t67 -70q92 72 149 101.5t76 41.5l-23 57l-82 -31q-35 10 -49 34t-14 81v557l25 26q26 27 69 73l-170 165q-37 -27 -63.5 -45t-51 -33.5t-50 -32t-62.5 -36.5zM211 1163l14 -16l307 156v104h-108z" />
<glyph unicode="&#xee;" horiz-adv-x="522" d="M70 1229l34 -15q37 23 74 64t76 80q29 -23 61.5 -46.5t63.5 -45t55.5 -35.5t34.5 -17q14 -4 29.5 0.5t31 14.5t29.5 24.5t27 26.5q-66 45 -138.5 94t-132.5 96h-10q-31 -25 -57.5 -54.5t-52 -60t-56 -62t-69.5 -64.5zM78 895l33 -53l49 20l49 -47v-582q0 -59 2 -98 t12 -68.5t34 -59.5t67 -70q92 72 149 101.5t76 41.5l-23 57l-82 -31q-35 10 -49 34t-14 81v557l25 26q26 27 69 73l-170 165q-37 -27 -63.5 -45t-51 -33.5t-50 -32t-62.5 -36.5z" />
<glyph unicode="&#xef;" horiz-adv-x="522" d="M78 895l33 -53l49 20l49 -47v-582q0 -59 2 -98t12 -68.5t34 -59.5t67 -70q92 72 149 101.5t76 41.5l-23 57l-82 -31q-35 10 -49 34t-14 81v557l25 26q26 27 69 73l-170 165q-37 -27 -63.5 -45t-51 -33.5t-50 -32t-62.5 -36.5zM145 1157l197 260h-149zM381 1151l197 266 h-148z" />
<glyph unicode="&#xf1;" horiz-adv-x="1007" d="M41 897l20 -59q6 2 28 10t37 14t17 6q29 -10 42.5 -38.5t18.5 -63.5t5 -74v-63v-455l-98 -94q39 -25 62.5 -41t43 -29.5t38.5 -30t48 -40.5q31 25 50.5 42t38 32.5t39 29.5t50.5 35l-100 88v573q39 29 82 53.5t80 43l61 30.5l23 11l59 -50v-591q0 -59 2 -98.5t13.5 -69 t35 -59t66.5 -70.5q92 72 149.5 104.5t77.5 42.5l-22 57l-82 -28q-35 10 -49.5 33.5t-14.5 78.5v594l84 80q-49 27 -76.5 43.5t-48 29.5t-41 28.5t-55.5 39.5q-96 -82 -184 -127t-174 -86q-2 35 -7.5 66t-18.5 57.5t-39 50t-69 41.5q-33 -37 -57 -59t-45.5 -37.5t-43 -27 t-46.5 -23.5zM221 1212l31 -20l70 84q31 -10 70.5 -26.5t82.5 -32t87 -25.5t83 -10q31 0 61.5 13t53 33.5t37 45t14.5 49.5q0 35 -12.5 54.5t-22.5 29.5q-23 16 -36 19t-25 1q-10 -2 -10 -22q0 -18 12 -19q29 0 45 -11t16 -29q0 -31 -20.5 -43.5t-46.5 -12.5q-31 0 -77 15.5 t-92 34t-86 34t-61 15.5q-29 0 -55.5 -21.5t-49 -50.5t-40 -58.5t-29.5 -46.5z" />
<glyph unicode="&#xf2;" horiz-adv-x="923" d="M90 147l385 -208q125 80 202 135t119 112.5t55 128t13 179.5q0 94 -22.5 186t-62.5 168t-95 128t-119 66q-41 -23 -142 -71.5t-237 -114.5v-614zM266 1325l307 -154l17 15l-213 246h-111v-107zM352 219v623l90 67q76 -33 122 -79t72 -101t35 -114.5t9 -120.5 q0 -41 -1 -86.5t-10.5 -95.5t-31 -106t-62.5 -120z" />
<glyph unicode="&#xf3;" horiz-adv-x="923" d="M90 147l385 -208q125 80 202 135t119 112.5t55 128t13 179.5q0 94 -22.5 186t-62.5 168t-95 128t-119 66q-41 -23 -142 -71.5t-237 -114.5v-614zM352 219v623l90 67q76 -33 122 -79t72 -101t35 -114.5t9 -120.5q0 -41 -1 -86.5t-10.5 -95.5t-31 -106t-62.5 -120z M385 1157l14 -16l308 155v105h-109z" />
<glyph unicode="&#xf4;" horiz-adv-x="923" d="M90 147l385 -208q125 80 202 135t119 112.5t55 128t13 179.5q0 94 -22.5 186t-62.5 168t-95 128t-119 66q-41 -23 -142 -71.5t-237 -114.5v-614zM252 1221l37 -15q35 23 71.5 64t75.5 80q29 -23 61.5 -46.5t63.5 -45t55.5 -36t34.5 -16.5q29 -10 60.5 13.5t58.5 52.5 q-66 45 -139.5 94t-132.5 96h-11q-31 -25 -57.5 -54.5t-52 -60t-56 -62.5t-69.5 -64zM352 219v623l90 67q76 -33 122 -79t72 -101t35 -114.5t9 -120.5q0 -41 -1 -86.5t-10.5 -95.5t-31 -106t-62.5 -120z" />
<glyph unicode="&#xf5;" horiz-adv-x="923" d="M90 147l385 -208q125 80 202 135t119 112.5t55 128t13 179.5q0 94 -22.5 186t-62.5 168t-95 128t-119 66q-41 -23 -142 -71.5t-237 -114.5v-614zM225 1212l31 -20l70 84q31 -10 70.5 -26.5t83.5 -32t88 -25.5t81 -10q31 0 61.5 13t53 33.5t37 45t14.5 49.5q0 35 -12 54.5 t-23 29.5q-23 16 -36 19t-23 1q-12 -2 -12 -22q0 -18 14 -19q27 0 43 -11t16 -29q0 -31 -20.5 -43.5t-46.5 -12.5q-31 0 -76 15.5t-92 34t-87 34t-61 15.5q-29 0 -55.5 -21.5t-49 -50.5t-39.5 -58.5t-30 -46.5zM352 219v623l90 67q76 -33 122 -79t72 -101t35 -114.5 t9 -120.5q0 -41 -1 -86.5t-10.5 -95.5t-31 -106t-62.5 -120z" />
<glyph unicode="&#xf6;" horiz-adv-x="923" d="M90 147l385 -208q125 80 202 135t119 112.5t55 128t13 179.5q0 94 -22.5 186t-62.5 168t-95 128t-119 66q-41 -23 -142 -71.5t-237 -114.5v-614zM352 219v623l90 67q76 -33 122 -79t72 -101t35 -114.5t9 -120.5q0 -41 -1 -86.5t-10.5 -95.5t-31 -106t-62.5 -120z M373 1157l194 260h-147zM606 1151l197 266h-148z" />
<glyph unicode="&#xf7;" horiz-adv-x="1228" d="M98 514h1032v102h-1032v-102zM500 141q0 -47 34.5 -80.5t81.5 -33.5q45 0 79 35.5t34 78.5q0 47 -33.5 81t-81.5 34q-47 0 -80.5 -34t-33.5 -81zM500 989q0 -47 34.5 -81t81.5 -34q45 0 79 36t34 79q0 47 -33.5 81t-81.5 34q-47 0 -80.5 -34t-33.5 -81z" />
<glyph unicode="&#xf8;" horiz-adv-x="923" d="M90 147l82 -43l-66 -104h105l37 61l36 -19q35 -19 78.5 -42t77.5 -42l35 -19q125 80 202 136t119 113.5t55 128t13 179.5q0 41 -6 91t-19.5 103t-33.5 105.5t-51 99.5l108 176h-94l-68 -108q-29 29 -60.5 50t-72.5 29l-381 -186v-612zM352 219v14l291 480 q37 -102 37 -217q0 -41 -1 -86t-10.5 -96.5t-31 -107.5t-62.5 -120zM352 399v443q14 12 24.5 19t20 14.5t19.5 14.5t26 19q53 -23 90 -51.5t64 -62.5z" />
<glyph unicode="&#xf9;" horiz-adv-x="997" d="M41 897l20 -59q6 2 28 10t37 14t17 6q27 -10 40.5 -35.5t19.5 -60.5t6 -74v-69v-467l-92 -80q49 -29 77.5 -45.5t49 -29.5t42 -28.5t56.5 -39.5q98 80 184 126t172 89q2 -35 6.5 -66t18.5 -57.5t39.5 -50t68.5 -41.5q33 37 57.5 59t47 37.5t44 27t46.5 23.5l-22 57 l-82 -28q-35 10 -49.5 33.5t-14.5 78.5v582l98 94q-43 25 -69.5 41.5t-46 29.5t-36 29.5l-40.5 40.5q-35 -35 -55.5 -54t-39 -32.5t-37 -23.5t-48.5 -29l102 -88v-588l-248 -125l-57 52v602q0 45 -6 78.5t-22.5 65.5t-45 64.5t-74.5 77.5q-33 -37 -57 -59t-45.5 -37.5 t-43 -27t-46.5 -23.5zM285 1352l307 -156l14 16l-213 244h-108v-104z" />
<glyph unicode="&#xfa;" horiz-adv-x="997" d="M41 897l20 -59q6 2 28 10t37 14t17 6q27 -10 40.5 -35.5t19.5 -60.5t6 -74v-69v-467l-92 -80q49 -29 77.5 -45.5t49 -29.5t42 -28.5t56.5 -39.5q98 80 184 126t172 89q2 -35 6.5 -66t18.5 -57.5t39.5 -50t68.5 -41.5q33 37 57.5 59t47 37.5t44 27t46.5 23.5l-22 57 l-82 -28q-35 10 -49.5 33.5t-14.5 78.5v582l98 94q-43 25 -69.5 41.5t-46 29.5t-36 29.5l-40.5 40.5q-35 -35 -55.5 -54t-39 -32.5t-37 -23.5t-48.5 -29l102 -88v-588l-248 -125l-57 52v602q0 45 -6 78.5t-22.5 65.5t-45 64.5t-74.5 77.5q-33 -37 -57 -59t-45.5 -37.5 t-43 -27t-46.5 -23.5zM438 1178l15 -15l307 154v106h-109z" />
<glyph unicode="&#xfb;" horiz-adv-x="997" d="M41 897l20 -59q6 2 28 10t37 14t17 6q27 -10 40.5 -35.5t19.5 -60.5t6 -74v-69v-467l-92 -80q49 -29 77.5 -45.5t49 -29.5t42 -28.5t56.5 -39.5q98 80 184 126t172 89q2 -35 6.5 -66t18.5 -57.5t39.5 -50t68.5 -41.5q33 37 57.5 59t47 37.5t44 27t46.5 23.5l-22 57 l-82 -28q-35 10 -49.5 33.5t-14.5 78.5v582l98 94q-43 25 -69.5 41.5t-46 29.5t-36 29.5l-40.5 40.5q-35 -35 -55.5 -54t-39 -32.5t-37 -23.5t-48.5 -29l102 -88v-588l-248 -125l-57 52v602q0 45 -6 78.5t-22.5 65.5t-45 64.5t-74.5 77.5q-33 -37 -57 -59t-45.5 -37.5 t-43 -27t-46.5 -23.5zM291 1221l35 -15q37 23 73.5 64t75.5 80q29 -23 61.5 -46.5t63.5 -45t55.5 -36t34.5 -16.5q29 -10 60.5 13.5t58.5 52.5q-66 45 -139.5 94t-132.5 96h-11q-31 -25 -57.5 -54.5t-52 -60t-56 -62.5t-69.5 -64z" />
<glyph unicode="&#xfc;" horiz-adv-x="997" d="M41 897l20 -59q6 2 28 10t37 14t17 6q27 -10 40.5 -35.5t19.5 -60.5t6 -74v-69v-467l-92 -80q49 -29 77.5 -45.5t49 -29.5t42 -28.5t56.5 -39.5q98 80 184 126t172 89q2 -35 6.5 -66t18.5 -57.5t39.5 -50t68.5 -41.5q33 37 57.5 59t47 37.5t44 27t46.5 23.5l-22 57 l-82 -28q-35 10 -49.5 33.5t-14.5 78.5v582l98 94q-43 25 -69.5 41.5t-46 29.5t-36 29.5l-40.5 40.5q-35 -35 -55.5 -54t-39 -32.5t-37 -23.5t-48.5 -29l102 -88v-588l-248 -125l-57 52v602q0 45 -6 78.5t-22.5 65.5t-45 64.5t-74.5 77.5q-33 -37 -57 -59t-45.5 -37.5 t-43 -27t-46.5 -23.5zM369 1178l196 260h-147zM604 1174l197 264h-148z" />
<glyph unicode="&#xfd;" horiz-adv-x="915" d="M98 897q0 -53 17.5 -79.5t38 -55.5t38 -77t17.5 -144v-357l-92 -69l313 -203q-66 -55 -104.5 -101.5t-32.5 -111.5q4 -74 63 -107q27 -16 71 -15t90 11.5t90 25.5t71 28l-16 53q-39 -6 -70 -10t-57 2q-35 8 -62 28.5t-22 48.5q6 49 41.5 96.5t80.5 89.5t89.5 75.5 t66.5 54.5q43 41 70.5 77t43 77.5t20.5 94t5 126.5q0 55 -6 120.5t-21.5 134t-42 139.5t-65.5 134l-196 -174l32 -39l47 39q16 -23 31 -66t24 -93t14 -105.5t5 -102.5q0 -111 -27.5 -218t-93.5 -193l-188 119v475q0 74 -13.5 121t-33 77.5t-42 49t-42 37t-32.5 41t-13 61.5 q0 25 6 59l-43 27q-33 -59 -51.5 -109.5t-18.5 -91.5zM453 1157l16 -16l307 155v105h-110z" />
<glyph unicode="&#xff;" horiz-adv-x="915" d="M98 897q0 -53 17.5 -79.5t38 -55.5t38 -77t17.5 -144v-357l-92 -69l313 -203q-66 -55 -104.5 -101.5t-32.5 -111.5q4 -74 63 -107q27 -16 71 -15t90 11.5t90 25.5t71 28l-16 53q-39 -6 -70 -10t-57 2q-35 8 -62 28.5t-22 48.5q6 49 41.5 96.5t80.5 89.5t89.5 75.5 t66.5 54.5q43 41 70.5 77t43 77.5t20.5 94t5 126.5q0 55 -6 120.5t-21.5 134t-42 139.5t-65.5 134l-196 -174l32 -39l47 39q16 -23 31 -66t24 -93t14 -105.5t5 -102.5q0 -111 -27.5 -218t-93.5 -193l-188 119v475q0 74 -13.5 121t-33 77.5t-42 49t-42 37t-32.5 41t-13 61.5 q0 25 6 59l-43 27q-33 -59 -51.5 -109.5t-18.5 -91.5zM311 1157l197 260h-150zM547 1151l196 266h-147z" />
<glyph unicode="&#x152;" horiz-adv-x="2095" d="M104 711q0 -174 53.5 -316.5t148.5 -244t229 -157.5t296 -56q127 0 236 44t199 117q51 -18 105 -45.5t113.5 -53.5t124 -43t136.5 -17q106 0 183 35.5t125 93t68.5 129t14.5 143.5h-51q4 -59 -17.5 -110.5t-58.5 -90.5t-84 -61.5t-96 -22.5q-51 0 -104.5 21.5 t-108.5 52.5t-114.5 62.5t-123.5 50.5q45 68 71 144.5t38 146t15 123t3 75.5q37 0 74 7t66 16q16 -20 42.5 -49t44 -47.5t19.5 -20.5q6 -6 33.5 10.5t58.5 39t53.5 43t20.5 24.5l-133 168q-78 -63 -142.5 -86t-136.5 -33q-18 49 -40.5 93t-44 84t-36 76t-14.5 66 q0 23 9.5 56.5t23.5 60.5q57 -29 122.5 -51.5t143.5 -22.5q86 0 164 40t164 126l-39 39q-35 -29 -61.5 -46t-49 -26.5t-43 -11.5t-43.5 -2q-80 0 -156.5 40t-160.5 88t-179.5 88t-211.5 40q-35 0 -81 -5t-94.5 -12t-93.5 -14.5t-77 -13.5q-55 -8 -119 -27.5t-129.5 -59.5 t-128 -103.5t-115.5 -157.5q-55 -98 -83 -209t-28 -227zM291 694q0 131 31.5 256t89.5 226q45 80 97 130t108.5 79.5t115 43t119.5 17.5q78 4 152.5 -15.5t139 -48t116.5 -59.5t83 -49q-31 -41 -45 -78q-86 78 -191.5 117t-221.5 39q-68 0 -128.5 -19.5t-107.5 -55.5 t-74.5 -85t-27.5 -109q0 -68 38 -121t84 -99t84 -92t38 -101q0 -47 -41 -87t-103 -40q-45 0 -74.5 19.5t-49 51t-30 73.5t-16.5 87h-55q2 -61 15.5 -117.5t44 -97.5t80.5 -65.5t128 -24.5q47 0 94 17.5t85 51t61.5 83t23.5 112.5q0 88 -42 146.5t-92 103.5t-92 83t-42 85 q0 53 33 85t121 32q129 0 221 -57.5t151.5 -149.5t87 -207t27.5 -229q0 -150 -43 -264.5t-112.5 -192.5t-157.5 -118t-176 -40q-119 0 -219.5 48t-173 137.5t-113.5 215.5t-41 283z" />
<glyph unicode="&#x153;" horiz-adv-x="1388" d="M104 150l385 -211q92 57 157 103t110 87q45 -86 104.5 -132t124.5 -58l367 194l-29 51l-236 -90q-55 0 -97 40t-69.5 94.5t-40 110.5t-10.5 91l476 227l-21 33q-35 51 -56.5 84t-39 63.5t-35.5 68.5t-47 100l-27 43l-127 -74q-66 -37 -112.5 -66.5t-79.5 -56.5 q-35 72 -89.5 124t-131.5 68q-41 -23 -143.5 -67.5t-233.5 -118.5v-614q-23 -20 -49.5 -46t-49.5 -48zM367 221v623q14 12 24 19t19.5 14.5t19.5 14.5t29 19q76 -33 122 -79t70.5 -101t33.5 -114.5t9 -120.5q0 -41 -1 -86t-10 -95.5t-30.5 -106.5t-60.5 -120zM864 514 q0 45 2 100.5t16.5 109.5t45 102t86.5 79q14 -35 26.5 -60.5t26.5 -52t33.5 -60.5t50.5 -85z" />
<glyph unicode="&#x178;" horiz-adv-x="1497" d="M104 1153q0 -80 36 -142.5t79 -115.5t79 -100t36 -97q0 -41 -25.5 -76.5t-66.5 -86.5l45 -43q57 55 93 97t54.5 76.5t24.5 65.5t6 68q0 78 -38 134t-84 104t-84 93.5t-38 100.5q0 80 51.5 140.5t145.5 60.5q66 0 109.5 -41t71.5 -112t39 -167t11 -207q0 -143 -26.5 -278 t-92.5 -221v-64q63 -31 101.5 -54.5t67 -51t54 -62.5t62.5 -90q61 51 146.5 94t156.5 60q-31 -113 -79 -208.5t-112.5 -164t-146.5 -107.5t-182 -39q-92 0 -125 48.5t-37 126.5q-31 -12 -52.5 -20.5t-43 -12.5t-47.5 -4q-27 0 -64 4q14 -35 22.5 -55.5t12.5 -39t5 -43 t1 -67.5q31 10 54.5 15t66.5 -1h35q27 0 63.5 -6t92.5 -6q203 0 350 86t244.5 223t144.5 310.5t47 349.5q0 139 -14.5 240.5t-36 177t-44 132t-39.5 107.5t-23.5 103.5t6.5 119.5l-39 27q-63 -70 -71.5 -162t6.5 -199.5t38 -229.5t23 -251q0 -96 -9.5 -189t-27.5 -179 q-70 -10 -132.5 -35t-93.5 -39q-33 49 -55 77.5t-43.5 49t-47.5 39t-65 45.5q33 51 58.5 96t43 96.5t26 111.5t8.5 144q0 141 -28 255t-78 193t-120.5 121t-156.5 42q-72 0 -135.5 -29t-110.5 -79t-75 -116.5t-28 -142.5zM883 1718l16 -14l307 156v104h-110z" />
<glyph unicode="&#x2c6;" horiz-adv-x="579" d="M104 1114l37 -16q35 23 72 63.5t78 81.5q27 -23 60.5 -47.5t64 -46t55.5 -35.5t35 -16q14 -4 29.5 0t31 15t29.5 24.5t27 27.5q-66 43 -138.5 92.5t-132.5 96.5h-10q-31 -25 -57.5 -53.5t-52 -59.5t-56.5 -62.5t-72 -64.5z" />
<glyph unicode="&#x2dc;" horiz-adv-x="651" d="M104 1212l31 -20l72 84q31 -10 70.5 -26.5t82.5 -32t87.5 -25.5t80.5 -10q31 0 62 13t53.5 33.5t36.5 45t14 49.5q0 35 -12 54.5t-23 29.5q-23 16 -36 19t-23 1q-12 -2 -12 -22q0 -18 14 -19q59 0 60 -40q0 -31 -20.5 -43.5t-45.5 -12.5q-31 0 -77 15.5t-92 34t-87 34 t-61 15.5q-29 0 -55.5 -21.5t-49 -50.5t-40 -58.5t-30.5 -46.5z" />
<glyph unicode="&#x2000;" horiz-adv-x="1015" />
<glyph unicode="&#x2001;" horiz-adv-x="2030" />
<glyph unicode="&#x2002;" horiz-adv-x="1015" />
<glyph unicode="&#x2003;" horiz-adv-x="2030" />
<glyph unicode="&#x2004;" horiz-adv-x="676" />
<glyph unicode="&#x2005;" horiz-adv-x="507" />
<glyph unicode="&#x2006;" horiz-adv-x="338" />
<glyph unicode="&#x2007;" horiz-adv-x="338" />
<glyph unicode="&#x2008;" horiz-adv-x="253" />
<glyph unicode="&#x2009;" horiz-adv-x="406" />
<glyph unicode="&#x200a;" horiz-adv-x="112" />
<glyph unicode="&#x2010;" horiz-adv-x="653" d="M113 391h503v127h-503v-127z" />
<glyph unicode="&#x2011;" horiz-adv-x="653" d="M113 391h503v127h-503v-127z" />
<glyph unicode="&#x2012;" horiz-adv-x="653" d="M113 391h503v127h-503v-127z" />
<glyph unicode="&#x2013;" horiz-adv-x="1589" d="M104 399h1463v123h-1463v-123z" />
<glyph unicode="&#x2014;" horiz-adv-x="2109" d="M104 399h1979v123h-1979v-123z" />
<glyph unicode="&#x2018;" horiz-adv-x="602" d="M195 1042q43 -37 68.5 -60.5t42 -39.5t28.5 -29.5t24 -27.5q12 14 34 37.5t45.5 48t46 46t34.5 34.5q-39 33 -65.5 55t-42.5 43q-29 39 -27 86t17.5 93t39 87t37.5 70l-45 24q-18 -29 -30.5 -48t-22.5 -36.5t-19.5 -38t-23.5 -51.5l-90 -200q-4 -6 -11.5 -19.5t-15.5 -28 t-15 -27.5t-9 -18z" />
<glyph unicode="&#x2019;" horiz-adv-x="602" d="M211 1343q39 -33 64.5 -55t41.5 -43q29 -39 28 -86t-16.5 -93t-39 -88t-37.5 -69l45 -24q18 29 30.5 48t22.5 36.5t19.5 38t23.5 51.5l90 201q2 6 10.5 19t15.5 27.5t14 28t9 17.5q-41 37 -67.5 60.5t-42.5 39.5t-28.5 29.5t-24.5 27.5q-12 -14 -33 -37.5t-44.5 -48 t-46 -46t-34.5 -34.5z" />
<glyph unicode="&#x201a;" horiz-adv-x="630" d="M221 205q90 -74 113 -105q29 -41 28 -92q0 -72 -98 -258l47 -24q63 94 101 182l96 209q14 29 27.5 52.5t23.5 43.5q-145 131 -172 166q-29 -35 -70 -79t-96 -95z" />
<glyph unicode="&#x201c;" horiz-adv-x="774" d="M178 1049q31 -29 50.5 -46.5t35 -34t31.5 -35t43 -48.5q2 4 18.5 22.5t37 39t39 37.5t28.5 20q20 -20 34.5 -35t27 -27t25.5 -25.5t30 -31.5q35 41 53 61.5t32.5 34.5t30 27.5t43.5 40.5q-37 33 -63.5 55t-44.5 45q-29 39 -26 87t20.5 95t39 87t33.5 63l-47 26 q-16 -16 -25.5 -36.5t-17.5 -34.5l-139 -301q-6 -12 -8 -18.5t-17 -16.5l-20 20l-14.5 14.5t-12.5 13.5t-14 21q-23 35 -17.5 80t22.5 89t37.5 83t31.5 60l-43 28q-12 -14 -18.5 -25t-12.5 -22l-154 -327q-14 -31 -27.5 -52.5t-21.5 -33.5z" />
<glyph unicode="&#x201d;" horiz-adv-x="774" d="M203 1346q37 -33 63.5 -55.5t42.5 -45.5q29 -39 26 -87t-19.5 -95t-39 -88t-32.5 -62l47 -26q14 16 23.5 36.5t19.5 34.5l139 302q6 12 8 18t15 16l20 -20t15.5 -14.5t13.5 -13.5t14 -21q20 -35 15 -80t-21 -90t-37.5 -83t-32.5 -59l43 -28q25 27 33 47l152 328 q16 31 28.5 51t20.5 35q-31 29 -49.5 46t-33.5 33.5t-31.5 35t-43.5 48.5q-4 -4 -19.5 -22.5t-36 -39t-40 -37.5t-27.5 -19q-20 20 -34.5 33.5t-28 25.5t-26.5 26.5t-30 32.5q-35 -41 -53 -62.5t-32.5 -34.5t-30 -27.5t-41.5 -38.5z" />
<glyph unicode="&#x201e;" horiz-adv-x="813" d="M213 207q47 -41 74.5 -68.5t36.5 -38.5q29 -39 28 -88q0 -59 -41 -147l-55 -111l49 -26q16 25 27.5 43t17.5 30l146 316q14 25 24 37q63 -70 66 -74q18 -29 18 -70q0 -68 -96 -256l45 -28q10 14 19.5 26t13.5 23l159 342q18 33 30.5 55.5t21.5 34.5q-90 82 -166 172 q-90 -115 -127 -125q-47 45 -78 76.5t-47 48.5q-133 -145 -166 -172z" />
<glyph unicode="&#x2022;" horiz-adv-x="430" d="M104 623q39 -33 86.5 -80t79.5 -82q33 39 52.5 61.5t34 36.5t29.5 27.5t44 38.5q-33 29 -50.5 45t-31.5 30.5t-31.5 32.5t-48.5 55q-35 -39 -53 -59t-33.5 -35.5t-32 -30t-45.5 -40.5z" />
<glyph unicode="&#x2026;" horiz-adv-x="1212" d="M111 104l170 -170l168 177l-173 168zM514 104l172 -170l168 177l-172 168zM918 104l172 -170l167 177l-172 168z" />
<glyph unicode="&#x202f;" horiz-adv-x="406" />
<glyph unicode="&#x2039;" horiz-adv-x="724" d="M47 565q10 -10 18.5 -18t17.5 -19.5t22.5 -29t31.5 -47.5l219 -345q35 -53 58 -108l135 78l-342 540l471 361h-84l-432 -330q-23 -16 -45.5 -33.5t-69.5 -48.5z" />
<glyph unicode="&#x203a;" horiz-adv-x="724" d="M47 -2h86l430 332q23 16 45.5 33.5t71.5 48.5q-12 10 -20.5 18t-17.5 19.5t-21.5 30t-32.5 46.5l-219 342q-16 27 -31.5 55.5t-26.5 53.5l-135 -78l342 -539z" />
<glyph unicode="&#x205f;" horiz-adv-x="507" />
<glyph unicode="&#x2122;" horiz-adv-x="923" d="M104 1432h121v-289h90v289h134v77h-345v-77zM528 1143h86v198l101 -196l102 196v-198h86v366h-84l-104 -186l-103 186h-84v-366z" />
<glyph unicode="&#x25fc;" horiz-adv-x="1044" d="M0 0v1044h1044v-1044h-1044z" />
</font>
</defs>
</svg>
